<svg width="75" height="139" viewBox="0 0 75 139" fill="none" xmlns="http://www.w3.org/2000/svg">
<path d="M75 105.269V39.5V36.9404C75 26.7366 61.5128 23.0855 56.3656 31.8959L54.8182 34.5445C53.0253 37.6134 49.7381 39.5 46.1838 39.5H10C4.47715 39.5 0 43.9772 0 49.5V93.5C0 99.0229 4.47715 103.5 10 103.5H46.4965C49.8811 103.5 53.036 105.212 54.8807 108.05L56.6158 110.719C62.041 119.065 75 115.223 75 105.269Z" fill="#FBFBFB"/>
<path d="M15.3334 54.3332V87.6665C15.3334 88.7716 15.7724 89.8314 16.5538 90.6128C17.3352 91.3942 18.395 91.8332 19.5 91.8332H44.5C45.6051 91.8332 46.6649 91.3942 47.4463 90.6128C48.2277 89.8314 48.6667 88.7716 48.6667 87.6665V63.379C48.6666 62.8239 48.5557 62.2744 48.3403 61.7628C48.1249 61.2512 47.8095 60.7878 47.4125 60.3998L38.1625 51.354C37.3841 50.5929 36.3387 50.1666 35.25 50.1665H19.5C18.395 50.1665 17.3352 50.6055 16.5538 51.3869C15.7724 52.1683 15.3334 53.2281 15.3334 54.3332V54.3332Z" stroke="#0077B6" stroke-width="3" stroke-linecap="round" stroke-linejoin="round"/>
<path d="M36.1667 50.1665V58.4998C36.1667 59.6049 36.6057 60.6647 37.3871 61.4461C38.1685 62.2275 39.2283 62.6665 40.3334 62.6665H48.6667" stroke="#0077B6" stroke-width="3" stroke-linejoin="round"/>
</svg>
