<svg width="85" height="85" viewBox="0 0 85 85" fill="none" xmlns="http://www.w3.org/2000/svg">
<path d="M74.8711 38.3452C76.5498 40.541 76.5498 43.5054 74.8711 45.6977C69.5834 52.6004 56.8971 66.8131 42.0859 66.8131C27.2746 66.8131 14.5884 52.6004 9.30067 45.6977C8.4839 44.6463 8.04053 43.3528 8.04053 42.0214C8.04053 40.69 8.4839 39.3966 9.30067 38.3452C14.5884 31.4424 27.2746 17.2297 42.0859 17.2297C56.8971 17.2297 69.5834 31.4424 74.8711 38.3452V38.3452Z" stroke="#0077B6" stroke-width="4.58333" stroke-linecap="round" stroke-linejoin="round"/>
<path d="M42.0859 52.6464C47.954 52.6464 52.7109 47.8894 52.7109 42.0214C52.7109 36.1533 47.954 31.3964 42.0859 31.3964C36.2179 31.3964 31.4609 36.1533 31.4609 42.0214C31.4609 47.8894 36.2179 52.6464 42.0859 52.6464Z" stroke="#0077B6" stroke-width="4.58333" stroke-linecap="round" stroke-linejoin="round"/>
</svg>
