<svg width="80" height="80" viewBox="0 0 80 80" fill="none" xmlns="http://www.w3.org/2000/svg">
<path d="M31.6258 75.8333C29.8904 70.1738 27.2731 65.9556 23.7722 63.1772C18.5217 59.0104 10.1793 61.6011 7.09803 57.3016C4.01678 53.002 9.25667 45.097 11.0948 40.4326C12.9347 35.7682 4.04688 34.1196 5.08459 32.795C5.77521 31.9114 10.2678 29.3649 18.5589 25.1521C20.9141 11.7168 29.6142 5 44.6627 5C67.2338 5 75.8329 24.1356 75.8329 36.3083C75.8329 48.4793 65.4204 61.5905 50.5879 64.4185C49.2616 66.3488 51.1741 70.156 56.3254 75.8351" stroke="#0077B6" stroke-width="8.26448" stroke-linecap="round" stroke-linejoin="round"/>
<path d="M32.4476 23.5938C31.2895 28.081 31.633 31.2331 33.48 33.0465C35.3252 34.8616 38.4702 36.048 42.915 36.6058C41.9056 42.3965 43.1364 45.1111 46.6037 44.7534C50.0709 44.3957 52.1552 42.956 52.8547 40.4326C58.2734 41.9555 61.2113 40.6805 61.6664 36.6076C62.3481 30.4982 59.0544 25.6267 57.7032 25.6267C56.3539 25.6267 52.8547 25.462 52.8547 23.5938C52.8547 21.7255 48.7676 20.6719 45.079 20.6719C41.3903 20.6719 43.6092 18.1839 38.5446 19.1667C35.1676 19.8219 33.1347 21.297 32.4476 23.5938V23.5938Z" stroke="#0077B6" stroke-width="7.08333" stroke-linejoin="round"/>
<path d="M51.9267 43.0729C50.1258 44.1903 47.6554 46.0479 46.6142 47.5C44.0128 51.1302 41.9038 53.3384 41.4434 55.66" stroke="#0077B6" stroke-width="7.08333" stroke-linecap="round"/>
</svg>
