<svg width="48" height="66" viewBox="0 0 48 66" fill="none" xmlns="http://www.w3.org/2000/svg">
<path d="M6.10238 58.9734H2.45438L1.78238 60.8334H0.630375L3.65438 52.5174H4.91438L7.92638 60.8334H6.77438L6.10238 58.9734ZM5.79038 58.0854L4.27838 53.8614L2.76638 58.0854H5.79038ZM11.9563 54.1494C12.5243 54.1494 13.0203 54.2734 13.4443 54.5214C13.8763 54.7694 14.1963 55.0814 14.4043 55.4574V54.2574H15.5083V60.9774C15.5083 61.5774 15.3803 62.1094 15.1243 62.5734C14.8683 63.0454 14.5003 63.4134 14.0203 63.6774C13.5483 63.9414 12.9963 64.0734 12.3643 64.0734C11.5003 64.0734 10.7803 63.8694 10.2043 63.4614C9.62831 63.0534 9.28831 62.4974 9.18431 61.7934H10.2643C10.3843 62.1934 10.6323 62.5134 11.0083 62.7534C11.3843 63.0014 11.8363 63.1254 12.3643 63.1254C12.9643 63.1254 13.4523 62.9374 13.8283 62.5614C14.2123 62.1854 14.4043 61.6574 14.4043 60.9774V59.5974C14.1883 59.9814 13.8683 60.3014 13.4443 60.5574C13.0203 60.8134 12.5243 60.9414 11.9563 60.9414C11.3723 60.9414 10.8403 60.7974 10.3603 60.5094C9.88831 60.2214 9.51631 59.8174 9.24431 59.2974C8.97231 58.7774 8.83631 58.1854 8.83631 57.5214C8.83631 56.8494 8.97231 56.2614 9.24431 55.7574C9.51631 55.2454 9.88831 54.8494 10.3603 54.5694C10.8403 54.2894 11.3723 54.1494 11.9563 54.1494ZM14.4043 57.5334C14.4043 57.0374 14.3043 56.6054 14.1043 56.2374C13.9043 55.8694 13.6323 55.5894 13.2883 55.3974C12.9523 55.1974 12.5803 55.0974 12.1723 55.0974C11.7643 55.0974 11.3923 55.1934 11.0563 55.3854C10.7203 55.5774 10.4523 55.8574 10.2523 56.2254C10.0523 56.5934 9.95231 57.0254 9.95231 57.5214C9.95231 58.0254 10.0523 58.4654 10.2523 58.8414C10.4523 59.2094 10.7203 59.4934 11.0563 59.6934C11.3923 59.8854 11.7643 59.9814 12.1723 59.9814C12.5803 59.9814 12.9523 59.8854 13.2883 59.6934C13.6323 59.4934 13.9043 59.2094 14.1043 58.8414C14.3043 58.4654 14.4043 58.0294 14.4043 57.5334ZM23.3537 57.2934C23.3537 57.5014 23.3417 57.7214 23.3177 57.9534H18.0617C18.1017 58.6014 18.3217 59.1094 18.7217 59.4774C19.1297 59.8374 19.6217 60.0174 20.1977 60.0174C20.6697 60.0174 21.0617 59.9094 21.3737 59.6934C21.6937 59.4694 21.9177 59.1734 22.0457 58.8054H23.2217C23.0457 59.4374 22.6937 59.9534 22.1657 60.3534C21.6377 60.7454 20.9817 60.9414 20.1977 60.9414C19.5737 60.9414 19.0137 60.8014 18.5177 60.5214C18.0297 60.2414 17.6457 59.8454 17.3657 59.3334C17.0857 58.8134 16.9457 58.2134 16.9457 57.5334C16.9457 56.8534 17.0817 56.2574 17.3537 55.7454C17.6257 55.2334 18.0057 54.8414 18.4937 54.5694C18.9897 54.2894 19.5577 54.1494 20.1977 54.1494C20.8217 54.1494 21.3737 54.2854 21.8537 54.5574C22.3337 54.8294 22.7017 55.2054 22.9577 55.6854C23.2217 56.1574 23.3537 56.6934 23.3537 57.2934ZM22.2257 57.0654C22.2257 56.6494 22.1337 56.2934 21.9497 55.9974C21.7657 55.6934 21.5137 55.4654 21.1937 55.3134C20.8817 55.1534 20.5337 55.0734 20.1497 55.0734C19.5977 55.0734 19.1257 55.2494 18.7337 55.6014C18.3497 55.9534 18.1297 56.4414 18.0737 57.0654H22.2257ZM27.9991 54.1374C28.7991 54.1374 29.4471 54.3814 29.9431 54.8694C30.4391 55.3494 30.6871 56.0454 30.6871 56.9574V60.8334H29.6071V57.1134C29.6071 56.4574 29.4431 55.9574 29.1151 55.6134C28.7871 55.2614 28.3391 55.0854 27.7711 55.0854C27.1951 55.0854 26.7351 55.2654 26.3911 55.6254C26.0551 55.9854 25.8871 56.5094 25.8871 57.1974V60.8334H24.7951V54.2574H25.8871V55.1934C26.1031 54.8574 26.3951 54.5974 26.7631 54.4134C27.1391 54.2294 27.5511 54.1374 27.9991 54.1374ZM32.0629 57.5214C32.0629 56.8494 32.1989 56.2614 32.4709 55.7574C32.7429 55.2454 33.1149 54.8494 33.5869 54.5694C34.0669 54.2894 34.6029 54.1494 35.1949 54.1494C35.7069 54.1494 36.1829 54.2694 36.6229 54.5094C37.0629 54.7414 37.3989 55.0494 37.6309 55.4334V51.9534H38.7349V60.8334H37.6309V59.5974C37.4149 59.9894 37.0949 60.3134 36.6709 60.5694C36.2469 60.8174 35.7509 60.9414 35.1829 60.9414C34.5989 60.9414 34.0669 60.7974 33.5869 60.5094C33.1149 60.2214 32.7429 59.8174 32.4709 59.2974C32.1989 58.7774 32.0629 58.1854 32.0629 57.5214ZM37.6309 57.5334C37.6309 57.0374 37.5309 56.6054 37.3309 56.2374C37.1309 55.8694 36.8589 55.5894 36.5149 55.3974C36.1789 55.1974 35.8069 55.0974 35.3989 55.0974C34.9909 55.0974 34.6189 55.1934 34.2829 55.3854C33.9469 55.5774 33.6789 55.8574 33.4789 56.2254C33.2789 56.5934 33.1789 57.0254 33.1789 57.5214C33.1789 58.0254 33.2789 58.4654 33.4789 58.8414C33.6789 59.2094 33.9469 59.4934 34.2829 59.6934C34.6189 59.8854 34.9909 59.9814 35.3989 59.9814C35.8069 59.9814 36.1789 59.8854 36.5149 59.6934C36.8589 59.4934 37.1309 59.2094 37.3309 58.8414C37.5309 58.4654 37.6309 58.0294 37.6309 57.5334ZM40.1723 57.5214C40.1723 56.8494 40.3083 56.2614 40.5803 55.7574C40.8523 55.2454 41.2243 54.8494 41.6963 54.5694C42.1763 54.2894 42.7083 54.1494 43.2923 54.1494C43.8683 54.1494 44.3683 54.2734 44.7923 54.5214C45.2163 54.7694 45.5323 55.0814 45.7403 55.4574V54.2574H46.8443V60.8334H45.7403V59.6094C45.5243 59.9934 45.2003 60.3134 44.7683 60.5694C44.3443 60.8174 43.8483 60.9414 43.2803 60.9414C42.6963 60.9414 42.1683 60.7974 41.6963 60.5094C41.2243 60.2214 40.8523 59.8174 40.5803 59.2974C40.3083 58.7774 40.1723 58.1854 40.1723 57.5214ZM45.7403 57.5334C45.7403 57.0374 45.6403 56.6054 45.4403 56.2374C45.2403 55.8694 44.9683 55.5894 44.6243 55.3974C44.2883 55.1974 43.9163 55.0974 43.5083 55.0974C43.1003 55.0974 42.7283 55.1934 42.3923 55.3854C42.0563 55.5774 41.7883 55.8574 41.5883 56.2254C41.3883 56.5934 41.2883 57.0254 41.2883 57.5214C41.2883 58.0254 41.3883 58.4654 41.5883 58.8414C41.7883 59.2094 42.0563 59.4934 42.3923 59.6934C42.7283 59.8854 43.1003 59.9814 43.5083 59.9814C43.9163 59.9814 44.2883 59.8854 44.6243 59.6934C44.9683 59.4934 45.2403 59.2094 45.4403 58.8414C45.6403 58.4654 45.7403 58.0294 45.7403 57.5334Z" fill="white"/>
<path d="M17.75 39.5H11.5C9.28982 39.5 7.17021 38.6221 5.6074 37.0593C4.0446 35.4965 3.16663 33.3768 3.16663 31.1667V12.4167C3.16663 10.2066 4.0446 8.08695 5.6074 6.52415C7.17021 4.96135 9.28982 4.08337 11.5 4.08337H34.4166C36.6268 4.08337 38.7464 4.96135 40.3092 6.52415C41.872 8.08695 42.75 10.2066 42.75 12.4167V18.6667" stroke="white" stroke-width="3" stroke-linecap="round" stroke-linejoin="round"/>
<path d="M15.6666 2V6.16667" stroke="white" stroke-width="3" stroke-linecap="round" stroke-linejoin="round"/>
<path d="M30.25 2V6.16667" stroke="white" stroke-width="3" stroke-linecap="round" stroke-linejoin="round"/>
<path d="M3.16663 14.5H42.75" stroke="white" stroke-width="3" stroke-linecap="round" stroke-linejoin="round"/>
<path d="M37.5416 30.4229L34.4166 33.5479" stroke="white" stroke-width="3" stroke-linecap="round" stroke-linejoin="round"/>
<path d="M34.4167 43.6667C40.1696 43.6667 44.8333 39.003 44.8333 33.25C44.8333 27.4971 40.1696 22.8334 34.4167 22.8334C28.6637 22.8334 24 27.4971 24 33.25C24 39.003 28.6637 43.6667 34.4167 43.6667Z" stroke="white" stroke-width="3" stroke-linecap="round" stroke-linejoin="round"/>
</svg>
