<svg width="71" height="71" viewBox="0 0 71 71" fill="none" xmlns="http://www.w3.org/2000/svg">
<g clip-path="url(#clip0_104_1003)">
<path d="M31.6962 7.1371C31.7349 11.1096 29.3645 8.67355 29.3968 10.9048C29.4116 11.9245 30.6697 12.8341 31.3505 14.1512C32.1593 15.716 32.3942 17.7232 32.134 19.3102C31.9647 20.3425 31.6217 21.3817 31.1621 22.3311C29.9135 24.9106 27.9239 26.3242 24.7495 26.0726C21.733 25.8335 18.6944 25.8587 15.6687 25.7094C14.5781 25.6556 11.373 24.5812 11.277 25.2429C11.1348 26.2236 11.693 26.913 12.5518 27.1779C14.0591 27.6426 15.6117 28.0976 17.1771 28.2399C20.19 28.5136 23.238 28.4503 26.2455 28.7575C27.8373 28.9201 29.4729 29.3738 30.9145 30.0399C33.2919 31.1383 33.9124 33.062 33.6734 36.0475C33.4433 38.9226 32.0351 40.8935 29.4435 42.2192C28.8644 42.5154 28.3135 42.8689 27.7784 43.2346C26.8713 43.8544 26.9369 44.5781 27.9281 45.0299C28.5051 45.2929 29.0998 45.5205 29.6793 45.779C32.3642 46.9765 34.1287 50.3922 33.4551 53.0773C33.1182 54.4201 31.3979 55.0056 30.2753 54.1706C28.5586 52.8935 26.7026 51.899 24.4864 51.6826C22.6749 51.506 21.1339 52.0442 19.9607 53.3832C19.7297 53.6468 19.5254 54.167 19.6483 54.4168C19.7917 54.7084 20.2893 54.9537 20.6651 55.0047C21.3864 55.1022 22.1308 55.0718 22.8645 55.0532C27.5202 54.935 30.5138 56.9708 32.0944 61.1727C33.9553 66.1192 29.9468 70.0054 25.817 70.8157C22.9592 71.3763 20.5191 70.3982 18.2809 68.8174C16.179 67.3327 14.4571 65.4951 12.8499 63.3917C14.3888 63.4591 15.814 63.4488 17.2202 63.6006C19.1213 63.8058 21.0098 64.1238 22.8987 64.4221C23.2615 64.4794 23.6157 64.6426 23.9488 64.8042C24.8814 65.2563 24.8912 65.7961 24.0775 66.4403C23.6083 66.6023 22.9943 67.0007 23.3853 67.4089C23.8005 67.8047 24.1137 67.8407 24.5101 67.9478C24.8404 68.0371 25.2256 68.0048 25.5751 67.9545C26.5922 67.808 27.5627 67.5157 27.9876 66.51C28.4167 65.4937 27.8869 64.6569 27.2566 63.8862C25.577 61.8323 23.1835 61.3046 20.6468 61.1179C17.0652 60.8544 13.4796 60.6385 9.90175 60.3379C9.09339 60.2699 8.2797 60.0068 7.51996 59.7125C5.58194 58.9614 4.87247 57.2735 5.60974 55.4173C6.81392 55.7436 7.99495 56.175 9.21735 56.3717C11.8887 56.8014 14.3547 56.271 16.4453 54.5474C17.4863 53.6889 18.0539 52.6138 17.824 51.2507C17.6984 50.5061 17.2405 50.2763 16.601 50.7121C15.9596 51.1492 15.3499 51.6366 14.7715 52.1486C13.1683 53.5671 11.3033 53.9572 9.22036 53.4669C7.00156 52.9445 5.00574 52.0513 3.84881 50.0359C2.58492 47.8337 3.3904 44.8179 5.7389 42.7927C6.22169 42.3763 6.76749 42.0263 7.15509 41.7408C8.07644 42.4086 8.87014 43.028 9.71301 43.5788C10.2385 43.9225 10.8042 43.9116 11.1628 43.3093C11.5248 42.7012 11.4367 42.1567 10.8539 41.6779C10.3159 41.2359 9.73191 40.8071 9.32472 40.2654C8.2345 38.8153 8.4913 36.8801 9.86463 35.6696C10.0139 35.5381 10.2503 35.4261 10.4471 35.4249C12.761 35.4102 15.0762 35.3801 17.3886 35.4402C18.2592 35.4629 19.1613 35.6036 19.983 35.8736C21.9953 36.5347 23.124 38.3167 22.8157 40.1472C22.5332 41.8258 20.884 43.0837 18.8087 43.1937C18.4332 43.2135 18.048 43.1553 17.6815 43.2142C16.7926 43.2422 16.9631 44.1421 17.1201 44.324C18.567 46.0011 20.8449 46.4205 22.8223 45.4104C27.4892 43.0264 27.8474 36.9593 23.4902 34.1429C21.8748 33.0987 20.0745 32.5203 18.1501 32.4274C15.8027 32.3143 13.444 32.4096 11.0976 32.2875C8.82618 32.1691 6.7942 31.392 5.2646 29.7063C4.07891 28.3996 3.82703 26.8972 4.45597 25.2721C5.66453 22.1495 8.80933 20.5334 12.5516 21.2203C15.0788 21.6841 17.5581 22.4033 20.0951 22.7944C21.6866 23.0397 23.3668 23.0605 24.969 22.8769C27.5508 22.581 29.0886 21.0217 29.6441 18.6077C30.2043 16.174 29.5546 14.1158 27.4474 12.569C25.7103 11.2939 23.6764 10.7333 21.5428 10.4553C19.2203 10.1526 16.9233 10.2523 14.6734 10.9262C13.3939 11.3884 13.2591 12.191 13.3343 12.5906C13.3842 12.8561 14.0469 13.1843 14.4433 13.1943C16.3219 13.2417 18.2083 13.1001 20.0821 13.1965C22.073 13.2991 24.0766 13.5101 25.6426 14.9393C26.7826 15.9798 27.2459 17.2996 26.8028 18.3675C26.3198 19.5318 25.0627 20.2803 23.4531 20.1942C22.295 20.1323 21.1371 19.9383 19.9969 19.7188C17.5644 19.2504 15.1525 18.6813 12.7139 18.2478C11.6727 18.0629 10.5852 18.1141 9.48771 18.0565C8.38379 15.3113 7.7328 13.6601 10.6012 11.1088C13.2538 8.74915 16.3956 7.10204 20.1657 7.1912C21.4621 7.22202 22.7412 7.76439 24.0363 8.03777C25.125 8.26759 26.2232 8.4592 27.3227 8.63548C27.5233 8.66752 28.449 8.85544 28.1993 8.43647C27.804 7.85917 27.5505 7.2894 27.1205 6.89536C25.1678 5.10649 22.7548 4.35744 20.0975 4.22842C19.7405 4.21103 19.382 4.22157 19.0243 4.21609C18.9905 4.21568 18.9571 4.19445 18.8253 4.14898C19.7899 2.69389 20.9838 1.52368 22.7476 1.11292C25.0919 0.566853 27.3288 1.00061 29.3331 2.25478C31.354 3.51936 31.6712 4.56288 31.6962 7.1371ZM5.11229 33.1313C4.57061 32.8297 4.23121 32.8667 3.78512 33.2217C1.44456 35.0837 0.757147 37.566 0.859596 40.3292C0.895891 41.3067 1.20529 42.2081 2.08911 42.7983C2.84583 42.1829 3.51298 41.5405 4.28257 41.0424C5.06627 40.5347 5.95078 40.1689 6.82419 39.724C6.46042 37.8183 7.03635 36.0808 8.11425 34.4913C7.07456 34.0305 6.04939 33.6528 5.11216 33.1313H5.11229Z" fill="#0077B6"/>
<path d="M40.3211 7.31224C40.3844 4.94333 40.6298 3.87337 41.5442 2.94956C44.5544 -0.0917029 49.8668 0.264264 52.3506 3.66656C52.4543 3.80832 52.5423 3.96076 52.675 4.16606C48.9966 4.29796 45.6294 4.93251 43.594 8.20784L43.69 8.5875C44.4013 8.5875 45.1265 8.67283 45.8196 8.56367C46.5184 8.45341 47.2072 8.19948 47.8623 7.92268C50.4925 6.81109 53.1126 6.92258 55.6933 8.00897C57.7464 8.8732 59.7012 9.92042 61.2325 11.5707C62.607 13.0521 63.0844 14.7204 62.3293 16.6472C62.1403 17.1296 62.0039 17.6317 61.8417 18.1292C57.6495 17.8313 53.8294 19.5148 49.8133 20.0369C48.9112 20.1542 47.9657 20.2143 47.0727 20.0857C45.0921 19.8005 44.1362 17.8266 45.0918 16.1096C46.0591 14.3716 47.6975 13.5584 49.6154 13.4183C51.995 13.2445 54.3897 13.257 56.7782 13.214C57.3507 13.2036 57.9424 13.2709 58.0996 12.5628C58.253 11.8719 57.9645 11.3372 57.268 11.1178C52.9165 9.74648 48.6776 9.94508 44.7083 12.2633C42.279 13.682 41.4335 16.0407 42.1171 18.7493C42.7714 21.3415 44.5033 22.738 47.4036 23.0107C50.4795 23.2999 53.3959 22.4936 56.3166 21.7506C58.2349 21.2627 60.1475 20.8417 62.1419 21.2655C65.1707 21.9091 67.4935 24.9785 66.9689 27.6848C66.6655 29.2497 65.616 30.2924 64.2785 31.0749C62.6561 32.0242 60.8799 32.3656 58.9885 32.3325C56.2858 32.2851 53.5657 32.1001 50.9153 32.8566C49.2536 33.3309 47.783 34.143 46.6043 35.3788C44.122 37.9814 44.7512 42.4388 47.9091 44.8646C49.9682 46.4462 52.343 46.3252 54.1707 44.4968C54.3943 44.273 54.4917 43.8361 54.4639 43.5132C54.4532 43.3885 53.9376 43.2557 53.6394 43.2147C53.022 43.13 52.3803 43.1736 51.777 43.0412C49.9999 42.6513 48.9147 41.4606 48.7178 39.7835C48.5516 38.3679 49.5385 36.8002 51.0655 36.0555C52.5453 35.3338 54.1368 35.4177 55.7223 35.4298C57.3607 35.4421 58.9996 35.4098 60.6374 35.4395C60.9472 35.4451 61.3318 35.5704 61.5485 35.775C63.0396 37.183 62.9807 39.4498 61.4361 40.928C61.1355 41.2156 60.776 41.4445 60.4481 41.7057C59.8826 42.1559 59.8375 42.7219 60.1676 43.2987C60.5059 43.8901 61.0599 43.9328 61.5857 43.58C62.4102 43.0265 63.1915 42.4116 64.0562 41.7747C66.1115 42.6326 67.9538 45.4713 67.8987 47.8613C67.8449 50.2057 66.234 52.0654 63.3505 53.11C60.7059 54.0681 58.2957 53.8637 56.229 51.7938C55.8085 51.3727 55.3099 51.0148 54.8073 50.6861C54.246 50.3191 53.8305 50.458 53.6812 51.1432C53.3412 52.7028 54.0662 53.8592 55.2524 54.7477C58.1793 56.9399 61.3714 56.9138 64.6716 55.681C64.9617 55.5726 65.2436 55.4435 65.526 55.3253C66.3565 56.8099 65.7862 58.8911 64.1257 59.4865C62.4406 60.0905 60.624 60.4566 58.8337 60.6457C55.633 60.984 52.4036 61.0546 49.197 61.3483C47.4288 61.5104 45.8633 62.2533 44.6737 63.5988C43.8975 64.4767 43.1947 65.4192 43.773 66.6595C44.2113 67.5997 45.7224 68.1769 47.1139 67.9445C47.5032 67.8794 47.8535 67.5919 48.2216 67.4065C47.9948 67.0793 47.8292 66.6792 47.5291 66.439C46.7169 65.7884 46.7037 65.1092 47.7089 64.8023C49.2436 64.3337 50.8315 63.9623 52.4248 63.7636C54.4035 63.5166 56.411 63.4877 58.684 63.3475C57.5231 64.6361 56.5738 65.7972 55.5099 66.8477C53.5712 68.7619 51.4183 70.3574 48.6031 70.8785C43.6728 71.7914 38.6589 67.41 39.2845 62.7137C39.8998 58.0933 43.7121 54.9123 48.4667 55.0401C49.2584 55.0615 50.0596 55.1006 50.8403 55.0053C51.2198 54.959 51.7062 54.6965 51.8737 54.3909C51.9979 54.164 51.7822 53.6291 51.5532 53.3701C50.0313 51.6478 48.0316 51.2153 45.9376 51.9298C44.35 52.4715 42.8666 53.3605 41.4255 54.2341C40.3726 54.8723 38.7395 54.4176 38.3928 53.2219C37.6608 50.6973 39.2364 47.232 41.7197 45.9547C42.37 45.6202 43.0604 45.3609 43.7263 45.0546C44.7124 44.6009 44.7915 43.833 43.8902 43.2192C43.1811 42.7362 42.4624 42.2524 41.6975 41.8633C37.8187 39.8895 37.6982 35.2187 38.5002 32.4537C38.9134 31.0293 40.1392 30.2711 41.4372 29.697C43.9708 28.577 46.7007 28.6345 49.4023 28.4682C52.0775 28.3039 54.7493 28.0421 57.4086 27.7145C58.0984 27.6295 58.7851 27.2079 59.3773 26.8064C59.7115 26.5798 59.9868 26.0945 60.035 25.6966C60.0772 25.3487 59.8604 24.806 59.5778 24.6386C59.359 24.5089 58.8636 24.8312 58.4882 24.9431C57.6083 25.2053 56.7385 25.6302 55.8437 25.6894C53.0331 25.8752 50.2118 25.8991 47.3966 26.0293C43.0641 26.2297 40.5915 24.3325 39.7692 19.9153C39.507 18.508 39.5428 17.0226 39.6377 15.5851C39.7215 14.3157 40.4211 13.2848 41.5845 12.6075C41.9317 12.4055 42.2937 12.201 42.575 11.9257C42.8277 11.6786 43.4128 10.8474 42.3044 10.3546C42.3044 10.3546 40.258 9.68115 40.3211 7.31224ZM69.792 42.6921C72.2244 40.9122 70.6498 34.3009 67.3959 32.8751L63.7623 34.4923C64.8875 36.0838 65.3631 37.8629 65.0748 39.5373L69.7918 42.6921H69.792Z" fill="#0077B6"/>
</g>
<defs>
<clipPath id="clip0_104_1003">
<rect width="70.125" height="70.125" fill="white" transform="translate(0.850098 0.875)"/>
</clipPath>
</defs>
</svg>
