<svg width="71" height="71" viewBox="0 0 71 71" fill="none" xmlns="http://www.w3.org/2000/svg">
<path fill-rule="evenodd" clip-rule="evenodd" d="M57.311 12.0469H13.4829C13.0954 12.0469 12.7239 12.2008 12.4499 12.4748C12.1759 12.7488 12.022 13.1203 12.022 13.5078V57.3359C12.022 57.7234 12.1759 58.095 12.4499 58.369C12.7239 58.643 13.0954 58.7969 13.4829 58.7969H57.311C57.6985 58.7969 58.0701 58.643 58.3441 58.369C58.6181 58.095 58.772 57.7234 58.772 57.3359V13.5078C58.772 13.1203 58.6181 12.7488 58.3441 12.4748C58.0701 12.2008 57.6985 12.0469 57.311 12.0469ZM13.4829 9.125C12.3205 9.125 11.2057 9.58676 10.3838 10.4087C9.56186 11.2306 9.1001 12.3454 9.1001 13.5078V57.3359C9.1001 58.4983 9.56186 59.6131 10.3838 60.4351C11.2057 61.257 12.3205 61.7188 13.4829 61.7188H57.311C58.4734 61.7188 59.5882 61.257 60.4101 60.4351C61.2321 59.6131 61.6938 58.4983 61.6938 57.3359V13.5078C61.6938 12.3454 61.2321 11.2306 60.4101 10.4087C59.5882 9.58676 58.4734 9.125 57.311 9.125H13.4829Z" fill="#0077B6"/>
<path fill-rule="evenodd" clip-rule="evenodd" d="M47.7931 47.5229C40.9472 54.3688 29.847 54.3688 23.001 47.5229C16.7482 41.2701 16.2062 31.4672 21.375 24.5978L24.1084 23.7213C26.6008 22.9178 28.4869 26.0077 26.6359 27.8601C23.6848 30.8112 25.7739 35.8602 29.9493 35.8602H30.8813C32.186 35.8602 33.3284 36.7368 33.6644 37.9976L34.0998 39.6294C33.654 39.4326 33.1554 39.3899 32.6827 39.5082L26.8974 40.9545C26.6134 41.0196 26.3452 41.1407 26.1086 41.3107C25.872 41.4807 25.6717 41.6962 25.5193 41.9445C25.367 42.1929 25.2657 42.4691 25.2214 42.7571C25.177 43.045 25.1906 43.3389 25.2612 43.6216C25.3318 43.9043 25.4581 44.17 25.6326 44.4033C25.8072 44.6366 26.0265 44.8327 26.2777 44.9802C26.529 45.1277 26.8071 45.2236 27.0959 45.2624C27.3846 45.3011 27.6782 45.2819 27.9595 45.2058L31.6191 44.2913L32.5337 47.9509C32.6623 48.4652 32.9729 48.9154 33.4081 49.2182C33.8433 49.5209 34.3735 49.6557 34.9004 49.5974C42.471 48.7559 45.9188 43.4016 46.8362 40.9574C46.9658 40.6124 47.0063 40.2403 46.954 39.8756C46.9016 39.5108 46.7581 39.1651 46.5368 38.8704C46.3154 38.5758 46.0233 38.3418 45.6875 38.19C45.3517 38.0382 44.983 37.9735 44.6156 38.0019L41.7595 38.2211L40.7617 34.2327C40.6965 33.9488 40.5754 33.6806 40.4054 33.444C40.2354 33.2074 40.02 33.0071 39.7716 32.8547C39.5233 32.7024 39.247 32.6011 38.9591 32.5567C38.6711 32.5124 38.3772 32.526 38.0946 32.5966C37.8119 32.6672 37.5462 32.7935 37.3129 32.968C37.0796 33.1425 36.8835 33.3619 36.736 33.6131C36.5884 33.8643 36.4925 34.1425 36.4538 34.4312C36.415 34.72 36.4343 35.0136 36.5103 35.2948L37.9567 41.0801C38.0821 41.5823 38.3812 42.0238 38.8011 42.3265C39.2209 42.6292 39.7343 42.7735 40.2503 42.7339L40.3088 42.7295C39.5141 43.4262 38.6143 43.9928 37.6426 44.4082L35.7828 37.4336C35.4947 36.3538 34.858 35.3993 33.9717 34.7185C33.0853 34.0377 31.999 33.6687 30.8813 33.6688H29.9507C27.7272 33.6688 26.6139 30.9807 28.1859 29.4087C31.4029 26.1932 28.6125 20.9864 24.4693 21.4145C31.3532 15.9155 41.4176 16.3538 47.7931 22.7293C54.6406 29.5753 54.6406 40.6755 47.7931 47.5214V47.5229ZM49.8604 49.5886C41.872 57.5756 28.9222 57.5756 20.9338 49.5886C12.9469 41.6002 12.9469 28.6505 20.9338 20.6621C28.9222 12.6751 41.872 12.6751 49.8604 20.6621C57.8473 28.6505 57.8473 41.6002 49.8604 49.5886ZM43.3373 35.8485C44.1045 36.6157 45.145 37.0467 46.2299 37.0467C47.3149 37.0467 48.3554 36.6157 49.1226 35.8485C49.8898 35.0813 50.3208 34.0408 50.3208 32.9559C50.3208 31.8709 49.8898 30.8304 49.1226 30.0632C48.3554 29.296 47.3149 28.865 46.2299 28.865C45.145 28.865 44.1045 29.296 43.3373 30.0632C42.5701 30.8304 42.1391 31.8709 42.1391 32.9559C42.1391 34.0408 42.5701 35.0813 43.3373 35.8485Z" fill="#0077B6"/>
</svg>
