<svg width="68" height="78" viewBox="0 0 68 78" fill="none" xmlns="http://www.w3.org/2000/svg">
<path d="M17.6867 32.4013C14.7504 28.9446 11.995 28.2036 9.41701 30.1751C5.55007 33.1323 4.44025 43.4425 7.55051 52.5321C10.6625 61.6218 16.7125 74 28.9274 74C41.1406 74 44.0299 61.5452 49.0119 54.0157C53.9956 46.4862 56.631 39.2215 51.7482 30.1751" stroke="#0077B6" stroke-width="7.08333" stroke-linecap="round" stroke-linejoin="round"/>
<path d="M11.529 29.1011C9.22932 25.738 6.90993 22.3872 4.57092 19.049C2.05558 15.4774 8.48657 10.8602 11.529 14.0005C13.5573 16.0952 16.2518 19.1789 19.6125 23.2534" stroke="#0077B6" stroke-width="7.08333" stroke-linecap="round"/>
<path d="M18.529 41.7607C17.6854 31.6637 18.3725 25.09 20.5851 22.0379C23.9076 17.4589 30.0777 15.7239 35.8877 15.7239C39.3493 15.7239 42.5083 17.1342 45.368 19.9548" stroke="#0077B6" stroke-width="7.08333" stroke-linecap="round" stroke-linejoin="round"/>
<path d="M63.7146 20.0697C64.734 23.4598 63.071 26.5585 57.9464 27.2595C52.8235 27.9605 48.9827 30.4265 46.2133 32.5012C43.4423 34.5759 38.4899 40.8699 37.5105 44.0286C36.5329 47.1889 30.9421 44.2833 29.4409 43.0212C27.9397 41.7591 26.4629 38.9984 29.4409 36.1094C32.419 33.2205 31.7736 32.6444 31.7736 29.7155C31.7736 26.785 48.059 17.0942 57.2315 16.2084C59.2702 16.0952 62.697 16.678 63.7146 20.0697V20.0697Z" stroke="#0077B6" stroke-width="7.08333"/>
<path d="M32.417 5.72839V14.4917" stroke="#0077B6" stroke-width="7.08333" stroke-linecap="round"/>
<path d="M27.7187 16.9143C22.4689 10.5987 18.2366 7.0737 15.0203 6.34106" stroke="#0077B6" stroke-width="7.08333" stroke-linecap="round"/>
<path d="M21.9729 10.7719L23.695 4" stroke="#0077B6" stroke-width="7.08333" stroke-linecap="round"/>
<path d="M54.3437 16.9127C53.7836 18.7526 53.7836 20.476 54.3437 22.0861C54.9038 23.6963 56.1058 25.4196 57.9462 27.2595" stroke="#0077B6" stroke-width="7.08333" stroke-linecap="round"/>
</svg>
