<svg width="74" height="56" viewBox="0 0 74 56" fill="none" xmlns="http://www.w3.org/2000/svg">
<path d="M69.8711 24.3452C71.5498 26.541 71.5498 29.5054 69.8711 31.6977C64.5834 38.6004 51.8971 52.8131 37.0859 52.8131C22.2746 52.8131 9.58837 38.6004 4.30067 31.6977C3.4839 30.6463 3.04053 29.3528 3.04053 28.0214C3.04053 26.69 3.4839 25.3966 4.30067 24.3452C9.58837 17.4424 22.2746 3.22974 37.0859 3.22974C51.8971 3.22974 64.5834 17.4424 69.8711 24.3452V24.3452Z" stroke="#0077B6" stroke-width="4.58333" stroke-linecap="round" stroke-linejoin="round"/>
<path d="M37.0859 38.6464C42.954 38.6464 47.7109 33.8894 47.7109 28.0214C47.7109 22.1533 42.954 17.3964 37.0859 17.3964C31.2179 17.3964 26.4609 22.1533 26.4609 28.0214C26.4609 33.8894 31.2179 38.6464 37.0859 38.6464Z" stroke="#0077B6" stroke-width="4.58333" stroke-linecap="round" stroke-linejoin="round"/>
</svg>
