<svg width="55" height="75" viewBox="0 0 55 75" fill="none" xmlns="http://www.w3.org/2000/svg">
<path d="M32.0833 19.9219V0H3.4375C1.53255 0 0 1.56738 0 3.51562V71.4844C0 73.4326 1.53255 75 3.4375 75H51.5625C53.4674 75 55 73.4326 55 71.4844V23.4375H35.5208C33.6302 23.4375 32.0833 21.8555 32.0833 19.9219ZM43.0332 50.8828L29.223 64.9014C28.2706 65.8696 26.7323 65.8696 25.7798 64.9014L11.9697 50.8828C10.5159 49.4077 11.5357 46.875 13.581 46.875H22.9167V35.1562C22.9167 33.8613 23.9422 32.8125 25.2083 32.8125H29.7917C31.0578 32.8125 32.0833 33.8613 32.0833 35.1562V46.875H41.419C43.4643 46.875 44.4841 49.4077 43.0332 50.8828ZM53.9974 15.3809L39.9753 1.02539C39.3307 0.366211 38.457 0 37.5404 0H36.6667V18.75H55V17.8564C55 16.9336 54.6419 16.04 53.9974 15.3809Z" fill="#0077B6"/>
</svg>
