<svg width="85" height="85" viewBox="0 0 85 85" fill="none" xmlns="http://www.w3.org/2000/svg">
<path fill-rule="evenodd" clip-rule="evenodd" d="M77.9167 4.72222H7.08333C6.45713 4.72222 5.85657 4.97098 5.41378 5.41378C4.97098 5.85657 4.72222 6.45713 4.72222 7.08333V77.9167C4.72222 78.5429 4.97098 79.1434 5.41378 79.5862C5.85657 80.029 6.45713 80.2778 7.08333 80.2778H77.9167C78.5429 80.2778 79.1434 80.029 79.5862 79.5862C80.029 79.1434 80.2778 78.5429 80.2778 77.9167V7.08333C80.2778 6.45713 80.029 5.85657 79.5862 5.41378C79.1434 4.97098 78.5429 4.72222 77.9167 4.72222ZM7.08333 0C5.20472 0 3.40304 0.746278 2.07466 2.07466C0.746278 3.40304 0 5.20472 0 7.08333V77.9167C0 79.7953 0.746278 81.597 2.07466 82.9253C3.40304 84.2537 5.20472 85 7.08333 85H77.9167C79.7953 85 81.597 84.2537 82.9253 82.9253C84.2537 81.597 85 79.7953 85 77.9167V7.08333C85 5.20472 84.2537 3.40304 82.9253 2.07466C81.597 0.746278 79.7953 0 77.9167 0H7.08333Z" fill="#0077B6"/>
<path fill-rule="evenodd" clip-rule="evenodd" d="M14.1219 29.0039C13.6307 28.1303 13.8362 27.0772 14.7664 26.1375C15.2198 25.6794 15.6991 25.4244 16.0202 25.3418C16.0568 25.3323 16.0938 25.3244 16.1312 25.3182C18.4285 27.3464 20.0435 28.3215 21.8096 28.331C22.2157 28.3333 22.5628 28.2837 22.8013 28.246L23.0445 28.2058C23.1578 28.1869 23.2287 28.1751 23.3278 28.1633C23.6101 28.1314 23.8959 28.1604 24.166 28.2483L25.4174 23.6961C24.5643 23.4471 23.6701 23.3708 22.7871 23.4718C22.5557 23.5001 22.3031 23.5426 22.152 23.5662L22.0575 23.5828C21.9843 23.5968 21.9101 23.6055 21.8356 23.6087H21.8309C21.8285 23.6087 21.8167 23.6087 21.7931 23.6017C21.6613 23.558 21.5347 23.5002 21.4153 23.4293C20.9738 23.1814 20.2702 22.6808 19.1392 21.675C17.8052 20.4874 16.1312 20.4354 14.842 20.7707C13.5505 21.1012 12.351 21.8662 11.4113 22.813C9.56019 24.683 8.13644 27.991 10.0064 31.3154C11.076 33.2232 12.2873 34.8028 13.3403 36.0022C13.3073 34.9515 13.5882 34.0071 14.2092 33.3247C14.7759 32.7014 15.5456 32.3803 16.4169 32.3331C15.5552 31.2932 14.7872 30.1791 14.1219 29.0039Z" fill="#0077B6"/>
<path d="M24.3501 36.4603C27.0465 39.0457 27.7973 42.5756 26.0312 44.3464C24.2604 46.1196 20.6408 45.4609 17.9444 42.8778C15.2456 40.2947 14.4948 36.7625 16.2633 34.9917C18.0341 33.2209 21.6537 33.8772 24.3501 36.4603Z" fill="#0077B6"/>
<path fill-rule="evenodd" clip-rule="evenodd" d="M71.4613 29.0039C71.9524 28.1303 71.747 27.0772 70.8167 26.1375C70.4733 25.77 70.0418 25.4961 69.563 25.3418C69.5271 25.3324 69.4909 25.3245 69.4544 25.3182C67.157 27.3464 65.5397 28.3215 63.7735 28.331C63.4412 28.3303 63.1095 28.3019 62.7819 28.246L62.5387 28.2058C62.4254 28.1869 62.3545 28.1751 62.2554 28.1633C61.9739 28.1318 61.6889 28.1608 61.4195 28.2483L60.1658 23.6961C61.2377 23.401 62.0783 23.3892 62.7961 23.4718C63.0274 23.5001 63.2801 23.5426 63.4336 23.5662L63.528 23.5828C63.6862 23.6087 63.731 23.6087 63.7476 23.6087H63.7547C63.7547 23.6087 63.7665 23.6087 63.7901 23.5993C63.9218 23.5565 64.0485 23.4995 64.1678 23.4293C64.6094 23.1814 65.313 22.6808 66.444 21.675C67.7804 20.4874 69.4544 20.4354 70.7436 20.7707C72.0327 21.1012 73.2322 21.8662 74.1719 22.813C76.023 24.683 77.4467 27.991 75.5791 31.3154C74.632 32.9882 73.5147 34.5588 72.2452 36.0022C72.2759 34.9515 71.9973 34.0071 71.3763 33.3247C70.8097 32.7014 70.0376 32.3803 69.1663 32.3331C69.9219 31.4169 70.7365 30.2954 71.4613 29.0039Z" fill="#0077B6"/>
<path d="M61.2329 36.4603C58.5365 39.0434 57.7857 42.5756 59.5542 44.3464C61.3226 46.1172 64.9422 45.4609 67.641 42.8778C70.3374 40.2947 71.0882 36.7625 69.3197 34.9917C67.5489 33.2209 63.9317 33.8772 61.2329 36.4603Z" fill="#0077B6"/>
<path d="M42.7596 18.8889C17.1793 18.8889 26.7725 37.8793 33.1664 37.8793C38.4718 37.8793 35.544 58.9357 38.9582 66.1111C39.6594 67.5845 41.4893 66.1111 42.7596 66.1111C44.0298 66.1111 45.3922 67.5845 46.0415 66.1111C49.2054 58.9357 45.9801 37.8793 51.2855 37.8793C57.6841 37.8793 68.3398 18.8889 42.7619 18.8889H42.7596Z" fill="#0077B6"/>
</svg>
