<svg width="69" height="66" viewBox="0 0 69 66" fill="none" xmlns="http://www.w3.org/2000/svg">
<path d="M6.8617 55.084C6.8617 55.78 6.6217 56.36 6.1417 56.824C5.6697 57.28 4.9457 57.508 3.9697 57.508H2.3617V61H1.2697V52.636H3.9697C4.9137 52.636 5.6297 52.864 6.1177 53.32C6.6137 53.776 6.8617 54.364 6.8617 55.084ZM3.9697 56.608C4.5777 56.608 5.0257 56.476 5.3137 56.212C5.6017 55.948 5.7457 55.572 5.7457 55.084C5.7457 54.052 5.1537 53.536 3.9697 53.536H2.3617V56.608H3.9697ZM9.31092 55.492C9.50292 55.116 9.77492 54.824 10.1269 54.616C10.4869 54.408 10.9229 54.304 11.4349 54.304V55.432H11.1469C9.92292 55.432 9.31092 56.096 9.31092 57.424V61H8.21892V54.424H9.31092V55.492ZM15.5635 61.108C14.9475 61.108 14.3875 60.968 13.8835 60.688C13.3875 60.408 12.9955 60.012 12.7075 59.5C12.4275 58.98 12.2875 58.38 12.2875 57.7C12.2875 57.028 12.4315 56.436 12.7195 55.924C13.0155 55.404 13.4155 55.008 13.9195 54.736C14.4235 54.456 14.9875 54.316 15.6115 54.316C16.2355 54.316 16.7995 54.456 17.3035 54.736C17.8075 55.008 18.2035 55.4 18.4915 55.912C18.7875 56.424 18.9355 57.02 18.9355 57.7C18.9355 58.38 18.7835 58.98 18.4795 59.5C18.1835 60.012 17.7795 60.408 17.2675 60.688C16.7555 60.968 16.1875 61.108 15.5635 61.108ZM15.5635 60.148C15.9555 60.148 16.3235 60.056 16.6675 59.872C17.0115 59.688 17.2875 59.412 17.4955 59.044C17.7115 58.676 17.8195 58.228 17.8195 57.7C17.8195 57.172 17.7155 56.724 17.5075 56.356C17.2995 55.988 17.0275 55.716 16.6915 55.54C16.3555 55.356 15.9915 55.264 15.5995 55.264C15.1995 55.264 14.8315 55.356 14.4955 55.54C14.1675 55.716 13.9035 55.988 13.7035 56.356C13.5035 56.724 13.4035 57.172 13.4035 57.7C13.4035 58.236 13.4995 58.688 13.6915 59.056C13.8915 59.424 14.1555 59.7 14.4835 59.884C14.8115 60.06 15.1715 60.148 15.5635 60.148ZM23.5753 54.304C24.3753 54.304 25.0233 54.548 25.5193 55.036C26.0153 55.516 26.2633 56.212 26.2633 57.124V61H25.1833V57.28C25.1833 56.624 25.0193 56.124 24.6913 55.78C24.3633 55.428 23.9153 55.252 23.3473 55.252C22.7713 55.252 22.3113 55.432 21.9673 55.792C21.6313 56.152 21.4633 56.676 21.4633 57.364V61H20.3713V54.424H21.4633V55.36C21.6793 55.024 21.9713 54.764 22.3393 54.58C22.7153 54.396 23.1273 54.304 23.5753 54.304ZM29.379 55.324V59.2C29.379 59.52 29.447 59.748 29.583 59.884C29.719 60.012 29.955 60.076 30.291 60.076H31.095V61H30.111C29.503 61 29.047 60.86 28.743 60.58C28.439 60.3 28.287 59.84 28.287 59.2V55.324H27.435V54.424H28.287V52.768H29.379V54.424H31.095V55.324H29.379ZM38.2501 54.424V61H37.1581V60.028C36.9501 60.364 36.6581 60.628 36.2821 60.82C35.9141 61.004 35.5061 61.096 35.0581 61.096C34.5461 61.096 34.0861 60.992 33.6781 60.784C33.2701 60.568 32.9461 60.248 32.7061 59.824C32.4741 59.4 32.3581 58.884 32.3581 58.276V54.424H33.4381V58.132C33.4381 58.78 33.6021 59.28 33.9301 59.632C34.2581 59.976 34.7061 60.148 35.2741 60.148C35.8581 60.148 36.3181 59.968 36.6541 59.608C36.9901 59.248 37.1581 58.724 37.1581 58.036V54.424H38.2501ZM39.6859 57.688C39.6859 57.016 39.8219 56.428 40.0939 55.924C40.3659 55.412 40.7379 55.016 41.2099 54.736C41.6899 54.456 42.2219 54.316 42.8059 54.316C43.3819 54.316 43.8819 54.44 44.3059 54.688C44.7299 54.936 45.0459 55.248 45.2539 55.624V54.424H46.3579V61H45.2539V59.776C45.0379 60.16 44.7139 60.48 44.2819 60.736C43.8579 60.984 43.3619 61.108 42.7939 61.108C42.2099 61.108 41.6819 60.964 41.2099 60.676C40.7379 60.388 40.3659 59.984 40.0939 59.464C39.8219 58.944 39.6859 58.352 39.6859 57.688ZM45.2539 57.7C45.2539 57.204 45.1539 56.772 44.9539 56.404C44.7539 56.036 44.4819 55.756 44.1379 55.564C43.8019 55.364 43.4299 55.264 43.0219 55.264C42.6139 55.264 42.2419 55.36 41.9059 55.552C41.5699 55.744 41.3019 56.024 41.1019 56.392C40.9019 56.76 40.8019 57.192 40.8019 57.688C40.8019 58.192 40.9019 58.632 41.1019 59.008C41.3019 59.376 41.5699 59.66 41.9059 59.86C42.2419 60.052 42.6139 60.148 43.0219 60.148C43.4299 60.148 43.8019 60.052 44.1379 59.86C44.4819 59.66 44.7539 59.376 44.9539 59.008C45.1539 58.632 45.2539 58.196 45.2539 57.7ZM44.4019 52.564L41.8459 53.932V53.116L44.4019 51.616V52.564ZM49.2953 55.492C49.4873 55.116 49.7593 54.824 50.1113 54.616C50.4713 54.408 50.9073 54.304 51.4193 54.304V55.432H51.1313C49.9073 55.432 49.2953 56.096 49.2953 57.424V61H48.2033V54.424H49.2953V55.492ZM53.2439 53.356C53.0359 53.356 52.8599 53.284 52.7159 53.14C52.5719 52.996 52.4999 52.82 52.4999 52.612C52.4999 52.404 52.5719 52.228 52.7159 52.084C52.8599 51.94 53.0359 51.868 53.2439 51.868C53.4439 51.868 53.6119 51.94 53.7479 52.084C53.8919 52.228 53.9639 52.404 53.9639 52.612C53.9639 52.82 53.8919 52.996 53.7479 53.14C53.6119 53.284 53.4439 53.356 53.2439 53.356ZM53.7719 54.424V61H52.6799V54.424H53.7719ZM58.501 61.108C57.885 61.108 57.325 60.968 56.821 60.688C56.325 60.408 55.933 60.012 55.645 59.5C55.365 58.98 55.225 58.38 55.225 57.7C55.225 57.028 55.369 56.436 55.657 55.924C55.953 55.404 56.353 55.008 56.857 54.736C57.361 54.456 57.925 54.316 58.549 54.316C59.173 54.316 59.737 54.456 60.241 54.736C60.745 55.008 61.141 55.4 61.429 55.912C61.725 56.424 61.873 57.02 61.873 57.7C61.873 58.38 61.721 58.98 61.417 59.5C61.121 60.012 60.717 60.408 60.205 60.688C59.693 60.968 59.125 61.108 58.501 61.108ZM58.501 60.148C58.893 60.148 59.261 60.056 59.605 59.872C59.949 59.688 60.225 59.412 60.433 59.044C60.649 58.676 60.757 58.228 60.757 57.7C60.757 57.172 60.653 56.724 60.445 56.356C60.237 55.988 59.965 55.716 59.629 55.54C59.293 55.356 58.929 55.264 58.537 55.264C58.137 55.264 57.769 55.356 57.433 55.54C57.105 55.716 56.841 55.988 56.641 56.356C56.441 56.724 56.341 57.172 56.341 57.7C56.341 58.236 56.437 58.688 56.629 59.056C56.829 59.424 57.093 59.7 57.421 59.884C57.749 60.06 58.109 60.148 58.501 60.148ZM65.6368 61.108C65.1328 61.108 64.6808 61.024 64.2808 60.856C63.8808 60.68 63.5648 60.44 63.3328 60.136C63.1008 59.824 62.9728 59.468 62.9488 59.068H64.0768C64.1088 59.396 64.2608 59.664 64.5328 59.872C64.8128 60.08 65.1768 60.184 65.6248 60.184C66.0408 60.184 66.3688 60.092 66.6088 59.908C66.8488 59.724 66.9688 59.492 66.9688 59.212C66.9688 58.924 66.8408 58.712 66.5848 58.576C66.3288 58.432 65.9328 58.292 65.3968 58.156C64.9088 58.028 64.5088 57.9 64.1968 57.772C63.8928 57.636 63.6288 57.44 63.4048 57.184C63.1888 56.92 63.0808 56.576 63.0808 56.152C63.0808 55.816 63.1808 55.508 63.3808 55.228C63.5808 54.948 63.8648 54.728 64.2328 54.568C64.6008 54.4 65.0208 54.316 65.4928 54.316C66.2208 54.316 66.8088 54.5 67.2568 54.868C67.7048 55.236 67.9448 55.74 67.9768 56.38H66.8848C66.8608 56.036 66.7208 55.76 66.4648 55.552C66.2168 55.344 65.8808 55.24 65.4568 55.24C65.0648 55.24 64.7528 55.324 64.5208 55.492C64.2888 55.66 64.1728 55.88 64.1728 56.152C64.1728 56.368 64.2408 56.548 64.3768 56.692C64.5208 56.828 64.6968 56.94 64.9048 57.028C65.1208 57.108 65.4168 57.2 65.7928 57.304C66.2648 57.432 66.6488 57.56 66.9448 57.688C67.2408 57.808 67.4928 57.992 67.7008 58.24C67.9168 58.488 68.0288 58.812 68.0368 59.212C68.0368 59.572 67.9368 59.896 67.7368 60.184C67.5368 60.472 67.2528 60.7 66.8848 60.868C66.5248 61.028 66.1088 61.108 65.6368 61.108Z" fill="white"/>
<path d="M50.6806 4.94445H47.5V7.72222H50.2778V42.4445H19.7222V7.72222H22.5V4.94445H19.7222C19.3821 4.89525 19.0354 4.91875 18.705 5.01338C18.3746 5.10802 18.0681 5.27165 17.8056 5.49346C17.5431 5.71528 17.3306 5.99024 17.1821 6.30021C17.0337 6.61017 16.9527 6.94809 16.9445 7.29167V42.875C16.9463 43.1851 17.0092 43.4917 17.1295 43.7775C17.2498 44.0633 17.4253 44.3225 17.6458 44.5405C17.8664 44.7585 18.1277 44.9309 18.4148 45.0478C18.702 45.1648 19.0094 45.2241 19.3195 45.2222H50.6806C50.9906 45.2241 51.298 45.1648 51.5852 45.0478C51.8724 44.9309 52.1337 44.7585 52.3542 44.5405C52.5747 44.3225 52.7502 44.0633 52.8705 43.7775C52.9909 43.4917 53.0537 43.1851 53.0556 42.875V7.29167C53.0537 6.9816 52.9909 6.67493 52.8705 6.38916C52.7502 6.10339 52.5747 5.84413 52.3542 5.62617C52.1337 5.4082 51.8724 5.23582 51.5852 5.11885C51.298 5.00188 50.9906 4.94262 50.6806 4.94445V4.94445Z" fill="white"/>
<path d="M46.1111 8.18055C46.1075 7.32341 45.7654 6.50242 45.1593 5.89632C44.5532 5.29022 43.7322 4.9481 42.875 4.94444H40.375C40.0691 3.74942 39.3741 2.69022 38.3996 1.93383C37.4251 1.17744 36.2267 0.766884 34.9931 0.766884C33.7595 0.766884 32.561 1.17744 31.5866 1.93383C30.6121 2.69022 29.9171 3.74942 29.6111 4.94444H27.125C26.2679 4.9481 25.4469 5.29022 24.8408 5.89632C24.2347 6.50242 23.8926 7.32341 23.8889 8.18055V13.2778H46.1111V8.18055ZM43.3334 10.5H26.6667V8.18055C26.6667 8.12037 26.6785 8.06077 26.7016 8.00516C26.7246 7.94955 26.7584 7.89902 26.8009 7.85646C26.8435 7.8139 26.894 7.78014 26.9496 7.75711C27.0052 7.73408 27.0648 7.72222 27.125 7.72222H32.2222V6.33333C32.2222 5.59662 32.5149 4.89008 33.0358 4.36915C33.5568 3.84821 34.2633 3.55555 35 3.55555C35.7367 3.55555 36.4433 3.84821 36.9642 4.36915C37.4851 4.89008 37.7778 5.59662 37.7778 6.33333V7.72222H42.875C42.9966 7.72222 43.1132 7.77051 43.1991 7.85646C43.2851 7.94242 43.3334 8.059 43.3334 8.18055V10.5Z" fill="white"/>
<path d="M25.2778 17.4444H44.7223V20.2222H25.2778V17.4444Z" fill="white"/>
<path d="M25.2778 23H44.7223V25.7778H25.2778V23Z" fill="white"/>
<path d="M25.2778 28.5556H44.7223V31.3333H25.2778V28.5556Z" fill="white"/>
<path d="M25.2778 34.1111H44.7223V36.8889H25.2778V34.1111Z" fill="white"/>
</svg>
