<svg width="75" height="139" viewBox="0 0 75 139" fill="none" xmlns="http://www.w3.org/2000/svg">
<path d="M75 105.269V39.5V36.9404C75 26.7366 61.5128 23.0855 56.3656 31.8959L54.8182 34.5445C53.0253 37.6134 49.7381 39.5 46.1838 39.5H10C4.47715 39.5 0 43.9772 0 49.5V93.5C0 99.0229 4.47715 103.5 10 103.5H46.4965C49.8811 103.5 53.036 105.212 54.8807 108.05L56.6158 110.719C62.041 119.065 75 115.223 75 105.269Z" fill="#FBFBFB"/>
<path d="M46.6806 53.9445H43.5V56.7222H46.2778V91.4445H15.7222V56.7222H18.5V53.9445H15.7222C15.3821 53.8953 15.0354 53.9188 14.705 54.0134C14.3746 54.108 14.0681 54.2717 13.8056 54.4935C13.5431 54.7153 13.3306 54.9903 13.1821 55.3002C13.0337 55.6102 12.9527 55.9481 12.9445 56.2917V91.875C12.9463 92.1851 13.0092 92.4918 13.1295 92.7775C13.2498 93.0633 13.4253 93.3226 13.6458 93.5405C13.8664 93.7585 14.1277 93.9309 14.4148 94.0478C14.702 94.1648 15.0094 94.2241 15.3195 94.2222H46.6806C46.9906 94.2241 47.298 94.1648 47.5852 94.0478C47.8723 93.9309 48.1337 93.7585 48.3542 93.5405C48.5747 93.3226 48.7502 93.0633 48.8705 92.7775C48.9909 92.4918 49.0537 92.1851 49.0556 91.875V56.2917C49.0537 55.9816 48.9909 55.6749 48.8705 55.3892C48.7502 55.1034 48.5747 54.8441 48.3542 54.6262C48.1337 54.4082 47.8723 54.2358 47.5852 54.1189C47.298 54.0019 46.9906 53.9426 46.6806 53.9445Z" fill="#0077B6"/>
<path d="M42.1111 57.1805C42.1075 56.3234 41.7654 55.5024 41.1593 54.8963C40.5532 54.2902 39.7322 53.9481 38.875 53.9444H36.375C36.0691 52.7494 35.3741 51.6902 34.3996 50.9338C33.4251 50.1774 32.2267 49.7668 30.9931 49.7668C29.7595 49.7668 28.561 50.1774 27.5866 50.9338C26.6121 51.6902 25.9171 52.7494 25.6111 53.9444H23.125C22.2679 53.9481 21.4469 54.2902 20.8408 54.8963C20.2347 55.5024 19.8926 56.3234 19.8889 57.1805V62.2777H42.1111V57.1805ZM39.3334 59.5H22.6667V57.1805C22.6667 57.1203 22.6785 57.0607 22.7016 57.0051C22.7246 56.9495 22.7584 56.899 22.8009 56.8564C22.8435 56.8139 22.894 56.7801 22.9496 56.7571C23.0052 56.734 23.0648 56.7222 23.125 56.7222H28.2222V55.3333C28.2222 54.5966 28.5149 53.89 29.0358 53.3691C29.5568 52.8482 30.2633 52.5555 31 52.5555C31.7367 52.5555 32.4433 52.8482 32.9642 53.3691C33.4851 53.89 33.7778 54.5966 33.7778 55.3333V56.7222H38.875C38.9966 56.7222 39.1132 56.7705 39.1991 56.8564C39.2851 56.9424 39.3334 57.059 39.3334 57.1805V59.5Z" fill="#0077B6"/>
<path d="M21.2778 66.4445H40.7223V69.2222H21.2778V66.4445Z" fill="#0077B6"/>
<path d="M21.2778 72H40.7223V74.7778H21.2778V72Z" fill="#0077B6"/>
<path d="M21.2778 77.5555H40.7223V80.3333H21.2778V77.5555Z" fill="#0077B6"/>
<path d="M21.2778 83.1111H40.7223V85.8889H21.2778V83.1111Z" fill="#0077B6"/>
</svg>
