<svg width="75" height="139" viewBox="0 0 75 139" fill="none" xmlns="http://www.w3.org/2000/svg">
<path d="M75 105.269V39.5V36.9404C75 26.7366 61.5128 23.0855 56.3656 31.8959L54.8182 34.5445C53.0253 37.6134 49.7381 39.5 46.1838 39.5H10C4.47715 39.5 0 43.9772 0 49.5V93.5C0 99.0229 4.47715 103.5 10 103.5H46.4965C49.8811 103.5 53.036 105.212 54.8807 108.05L56.6158 110.719C62.041 119.065 75 115.223 75 105.269Z" fill="#FBFBFB"/>
<path fill-rule="evenodd" clip-rule="evenodd" d="M14.1021 61.9208C13.8761 62.1469 13.7492 62.4536 13.7493 62.7733C13.7494 63.093 13.8765 63.3995 14.1026 63.6255C14.3287 63.8515 14.6353 63.9784 14.955 63.9783C15.2747 63.9782 15.5813 63.8511 15.8073 63.625L16.6594 62.7729L20.9198 67.0333L17.5114 70.4427C17.3963 70.5539 17.3045 70.6869 17.2414 70.8339C17.1782 70.9809 17.145 71.1391 17.1436 71.2991C17.1422 71.4591 17.1727 71.6178 17.2333 71.7659C17.2939 71.914 17.3834 72.0486 17.4966 72.1617C17.6097 72.2749 17.7443 72.3644 17.8924 72.425C18.0405 72.4856 18.1992 72.5161 18.3592 72.5147C18.5192 72.5133 18.6774 72.4801 18.8244 72.4169C18.9714 72.3538 19.1044 72.262 19.2156 72.1469L20.9198 70.4427L35.4093 84.9323C36.2385 85.7615 37.2915 86.3308 38.4394 86.5706C39.5872 86.8104 40.7801 86.7102 41.8718 86.2823L43.0802 87.4896C43.3793 87.7888 43.7519 88.0041 44.1606 88.1136C44.5693 88.2231 44.9996 88.2231 45.4083 88.1135L48.1927 90.8979C48.3046 91.0099 48.4374 91.0987 48.5837 91.1593C48.7299 91.2199 48.8866 91.2512 49.0449 91.2512C49.2032 91.2513 49.36 91.2201 49.5062 91.1596C49.6525 91.0991 49.7854 91.0103 49.8974 90.8984C50.0093 90.7865 50.0982 90.6537 50.1588 90.5074C50.2194 90.3612 50.2506 90.2045 50.2507 90.0462C50.2507 89.8879 50.2196 89.7311 50.1591 89.5849C50.0985 89.4386 50.0098 89.3057 49.8979 89.1937L47.1125 86.4083C47.2219 85.9995 47.2218 85.5692 47.1121 85.1605C47.0023 84.7518 46.7869 84.3792 46.4875 84.0802L45.2812 82.8729C45.7095 81.7811 45.81 80.5881 45.5704 79.44C45.3308 78.2919 44.7615 77.2387 43.9323 76.4094L29.4427 61.9198L31.1479 60.2156C31.2599 60.1036 31.3487 59.9707 31.4093 59.8244C31.4699 59.6781 31.5011 59.5213 31.5011 59.363C31.5011 59.2047 31.4699 59.0479 31.4093 58.9016C31.3487 58.7553 31.2599 58.6224 31.1479 58.5104C31.0359 58.3984 30.903 58.3096 30.7567 58.249C30.6104 58.1884 30.4536 58.1572 30.2953 58.1572C30.1369 58.1572 29.9801 58.1884 29.8339 58.249C29.6876 58.3096 29.5546 58.3984 29.4427 58.5104L26.0344 61.9198L21.7739 57.6594L22.625 56.8073C22.7369 56.6954 22.8258 56.5625 22.8864 56.4163C22.947 56.2701 22.9782 56.1133 22.9783 55.955C22.9783 55.7967 22.9472 55.64 22.8867 55.4937C22.8261 55.3475 22.7374 55.2145 22.6255 55.1026C22.5136 54.9906 22.3807 54.9018 22.2345 54.8412C22.0883 54.7805 21.9316 54.7493 21.7733 54.7493C21.615 54.7492 21.4582 54.7803 21.3119 54.8409C21.1657 54.9014 21.0328 54.9902 20.9208 55.1021L14.1021 61.9208V61.9208ZM24.5604 63.3927L20.3 59.1323L18.1333 61.2989L22.3937 65.5594L24.5604 63.3927V63.3927ZM27.9698 63.3927L22.3927 68.9698L26.9823 73.5594L32.5594 67.9823L27.9698 63.3937V63.3927ZM28.6875 75.2646L31.2437 77.8208L33.1802 75.8844C33.2921 75.7725 33.4251 75.6837 33.5713 75.6232C33.7176 75.5626 33.8743 75.5315 34.0326 75.5316C34.1909 75.5316 34.3477 75.5628 34.4939 75.6235C34.6401 75.6841 34.773 75.7729 34.8849 75.8849C34.9968 75.9968 35.0855 76.1297 35.146 76.276C35.2066 76.4223 35.2377 76.579 35.2377 76.7373C35.2376 76.8956 35.2064 77.0524 35.1458 77.1986C35.0851 77.3448 34.9963 77.4777 34.8843 77.5896L32.9489 79.526L34.6531 81.2302L36.5885 79.2927C36.7005 79.1807 36.8334 79.0919 36.9797 79.0313C37.126 78.9707 37.2828 78.9395 37.4411 78.9395C37.5995 78.9395 37.7563 78.9707 37.9025 79.0313C38.0488 79.0919 38.1818 79.1807 38.2937 79.2927C38.4057 79.4047 38.4945 79.5376 38.5551 79.6839C38.6157 79.8302 38.6469 79.9869 38.6469 80.1453C38.6469 80.3036 38.6157 80.4604 38.5551 80.6067C38.4945 80.753 38.4057 80.8859 38.2937 80.9979L36.3573 82.9344L36.8823 83.4594C37.4251 84.0023 38.1146 84.3751 38.8663 84.5318C39.6179 84.6885 40.3989 84.6224 41.1135 84.3416L43.3416 82.1135C43.6223 81.3988 43.6882 80.6177 43.5313 79.8661C43.3744 79.1145 43.0015 78.425 42.4583 77.8823L34.2635 69.6875L28.6875 75.2646V75.2646ZM45.0437 85.5864C45.0351 85.5747 45.0257 85.5636 45.0156 85.5531L44.1573 84.6948C44.0111 84.8571 43.8564 85.0115 43.6937 85.1573L44.5521 86.0166C44.5625 86.0271 44.5739 86.0364 44.5854 86.0448C44.6934 85.853 44.852 85.6945 45.0437 85.5864V85.5864Z" fill="#0077B6"/>
</svg>
