<svg width="71" height="71" viewBox="0 0 71 71" fill="none" xmlns="http://www.w3.org/2000/svg">
<path d="M24.7917 45.7477V47.8125C24.7917 52.0394 26.4708 56.0932 29.4597 59.082C32.4485 62.0709 36.5023 63.75 40.7292 63.75C44.9561 63.75 49.0098 62.0709 51.9987 59.082C54.9875 56.0932 56.6667 52.0394 56.6667 47.8125V41.8979C54.3026 41.0624 52.3101 39.4181 51.0412 37.2555C49.7724 35.0929 49.3089 32.5514 49.7327 30.0801C50.1566 27.6089 51.4405 25.367 53.3574 23.7509C55.2744 22.1347 57.701 21.2483 60.2083 21.2483C62.7157 21.2483 65.1423 22.1347 67.0592 23.7509C68.9762 25.367 70.2601 27.6089 70.6839 30.0801C71.1078 32.5514 70.6443 35.0929 69.3754 37.2555C68.1066 39.4181 66.114 41.0624 63.75 41.8979V47.8125C63.75 53.918 61.3246 59.7734 57.0073 64.0907C52.6901 68.4079 46.8347 70.8333 40.7292 70.8333C34.6237 70.8333 28.7682 68.4079 24.451 64.0907C20.1337 59.7734 17.7083 53.918 17.7083 47.8125V45.7477C12.7568 44.9093 8.26205 42.3449 5.02067 38.5091C1.77928 34.6732 0.000644155 29.8137 0 24.7917V7.08333C0 5.20472 0.746277 3.40304 2.07466 2.07466C3.40304 0.746277 5.20472 0 7.08333 0H10.625C11.5643 0 12.4651 0.373139 13.1293 1.03733C13.7935 1.70152 14.1667 2.60236 14.1667 3.54167C14.1667 4.48098 13.7935 5.38181 13.1293 6.046C12.4651 6.71019 11.5643 7.08333 10.625 7.08333H7.08333V24.7917C7.08333 28.5489 8.57589 32.1522 11.2327 34.809C13.8894 37.4658 17.4928 38.9583 21.25 38.9583C25.0072 38.9583 28.6106 37.4658 31.2673 34.809C33.9241 32.1522 35.4167 28.5489 35.4167 24.7917V7.08333H31.875C30.9357 7.08333 30.0349 6.71019 29.3707 6.046C28.7065 5.38181 28.3333 4.48098 28.3333 3.54167C28.3333 2.60236 28.7065 1.70152 29.3707 1.03733C30.0349 0.373139 30.9357 0 31.875 0H35.4167C37.2953 0 39.097 0.746277 40.4253 2.07466C41.7537 3.40304 42.5 5.20472 42.5 7.08333V24.7917C42.4994 29.8137 40.7207 34.6732 37.4793 38.5091C34.2379 42.3449 29.7432 44.9093 24.7917 45.7477ZM60.2083 35.4167C61.1476 35.4167 62.0485 35.0435 62.7127 34.3793C63.3769 33.7151 63.75 32.8143 63.75 31.875C63.75 30.9357 63.3769 30.0349 62.7127 29.3707C62.0485 28.7065 61.1476 28.3333 60.2083 28.3333C59.269 28.3333 58.3682 28.7065 57.704 29.3707C57.0398 30.0349 56.6667 30.9357 56.6667 31.875C56.6667 32.8143 57.0398 33.7151 57.704 34.3793C58.3682 35.0435 59.269 35.4167 60.2083 35.4167Z" fill="#0077B6"/>
</svg>
