<svg width="75" height="139" viewBox="0 0 75 139" fill="none" xmlns="http://www.w3.org/2000/svg">
<path d="M75 105.269V39.5V36.9404C75 26.7366 61.5128 23.0855 56.3656 31.8959L54.8182 34.5445C53.0253 37.6134 49.7381 39.5 46.1838 39.5H10C4.47715 39.5 0 43.9772 0 49.5V93.5C0 99.0229 4.47715 103.5 10 103.5H46.4965C49.8811 103.5 53.036 105.212 54.8807 108.05L56.6158 110.719C62.041 119.065 75 115.223 75 105.269Z" fill="#FBFBFB"/>
<path d="M25.75 89.6667H19.5C17.2898 89.6667 15.1702 88.7887 13.6074 87.2259C12.0446 85.6631 11.1666 83.5435 11.1666 81.3333V62.5833C11.1666 60.3732 12.0446 58.2536 13.6074 56.6908C15.1702 55.128 17.2898 54.25 19.5 54.25H42.4166C44.6268 54.25 46.7464 55.128 48.3092 56.6908C49.872 58.2536 50.75 60.3732 50.75 62.5833V68.8333" stroke="#0077B6" stroke-width="3" stroke-linecap="round" stroke-linejoin="round"/>
<path d="M23.6666 52.1667V56.3333" stroke="#0077B6" stroke-width="3" stroke-linecap="round" stroke-linejoin="round"/>
<path d="M38.25 52.1667V56.3333" stroke="#0077B6" stroke-width="3" stroke-linecap="round" stroke-linejoin="round"/>
<path d="M11.1666 64.6667H50.75" stroke="#0077B6" stroke-width="3" stroke-linecap="round" stroke-linejoin="round"/>
<path d="M45.5416 80.5896L42.4166 83.7146" stroke="#0077B6" stroke-width="3" stroke-linecap="round" stroke-linejoin="round"/>
<path d="M42.4167 93.8333C48.1696 93.8333 52.8333 89.1696 52.8333 83.4167C52.8333 77.6637 48.1696 73 42.4167 73C36.6637 73 32 77.6637 32 83.4167C32 89.1696 36.6637 93.8333 42.4167 93.8333Z" stroke="#0077B6" stroke-width="3" stroke-linecap="round" stroke-linejoin="round"/>
</svg>
