<svg width="71" height="75" viewBox="0 0 71 75" fill="none" xmlns="http://www.w3.org/2000/svg">
<path d="M47.7063 7.47292C46.0417 6.55208 43.8104 7.26042 42.8896 8.99583C42.6417 9.49167 42.5 10.0583 42.5 10.625V19.7979L39.9854 17.2833C39.6589 16.9585 39.4 16.5721 39.2237 16.1466C39.0474 15.721 38.9572 15.2648 38.9583 14.8042V0H31.875V14.7688C31.875 15.725 31.5208 16.6104 30.8479 17.2833L28.3333 19.7979V10.625C28.3333 8.64167 26.7042 7.08333 24.7917 7.08333C24.1896 7.08333 23.6229 7.225 23.1271 7.47292C9.63333 14.1667 0 31.7688 0 52.3104C0 59.0396 1.16875 65.6979 3.54167 71.9667C3.71235 72.458 3.98845 72.9061 4.3506 73.2795C4.71276 73.6529 5.1522 73.9425 5.63812 74.1281C6.12404 74.3137 6.64468 74.3907 7.16353 74.3539C7.68238 74.317 8.18688 74.1671 8.64167 73.9146L26.5625 63.9979C27.6604 63.3958 28.3333 62.1917 28.3333 60.8813V29.7854L32.9375 25.2167C33.2652 24.8883 33.6543 24.6279 34.0828 24.4501C34.5112 24.2724 34.9705 24.1809 35.4344 24.1809C35.8982 24.1809 36.3575 24.2724 36.786 24.4501C37.2144 24.6279 37.6036 24.8883 37.9313 25.2167L42.5 29.8208V60.9167C42.5 62.1917 43.2438 63.3958 44.2708 64.0333L62.2625 73.95C62.6758 74.1717 63.1289 74.3091 63.5957 74.3542C64.0625 74.3994 64.5337 74.3514 64.9817 74.213C65.4298 74.0746 65.846 73.8486 66.206 73.5481C66.5661 73.2476 66.8629 72.8786 67.0792 72.4625C67.15 72.3208 67.2917 72.1438 67.2917 71.9667C69.6646 65.6979 70.8333 59.0396 70.8333 52.3104C70.8333 31.7688 61.2354 14.1667 47.7063 7.47292Z" fill="#0077B6"/>
</svg>
