<svg width="70" height="70" viewBox="0 0 70 70" fill="none" xmlns="http://www.w3.org/2000/svg">
<path d="M58.6865 52.1992C57.397 49.1447 55.5257 46.3702 53.1767 44.0303C50.835 41.6836 48.0609 39.8125 45.0078 38.5205C44.9805 38.5068 44.9531 38.5 44.9258 38.4863C49.1846 35.4102 51.9531 30.3994 51.9531 24.7461C51.9531 15.3809 44.3652 7.79297 35 7.79297C25.6348 7.79297 18.0469 15.3809 18.0469 24.7461C18.0469 30.3994 20.8154 35.4102 25.0742 38.4932C25.0469 38.5068 25.0195 38.5137 24.9922 38.5273C21.9297 39.8193 19.1816 41.6719 16.8232 44.0371C14.4765 46.3789 12.6055 49.1529 11.3135 52.2061C10.0442 55.1951 9.35963 58.3997 9.29686 61.6465C9.29504 61.7194 9.30784 61.792 9.3345 61.86C9.36117 61.9279 9.40116 61.9898 9.45212 62.0421C9.50309 62.0943 9.56399 62.1358 9.63125 62.1641C9.69851 62.1925 9.77076 62.2071 9.84374 62.207H13.9453C14.2461 62.207 14.4853 61.9678 14.4922 61.6738C14.6289 56.3965 16.748 51.4541 20.4941 47.708C24.3701 43.832 29.5176 41.6992 35 41.6992C40.4824 41.6992 45.6299 43.832 49.5058 47.708C53.2519 51.4541 55.3711 56.3965 55.5078 61.6738C55.5146 61.9746 55.7539 62.207 56.0547 62.207H60.1562C60.2292 62.2071 60.3015 62.1925 60.3687 62.1641C60.436 62.1358 60.4969 62.0943 60.5479 62.0421C60.5988 61.9898 60.6388 61.9279 60.6655 61.86C60.6921 61.792 60.7049 61.7194 60.7031 61.6465C60.6348 58.3789 59.958 55.2002 58.6865 52.1992ZM35 36.5039C31.8623 36.5039 28.9092 35.2803 26.6875 33.0586C24.4658 30.8369 23.2422 27.8838 23.2422 24.7461C23.2422 21.6084 24.4658 18.6553 26.6875 16.4336C28.9092 14.2119 31.8623 12.9883 35 12.9883C38.1377 12.9883 41.0908 14.2119 43.3125 16.4336C45.5342 18.6553 46.7578 21.6084 46.7578 24.7461C46.7578 27.8838 45.5342 30.8369 43.3125 33.0586C41.0908 35.2803 38.1377 36.5039 35 36.5039Z" fill="#0077B6"/>
</svg>
