<svg width="70" height="70" viewBox="0 0 70 70" fill="none" xmlns="http://www.w3.org/2000/svg">
<path d="M11.6667 11.6666V58.3333C11.6667 59.8804 12.2812 61.3641 13.3752 62.458C14.4692 63.552 15.9529 64.1666 17.5 64.1666H52.5C54.0471 64.1666 55.5308 63.552 56.6248 62.458C57.7187 61.3641 58.3333 59.8804 58.3333 58.3333V24.3308C58.3332 23.5536 58.1779 22.7844 57.8763 22.0681C57.5748 21.3519 57.1332 20.7031 56.5775 20.1599L43.6275 7.49575C42.5377 6.43017 41.0742 5.83344 39.55 5.83325H17.5C15.9529 5.83325 14.4692 6.44783 13.3752 7.5418C12.2812 8.63576 11.6667 10.1195 11.6667 11.6666V11.6666Z" stroke="#0077B6" stroke-width="3" stroke-linecap="round" stroke-linejoin="round"/>
<path d="M40.8333 5.83325V17.4999C40.8333 19.047 41.4479 20.5307 42.5419 21.6247C43.6358 22.7187 45.1196 23.3333 46.6666 23.3333H58.3333" stroke="#0077B6" stroke-width="3" stroke-linejoin="round"/>
</svg>
