<svg width="56" height="139" viewBox="0 0 56 139" fill="none" xmlns="http://www.w3.org/2000/svg">
<path d="M-19 33.7313L-19 99.5V102.06C-19 112.263 -5.51284 115.914 -0.365566 107.104L1.18177 104.456C2.97472 101.387 6.26191 99.5 9.8162 99.5H46C51.5228 99.5 56 95.0228 56 89.5L56 45.5C56 39.9771 51.5229 35.5 46 35.5H9.50354C6.11892 35.5 2.964 33.7879 1.11931 30.9502L-0.615776 28.2811C-6.04097 19.9353 -19 23.7772 -19 33.7313Z" fill="#FBFBFB"/>
<g clip-path="url(#clip0_16_363)">
<path d="M30.4701 59.5828L17.6666 71.4461V84.25C17.6666 84.5815 17.7837 84.8995 17.992 85.1339C18.2004 85.3683 18.483 85.5 18.7777 85.5L26.5597 85.4773C26.8534 85.4757 27.1346 85.3433 27.3417 85.109C27.5489 84.8748 27.6652 84.5578 27.6652 84.2273V76.75C27.6652 76.4185 27.7823 76.1005 27.9907 75.8661C28.199 75.6317 28.4816 75.5 28.7763 75.5H33.2208C33.5155 75.5 33.7981 75.6317 34.0064 75.8661C34.2148 76.1005 34.3319 76.4185 34.3319 76.75V84.2219C34.3314 84.3864 34.3598 84.5493 34.4155 84.7014C34.4711 84.8535 34.5529 84.9918 34.6561 85.1083C34.7593 85.2248 34.882 85.3172 35.017 85.3803C35.152 85.4433 35.2968 85.4758 35.443 85.4758L43.2222 85.5C43.5168 85.5 43.7995 85.3683 44.0078 85.1339C44.2162 84.8995 44.3333 84.5815 44.3333 84.25V71.4375L31.5326 59.5828C31.3821 59.4463 31.1946 59.3719 31.0013 59.3719C30.808 59.3719 30.6206 59.4463 30.4701 59.5828V59.5828ZM50.6944 67.6461L44.8888 62.2625V51.4414C44.8888 51.1928 44.801 50.9543 44.6447 50.7785C44.4885 50.6027 44.2765 50.5039 44.0555 50.5039H40.1666C39.9456 50.5039 39.7336 50.6027 39.5773 50.7785C39.4211 50.9543 39.3333 51.1928 39.3333 51.4414V57.1141L33.1159 51.3594C32.5193 50.807 31.7706 50.505 30.9979 50.505C30.2252 50.505 29.4765 50.807 28.8798 51.3594L11.3013 67.6461C11.2169 67.7246 11.1471 67.821 11.0959 67.9298C11.0446 68.0386 11.0129 68.1577 11.0026 68.2804C10.9923 68.403 11.0036 68.5267 11.0357 68.6444C11.0679 68.7621 11.1204 68.8715 11.1902 68.9664L12.9611 71.3883C13.0307 71.4835 13.1163 71.5623 13.213 71.6203C13.3097 71.6782 13.4157 71.7141 13.5247 71.726C13.6338 71.7378 13.7439 71.7253 13.8487 71.6892C13.9534 71.6531 14.0509 71.5941 14.1354 71.5156L30.4701 56.3797C30.6206 56.2432 30.808 56.1688 31.0013 56.1688C31.1946 56.1688 31.3821 56.2432 31.5326 56.3797L47.868 71.5156C47.9523 71.5941 48.0496 71.6532 48.1542 71.6894C48.2589 71.7256 48.3688 71.7383 48.4778 71.7267C48.5868 71.7151 48.6927 71.6794 48.7894 71.6218C48.8862 71.5641 48.9719 71.4856 49.0416 71.3906L50.8124 68.9688C50.8822 68.8733 50.9344 68.7633 50.9662 68.6451C50.998 68.5269 51.0088 68.4027 50.9978 68.2798C50.9868 68.1569 50.9544 68.0376 50.9023 67.9289C50.8502 67.8201 50.7796 67.724 50.6944 67.6461V67.6461Z" fill="#0077B6"/>
</g>
<defs>
<clipPath id="clip0_16_363">
<rect width="40" height="40" fill="white" transform="translate(11 48)"/>
</clipPath>
</defs>
</svg>
