<svg width="40" height="40" viewBox="0 0 40 40" fill="none" xmlns="http://www.w3.org/2000/svg">
<g clip-path="url(#clip0_17_369)">
<path d="M19.4701 11.5828L6.66661 23.4461V36.25C6.66661 36.5815 6.78367 36.8995 6.99204 37.1339C7.20042 37.3683 7.48303 37.5 7.77772 37.5L15.5597 37.4773C15.8534 37.4757 16.1346 37.3433 16.3417 37.109C16.5489 36.8748 16.6652 36.5578 16.6652 36.2273V28.75C16.6652 28.4185 16.7823 28.1005 16.9907 27.8661C17.199 27.6317 17.4816 27.5 17.7763 27.5H22.2208C22.5155 27.5 22.7981 27.6317 23.0064 27.8661C23.2148 28.1005 23.3319 28.4185 23.3319 28.75V36.2219C23.3314 36.3864 23.3598 36.5493 23.4155 36.7014C23.4711 36.8535 23.5529 36.9918 23.6561 37.1083C23.7593 37.2248 23.882 37.3172 24.017 37.3803C24.152 37.4433 24.2968 37.4758 24.443 37.4758L32.2222 37.5C32.5168 37.5 32.7995 37.3683 33.0078 37.1339C33.2162 36.8995 33.3333 36.5815 33.3333 36.25V23.4375L20.5326 11.5828C20.3821 11.4463 20.1946 11.3719 20.0013 11.3719C19.808 11.3719 19.6206 11.4463 19.4701 11.5828ZM39.6944 19.6461L33.8888 14.2625V3.44141C33.8888 3.19277 33.801 2.95431 33.6447 2.77849C33.4885 2.60268 33.2765 2.50391 33.0555 2.50391H29.1666C28.9456 2.50391 28.7336 2.60268 28.5773 2.77849C28.4211 2.95431 28.3333 3.19277 28.3333 3.44141V9.11406L22.1159 3.35938C21.5193 2.80702 20.7706 2.50501 19.9979 2.50501C19.2252 2.50501 18.4765 2.80702 17.8798 3.35938L0.301331 19.6461C0.216947 19.7246 0.147133 19.821 0.0958776 19.9298C0.0446221 20.0386 0.0129297 20.1577 0.0026112 20.2804C-0.00770728 20.403 0.00355043 20.5267 0.0357411 20.6444C0.0679317 20.7621 0.120424 20.8715 0.19022 20.9664L1.96105 23.3883C2.03066 23.4835 2.11627 23.5623 2.213 23.6203C2.30972 23.6782 2.41565 23.7141 2.52473 23.726C2.6338 23.7378 2.74388 23.7253 2.84866 23.6892C2.95344 23.6531 3.05087 23.5941 3.13536 23.5156L19.4701 8.37969C19.6206 8.24322 19.808 8.16881 20.0013 8.16881C20.1946 8.16881 20.3821 8.24322 20.5326 8.37969L36.868 23.5156C36.9523 23.5941 37.0496 23.6532 37.1542 23.6894C37.2589 23.7256 37.3688 23.7383 37.4778 23.7267C37.5868 23.7151 37.6927 23.6794 37.7894 23.6218C37.8862 23.5641 37.9719 23.4856 38.0416 23.3906L39.8124 20.9688C39.8822 20.8733 39.9344 20.7633 39.9662 20.6451C39.9981 20.5269 40.0088 20.4027 39.9978 20.2798C39.9868 20.1569 39.9544 20.0376 39.9023 19.9289C39.8502 19.8201 39.7796 19.724 39.6944 19.6461Z" fill="#0077B6"/>
</g>
<defs>
<clipPath id="clip0_17_369">
<rect width="40" height="40" fill="white"/>
</clipPath>
</defs>
</svg>
