<svg width="351" height="304" viewBox="0 0 351 304" fill="none" xmlns="http://www.w3.org/2000/svg">
<path d="M147.21 51.9013C147.21 51.9013 146.509 -6.96362 195.154 0.685804C231.992 6.48069 231.38 29.7035 231.362 60.9249C231.345 92.1462 215.902 80.0193 238.331 122.739C260.757 165.46 221.136 166.707 221.136 166.707L189.143 122.41L147.21 51.9013Z" fill="black"/>
<path d="M203.367 88.6251C216.399 71.4971 217.632 45.805 217.958 39.5834C218.389 31.3536 223.943 10.9402 178.779 9.58995C178.779 9.58995 147.131 1.2005 147.21 51.9013C147.265 87.0182 152.366 102.823 165.071 105.414C165.071 105.419 165.071 105.422 165.073 105.426C165.323 107.229 165.7 110.478 165.766 114.21C165.82 117.034 165.691 120.125 165.207 123.075C165.19 123.106 146.904 155.271 153.469 157.825C159.134 160.03 189.307 165.433 204.733 144.621C207.189 141.307 203.409 134.162 205.349 129.976C205.349 129.976 204.492 129.11 202.95 127.869C202.851 121.532 202.616 101.419 203.367 88.6251Z" fill="#ECA685"/>
<path d="M167.677 31.3058C167.677 31.3058 185.57 60.5532 201.435 71.7909C217.3 83.0286 209.677 92.6564 209.677 92.6564C209.677 92.6564 238.902 26.2106 218.557 17.8092C193.403 7.4205 146.603 -10.0492 147.21 51.9027C147.21 51.9027 164.16 30.9462 167.677 31.3058Z" fill="black"/>
<path d="M188.173 100.964C182.199 111.033 165.767 114.21 165.767 114.21H165.765C165.698 110.478 165.323 107.227 165.071 105.425C175.735 107.28 188.173 100.964 188.173 100.964Z" fill="#A6785F"/>
<path d="M203.297 83.4702C199.85 83.4642 197.061 80.4787 197.067 76.8054C197.072 73.1307 199.871 70.1571 203.317 70.1631C206.763 70.1691 209.552 73.1531 209.547 76.8278C209.541 80.5026 206.744 83.4746 203.297 83.4702Z" fill="#ECA685"/>
<path d="M115.905 302.743L117.304 302.758L117.129 213.239L115.905 302.743Z" fill="#D4DCE8"/>
<path d="M196.684 143.977C228.215 134.059 182.211 303.106 182.211 303.106H144.574C144.574 303.106 132.383 153.76 159.882 132.199C159.882 132.199 165.154 153.894 196.684 143.977Z" fill="#E4E9EF"/>
<path d="M160.213 127.751C160.213 127.751 148.014 169.673 147.856 190.685C147.7 211.696 143.682 303.108 143.682 303.108H115.903L117.51 195.517" fill="#0077B6"/>
<path d="M224.093 208.522L232.081 230.124C232.577 231.465 232.826 232.898 232.814 234.342L232.393 303.106H175.938C175.938 303.106 179.69 265.447 179.96 229.156C180.23 192.865 202.924 126.094 202.924 126.094C202.924 126.094 252.709 117.075 271.512 225.481C281.843 285.034 281.666 297.635 277.198 301.186C273.534 304.101 266.183 303.106 266.183 303.106H235.083L235.739 240.708C235.776 235.941 234.751 231.233 232.752 226.973L224.093 208.522Z" fill="#0077B6"/>
<path d="M329.976 107.449L323.943 102.149L322.202 104.4L328.234 109.7L335.342 115.95L341.375 121.251L343.114 118.998L337.083 113.698L329.976 107.449Z" fill="#9DD4EC"/>
<path d="M325.7 113.196L321.386 109.405L319.644 111.657L323.957 115.448L329.041 119.917L333.355 123.708L335.097 121.454L330.784 117.664L325.7 113.196Z" fill="#9DD4EC"/>
<path d="M308.464 135.271L302.43 129.97L300.69 132.223L306.721 137.523L313.829 143.771L319.863 149.072L321.602 146.819L315.57 141.517L308.464 135.271Z" fill="#9DD4EC"/>
<path d="M304.088 140.931L298.055 135.629L296.314 137.882L302.346 143.181L309.454 149.43L315.487 154.732L317.227 152.479L311.195 147.179L304.088 140.931Z" fill="#9DD4EC"/>
<path d="M299.713 146.589L293.68 141.287L291.939 143.539L297.97 148.839L305.078 155.088L311.112 160.39L312.851 158.138L306.819 152.835L299.713 146.589Z" fill="#9DD4EC"/>
<path d="M288.783 174.029L293.096 177.82L294.838 175.569L290.525 171.778L285.44 167.309L281.127 163.518L279.386 165.77L283.699 169.562L288.783 174.029Z" fill="#9DD4EC"/>
<path d="M284.506 179.774L290.538 185.074L292.279 182.824L286.247 177.522L279.139 171.276L273.107 165.974L271.366 168.226L277.398 173.526L284.506 179.774Z" fill="#9DD4EC"/>
<path d="M290.434 164.733C281.61 165.042 274.089 167.939 268.262 174.994C267.191 176.292 265.962 176.366 264.888 175.376C263.882 174.453 263.869 173.059 264.907 171.769C270.634 164.654 278.012 161.013 286.669 160.081C287.279 160.015 287.89 159.942 288.502 159.893C291.169 159.675 291.175 159.677 290.712 156.782C290.136 153.189 289.513 149.626 289.53 145.935C289.567 137.504 296.051 130.025 303.169 127.426C307.62 125.803 312.252 125.333 316.877 124.839C318.42 124.674 318.968 124.222 318.93 122.413C318.781 115.023 319.838 107.851 323.088 101.203C323.866 99.6101 324.736 98.0661 325.635 96.5458C326.627 94.8686 327.882 94.4477 329.062 95.2851C330.391 96.2266 330.552 97.5349 329.462 99.2449C325.618 105.281 323.784 111.987 323.575 119.233C323.543 120.376 323.673 121.527 323.604 122.665C323.535 123.821 324.03 123.878 324.896 123.724C332.661 122.339 339.588 119.135 345.2 113.102C346.158 112.071 347.175 111.531 348.439 112.34C349.963 113.316 349.949 115 348.45 116.574C343.427 121.848 337.534 125.504 330.689 127.366C328.808 127.877 326.91 128.336 325.002 128.704C324.231 128.852 323.995 129.109 324.025 129.952C324.17 134.031 324.647 138.09 324.553 142.186C324.379 149.902 321.702 156.298 315.845 160.95C312.573 163.553 308.661 164.258 304.681 164.473C302.639 164.585 300.59 164.562 298.544 164.549C297.362 164.542 296.756 164.786 296.977 166.343C297.813 172.223 297.732 178.066 296.033 183.809C294.882 187.706 293.077 191.216 290.724 194.418C289.745 195.749 288.467 195.993 287.408 195.124C286.284 194.202 286.107 192.927 287.109 191.54C292.495 184.093 293.642 175.662 292.384 166.612C292.173 165.09 291.797 164.231 290.434 164.733ZM319.94 141.162C320.074 137.955 319.66 134.384 319.433 130.8C319.363 129.699 319.101 129.3 318.072 129.616C317.738 129.719 317.363 129.673 317.007 129.713C312.646 130.221 308.265 130.613 304.119 132.331C297.582 135.038 294.025 140.491 294.145 147.902C294.204 151.617 295.134 155.213 295.767 158.848C295.916 159.711 296.432 159.679 297.001 159.675C299.708 159.647 302.42 159.707 305.123 159.566C311.065 159.255 315.583 156.471 318.16 150.595C319.409 147.743 319.924 144.699 319.94 141.162Z" fill="#0077B6"/>
<path d="M274.434 90.3736C256.458 90.3736 241.889 74.839 241.889 55.6774C241.889 36.5128 256.458 20.9782 274.434 20.9782C292.409 20.9782 306.98 36.5128 306.98 55.6774C306.98 74.839 292.409 90.3736 274.434 90.3736Z" fill="#E4E9EF"/>
<path d="M291.352 50.0734H279.688V37.6392C279.688 36.3442 278.695 35.2848 277.481 35.2848H271.387C270.173 35.2848 269.179 36.3442 269.179 37.6392V50.0734H257.516C256.303 50.0734 255.309 51.1328 255.309 52.4278V58.9224C255.309 60.2175 256.303 61.2783 257.516 61.2783H269.179V73.7125C269.179 75.0076 270.173 76.0669 271.387 76.0669H277.481C278.695 76.0669 279.688 75.0076 279.688 73.7125V61.2783H291.352C292.565 61.2783 293.559 60.2175 293.559 58.9224V52.4278C293.559 51.1328 292.565 50.0734 291.352 50.0734Z" fill="#B6E2DA"/>
<path d="M161.685 119.155L161.377 117.351C161.377 117.351 164.21 114.257 162.063 111.43C160.016 108.735 154.653 108.693 152.779 110.749C150.906 112.806 151.323 118.604 158.245 118.102L161.685 119.155Z" fill="#D4DCE8"/>
<path d="M157.796 110.415C156.731 110.323 156.362 111.109 156.269 111.263C156.176 111.109 155.527 110.204 154.446 110.46C153.913 110.586 153.457 111.115 153.324 112.008C153.147 113.187 154.08 114.412 156.123 115.683C156.213 115.739 156.326 115.739 156.416 115.683C158.459 114.412 159.392 113.187 159.215 112.008C159.057 110.951 158.439 110.471 157.796 110.415Z" fill="#B6E2DA"/>
<path d="M158.605 111.293C158.679 111.408 158.733 111.538 158.762 111.674C158.789 111.811 158.801 111.953 158.779 112.09C158.774 112.16 158.752 112.226 158.736 112.292C158.716 112.357 158.687 112.419 158.659 112.479C158.664 112.41 158.677 112.346 158.682 112.28C158.685 112.213 158.695 112.149 158.692 112.083C158.695 111.954 158.679 111.826 158.653 111.702C158.628 111.577 158.584 111.457 158.53 111.341C158.475 111.225 158.408 111.114 158.33 111.008C158.44 111.078 158.532 111.179 158.605 111.293Z" fill="white"/>
<path d="M177.746 221.845C177.748 221.872 177.75 221.9 177.749 221.925C177.763 221.922 177.777 221.918 177.791 221.916C177.777 221.891 177.76 221.869 177.746 221.845Z" fill="#4687EC"/>
<path d="M153.828 226.507C153.749 226.81 153.714 227.1 153.718 227.37C153.725 226.816 153.858 226.294 154.084 225.836C153.98 226.034 153.892 226.255 153.828 226.507Z" fill="#4687EC"/>
<path d="M176.554 193.26C176.556 193.179 176.559 193.1 176.563 193.021C176.559 193.101 176.556 193.179 176.554 193.26Z" fill="#B6E2DA"/>
<path d="M225.155 138.004C225.987 136.818 227.89 133.828 227.89 133.828L225.042 132.008L222.265 130.477C222.265 130.477 222.04 130.717 221.059 132.043C214.342 141.127 208.87 151.081 203.819 161.292C203.205 162.535 202.577 163.108 201.208 162.958C198.66 162.677 196.107 162.963 193.598 163.441C185.778 164.934 179.035 168.447 174.67 175.839C172.02 180.329 170.774 185.069 170.37 189.957C170.384 189.819 170.394 189.682 170.408 189.543L176.771 190.318C176.767 190.35 176.765 190.383 176.761 190.418C176.971 188.563 177.339 186.893 178.035 184.633C180.73 175.877 186.901 171.774 195.022 170.35C196.84 170.031 198.695 169.997 200.535 169.861C202.91 169.685 204.688 170.677 206.373 172.254C211.592 177.134 213.369 183.398 212.874 190.55C212.748 192.369 212.384 194.171 212.079 195.971C211.708 198.154 211.173 200.204 210.478 202.119C210.642 201.704 210.796 201.285 210.934 200.856L216.995 203.058C216.764 203.783 216.498 204.484 216.214 205.172C217.067 203.22 217.752 201.103 218.252 198.804C220.971 186.312 219.73 175.041 209.901 166.259C209.119 165.561 209.395 165.094 209.733 164.405C214.263 155.199 219.32 146.344 225.155 138.004Z" fill="#B6E2DA"/>
<path d="M176.762 190.416C176.671 191.228 176.606 192.072 176.563 193.02C176.602 192.163 176.669 191.296 176.762 190.416Z" fill="#E4E9EF"/>
<path d="M176.537 193.639C176.537 193.67 176.538 193.701 176.54 193.733C176.544 193.575 176.547 193.419 176.554 193.261C176.548 193.387 176.543 193.509 176.537 193.639Z" fill="#E4E9EF"/>
<path d="M202.38 237.347C202.242 237.269 195.606 233.429 189.093 226.113C186.736 226.852 184.372 227.476 182.049 228.001C182.221 228.217 182.389 228.432 182.564 228.647C182.885 229.042 183.214 229.433 183.548 229.823C191.097 238.642 199.044 243.191 199.379 243.38C200.942 244.265 202.879 243.628 203.707 241.964C203.816 241.742 203.9 241.515 203.96 241.284C204.359 239.77 203.736 238.115 202.38 237.347Z" fill="#D4DAE1"/>
<path d="M177.63 204.802C176.828 201.369 176.418 197.676 176.54 193.733C176.54 193.702 176.539 193.669 176.537 193.639C176.543 193.509 176.548 193.387 176.554 193.261C176.557 193.181 176.56 193.1 176.564 193.021C176.609 192.074 176.67 191.228 176.761 190.416C176.765 190.383 176.767 190.351 176.771 190.318L170.408 189.543C170.394 189.682 170.384 189.819 170.37 189.958C169.259 201.172 171.792 212.034 177.748 221.845C177.762 221.867 177.776 221.891 177.791 221.917C179.093 221.664 180.414 221.384 181.744 221.069C182.546 220.878 183.364 220.672 184.189 220.45C184.318 220.416 184.45 220.38 184.58 220.345C181.602 215.969 179.028 210.777 177.63 204.802Z" fill="#D4DAE1"/>
<path d="M216.215 205.17C212.57 213.526 205.879 218.861 197.652 222.697C195.18 223.85 192.61 224.772 189.895 225.857" fill="#D4DAE1"/>
<path d="M210.934 200.855C210.796 201.285 210.64 201.706 210.476 202.121C206.481 212.205 194.814 217.548 184.58 220.345C184.45 220.381 184.317 220.415 184.188 220.451C183.362 220.672 182.545 220.879 181.744 221.07C180.412 221.385 179.091 221.664 177.79 221.916C177.777 221.918 177.763 221.921 177.749 221.924C166.628 224.068 157.057 224.001 156.952 224.001C155.706 223.987 154.625 224.735 154.084 225.836C153.859 226.295 153.726 226.814 153.719 227.37C153.719 227.371 153.719 227.374 153.719 227.377C153.701 229.264 155.119 230.812 156.887 230.826C157.85 230.837 168.846 230.883 181.278 228.174C181.533 228.117 181.791 228.06 182.047 228.002C184.371 227.477 186.736 226.853 189.093 226.115C189.36 226.03 189.626 225.943 189.895 225.858C192.608 224.772 195.179 223.85 197.652 222.698C205.879 218.861 211.649 212.878 216.213 205.172C216.589 204.536 216.763 203.783 216.994 203.058L210.934 200.855Z" fill="#D4DAE1"/>
<path d="M152.123 222.625L156.504 222.761C158.533 222.824 160.144 224.645 160.083 226.809L160.06 227.717C160.002 229.879 158.295 231.598 156.266 231.535L151.884 231.4C149.855 231.336 148.244 229.515 148.304 227.352L148.328 226.443C148.387 224.28 150.094 222.563 152.123 222.625Z" fill="#8493A7"/>
<path d="M150.265 223.098C149.147 223.747 148.369 224.994 148.33 226.442L148.303 227.352C148.262 228.799 148.973 230.094 150.054 230.812C150.054 230.812 150.492 228.671 150.544 226.722C150.597 224.772 150.265 223.098 150.265 223.098Z" fill="#6D8397"/>
<path d="M206.841 238.77L203.079 236.372C201.338 235.261 199.06 235.873 198.019 237.729L197.581 238.509C196.539 240.365 197.112 242.794 198.854 243.905L202.614 246.305C204.357 247.413 206.634 246.804 207.675 244.947L208.113 244.165C209.154 242.308 208.582 239.88 206.841 238.77Z" fill="#8493A7"/>
<path d="M208.17 240.236C208.784 241.426 208.81 242.925 208.113 244.168L207.673 244.95C206.978 246.189 205.728 246.874 204.456 246.856C204.456 246.856 205.165 244.808 206.104 243.131C207.044 241.458 208.17 240.236 208.17 240.236Z" fill="#6D8397"/>
<path d="M59.9179 205.76L42.4132 161.131C42.4132 161.131 37.8854 148.717 30.1982 137.178C27.4363 133.033 26.5081 130.503 26.242 129.05C26.0517 128.013 24.9014 127.597 24.1316 128.258C22.4188 129.728 21.1061 133.566 26.5825 143.56C33.5036 156.188 15.4898 139.626 7.92414 132.415C6.36099 130.924 3.90521 131.858 3.51388 134.061C2.53894 139.572 2.48091 148.742 10.5986 154.985C17.5246 160.311 24.1932 166.855 28.6934 171.554C32.3534 175.373 35.9557 181.522 37.3718 186.784L54.2896 211.709L59.9179 205.76Z" fill="#ECA685"/>
<path d="M93.2532 220.772C93.2504 220.779 93.2462 220.784 93.2434 220.791C92.79 221.863 92.0469 222.316 90.9497 221.939C90.8293 222.057 90.6474 222.046 90.5159 222.153C104.773 233.81 127.785 223.261 144.407 214.913L144.368 215.545C144.381 215.522 144.404 215.478 144.404 215.478L147.114 170.931L164.919 123.925C164.919 123.925 127.134 138.847 93.2532 220.772Z" fill="#0077B6"/>
<path d="M87.432 216.792C77.6216 209.591 54.5979 166.72 54.5979 166.72L28.1878 182.344C28.5786 183.152 62.2379 252.569 86.0734 260.925C88.8554 261.9 91.7535 262.006 94.703 261.446C116.801 257.258 141.778 215.274 142.594 213.893L142.661 213.264C125.252 220.978 100.996 230.634 87.432 216.792Z" fill="#0077B6"/>
<path d="M87.6544 221.966C91.4466 223.194 95.9284 225.06 99.8834 225.412C104.006 225.782 107.971 223.68 112.064 223.519C122.771 223.104 131.648 220.197 141.51 215.709C143.974 214.586 142.032 210.658 139.575 211.776C134.786 213.956 129.971 216.143 124.928 217.574C119.751 219.043 115.051 218.653 109.83 218.764C107.564 218.812 105.984 219.815 103.854 220.312C99.1083 221.422 93.4745 219.211 88.9487 217.745C86.3819 216.913 85.0876 221.133 87.6544 221.966Z" fill="#0077B6"/>
<path d="M157.35 152.545C156.6 145.597 152.708 140.396 147.814 135.853C147.758 135.909 147.688 135.953 147.63 136.008C146.505 137.309 145.785 137.715 144.286 139.366C143.914 139.775 144.057 139.792 143.784 139.762C149.028 144.162 151.298 147.147 151.951 153.206C153.807 170.401 144.689 174.697 144.327 174.859C142.932 175.447 142.249 177.13 142.799 178.618C143.35 180.107 144.93 180.835 146.325 180.245C146.873 180.016 159.703 174.348 157.35 152.545Z" fill="#B6E2DA"/>
<path d="M139.894 189.797C134.251 189.1 130.207 183.658 130.86 177.642C131.514 171.625 136.619 167.314 142.261 168.01C147.905 168.708 151.95 174.151 151.295 180.166C150.641 186.183 145.536 190.494 139.894 189.797Z" fill="#E4E9EF"/>
<path d="M140.407 185.07C137.213 184.675 134.924 181.594 135.293 178.189C135.664 174.783 138.554 172.344 141.748 172.738C144.943 173.133 147.231 176.212 146.861 179.619C146.49 183.023 143.601 185.464 140.407 185.07Z" stroke="#8A9FC6" stroke-width="0.832"/>
</svg>
