<svg width="75" height="139" viewBox="0 0 75 139" fill="none" xmlns="http://www.w3.org/2000/svg">
<path d="M0 33.7313L0 99.5V102.06C0 112.263 13.4872 115.914 18.6344 107.104L20.1818 104.456C21.9747 101.387 25.2619 99.5 28.8162 99.5H65C70.5228 99.5 75 95.0228 75 89.5L75 45.5C75 39.9771 70.5229 35.5 65 35.5H28.5035C25.1189 35.5 21.964 33.7879 20.1193 30.9502L18.3842 28.2811C12.959 19.9353 0 23.7772 0 33.7313Z" fill="#FBFBFB"/>
<g clip-path="url(#clip0_72_4369)">
<path d="M49.4701 59.5828L36.6666 71.4461V84.25C36.6666 84.5815 36.7837 84.8995 36.992 85.1339C37.2004 85.3683 37.483 85.5 37.7777 85.5L45.5597 85.4773C45.8534 85.4757 46.1346 85.3433 46.3417 85.109C46.5489 84.8748 46.6652 84.5578 46.6652 84.2273V76.75C46.6652 76.4185 46.7823 76.1005 46.9907 75.8661C47.199 75.6317 47.4816 75.5 47.7763 75.5H52.2208C52.5155 75.5 52.7981 75.6317 53.0064 75.8661C53.2148 76.1005 53.3319 76.4185 53.3319 76.75V84.2219C53.3314 84.3864 53.3598 84.5493 53.4155 84.7014C53.4711 84.8535 53.5529 84.9918 53.6561 85.1083C53.7593 85.2248 53.882 85.3172 54.017 85.3803C54.152 85.4433 54.2968 85.4758 54.443 85.4758L62.2222 85.5C62.5168 85.5 62.7995 85.3683 63.0078 85.1339C63.2162 84.8995 63.3333 84.5815 63.3333 84.25V71.4375L50.5326 59.5828C50.3821 59.4463 50.1946 59.3719 50.0013 59.3719C49.808 59.3719 49.6206 59.4463 49.4701 59.5828ZM69.6944 67.6461L63.8888 62.2625V51.4414C63.8888 51.1928 63.801 50.9543 63.6447 50.7785C63.4885 50.6027 63.2765 50.5039 63.0555 50.5039H59.1666C58.9456 50.5039 58.7336 50.6027 58.5773 50.7785C58.4211 50.9543 58.3333 51.1928 58.3333 51.4414V57.1141L52.1159 51.3594C51.5193 50.807 50.7706 50.505 49.9979 50.505C49.2252 50.505 48.4765 50.807 47.8798 51.3594L30.3013 67.6461C30.2169 67.7246 30.1471 67.821 30.0959 67.9298C30.0446 68.0386 30.0129 68.1577 30.0026 68.2804C29.9923 68.403 30.0036 68.5267 30.0357 68.6444C30.0679 68.7621 30.1204 68.8715 30.1902 68.9664L31.9611 71.3883C32.0307 71.4835 32.1163 71.5623 32.213 71.6203C32.3097 71.6782 32.4157 71.7141 32.5247 71.726C32.6338 71.7378 32.7439 71.7253 32.8487 71.6892C32.9534 71.6531 33.0509 71.5941 33.1354 71.5156L49.4701 56.3797C49.6206 56.2432 49.808 56.1688 50.0013 56.1688C50.1946 56.1688 50.3821 56.2432 50.5326 56.3797L66.868 71.5156C66.9523 71.5941 67.0496 71.6532 67.1542 71.6894C67.2589 71.7256 67.3688 71.7383 67.4778 71.7267C67.5868 71.7151 67.6927 71.6794 67.7894 71.6218C67.8862 71.5641 67.9719 71.4856 68.0416 71.3906L69.8124 68.9688C69.8822 68.8733 69.9344 68.7633 69.9662 68.6451C69.9981 68.5269 70.0088 68.4027 69.9978 68.2798C69.9868 68.1569 69.9544 68.0376 69.9023 67.9289C69.8502 67.8201 69.7796 67.724 69.6944 67.6461Z" fill="#005D8F"/>
</g>
<defs>
<clipPath id="clip0_72_4369">
<rect width="40" height="40" fill="white" transform="translate(30 48)"/>
</clipPath>
</defs>
</svg>
