<svg width="147" height="204" viewBox="0 0 147 204" fill="none" xmlns="http://www.w3.org/2000/svg">
<path d="M146.557 175.096L145.232 57.4043L144.915 29.2268C144.808 19.697 132.696 15.6746 126.943 23.2583L103.703 53.8933C101.837 56.3537 98.9348 57.8096 95.8429 57.8366L10.6457 58.5824C5.1231 58.6308 0.696506 63.1468 0.758665 68.6693L1.58044 141.68C1.6426 147.202 6.16997 151.64 11.6926 151.592L97.21 150.843C100.119 150.818 102.898 152.06 104.822 154.246L129.058 181.78C135.19 188.747 146.661 184.365 146.557 175.096Z" fill="#FBFBFB"/>
<path d="M24.3812 130.055C24.3812 129.239 24.5652 128.507 24.9332 127.859C25.3012 127.203 25.8012 126.691 26.4332 126.323C27.0732 125.955 27.7812 125.771 28.5572 125.771C29.4692 125.771 30.2652 125.991 30.9452 126.431C31.6252 126.871 32.1212 127.495 32.4332 128.303H31.1252C30.8932 127.799 30.5572 127.411 30.1172 127.139C29.6852 126.867 29.1652 126.731 28.5572 126.731C27.9732 126.731 27.4492 126.867 26.9852 127.139C26.5212 127.411 26.1572 127.799 25.8932 128.303C25.6292 128.799 25.4972 129.383 25.4972 130.055C25.4972 130.719 25.6292 131.303 25.8932 131.807C26.1572 132.303 26.5212 132.687 26.9852 132.959C27.4492 133.231 27.9732 133.367 28.5572 133.367C29.1652 133.367 29.6852 133.235 30.1172 132.971C30.5572 132.699 30.8932 132.311 31.1252 131.807H32.4332C32.1212 132.607 31.6252 133.227 30.9452 133.667C30.2652 134.099 29.4692 134.315 28.5572 134.315C27.7812 134.315 27.0732 134.135 26.4332 133.775C25.8012 133.407 25.3012 132.899 24.9332 132.251C24.5652 131.603 24.3812 130.871 24.3812 130.055ZM36.9268 134.351C36.3108 134.351 35.7508 134.211 35.2468 133.931C34.7508 133.651 34.3588 133.255 34.0708 132.743C33.7908 132.223 33.6508 131.623 33.6508 130.943C33.6508 130.271 33.7948 129.679 34.0828 129.167C34.3788 128.647 34.7788 128.251 35.2828 127.979C35.7868 127.699 36.3508 127.559 36.9748 127.559C37.5988 127.559 38.1628 127.699 38.6668 127.979C39.1708 128.251 39.5668 128.643 39.8548 129.155C40.1508 129.667 40.2988 130.263 40.2988 130.943C40.2988 131.623 40.1468 132.223 39.8428 132.743C39.5468 133.255 39.1428 133.651 38.6308 133.931C38.1188 134.211 37.5508 134.351 36.9268 134.351ZM36.9268 133.391C37.3188 133.391 37.6868 133.299 38.0308 133.115C38.3748 132.931 38.6508 132.655 38.8588 132.287C39.0748 131.919 39.1828 131.471 39.1828 130.943C39.1828 130.415 39.0788 129.967 38.8708 129.599C38.6628 129.231 38.3908 128.959 38.0548 128.783C37.7188 128.599 37.3548 128.507 36.9628 128.507C36.5628 128.507 36.1948 128.599 35.8588 128.783C35.5308 128.959 35.2668 129.231 35.0668 129.599C34.8668 129.967 34.7668 130.415 34.7668 130.943C34.7668 131.479 34.8628 131.931 35.0548 132.299C35.2548 132.667 35.5188 132.943 35.8468 133.127C36.1748 133.303 36.5348 133.391 36.9268 133.391ZM44.9385 127.547C45.7385 127.547 46.3865 127.791 46.8825 128.279C47.3785 128.759 47.6265 129.455 47.6265 130.367V134.243H46.5465V130.523C46.5465 129.867 46.3825 129.367 46.0545 129.023C45.7265 128.671 45.2785 128.495 44.7105 128.495C44.1345 128.495 43.6745 128.675 43.3305 129.035C42.9945 129.395 42.8265 129.919 42.8265 130.607V134.243H41.7345V127.667H42.8265V128.603C43.0425 128.267 43.3345 128.007 43.7025 127.823C44.0785 127.639 44.4905 127.547 44.9385 127.547ZM51.7383 134.351C51.2343 134.351 50.7823 134.267 50.3823 134.099C49.9823 133.923 49.6663 133.683 49.4343 133.379C49.2023 133.067 49.0743 132.711 49.0503 132.311H50.1783C50.2103 132.639 50.3623 132.907 50.6343 133.115C50.9143 133.323 51.2783 133.427 51.7263 133.427C52.1423 133.427 52.4703 133.335 52.7103 133.151C52.9503 132.967 53.0703 132.735 53.0703 132.455C53.0703 132.167 52.9423 131.955 52.6863 131.819C52.4303 131.675 52.0343 131.535 51.4983 131.399C51.0103 131.271 50.6103 131.143 50.2983 131.015C49.9943 130.879 49.7303 130.683 49.5063 130.427C49.2903 130.163 49.1823 129.819 49.1823 129.395C49.1823 129.059 49.2823 128.751 49.4823 128.471C49.6823 128.191 49.9663 127.971 50.3343 127.811C50.7023 127.643 51.1223 127.559 51.5943 127.559C52.3223 127.559 52.9103 127.743 53.3583 128.111C53.8063 128.479 54.0463 128.983 54.0783 129.623H52.9863C52.9623 129.279 52.8223 129.003 52.5663 128.795C52.3183 128.587 51.9823 128.483 51.5583 128.483C51.1663 128.483 50.8543 128.567 50.6223 128.735C50.3903 128.903 50.2743 129.123 50.2743 129.395C50.2743 129.611 50.3423 129.791 50.4783 129.935C50.6223 130.071 50.7983 130.183 51.0063 130.271C51.2223 130.351 51.5183 130.443 51.8943 130.547C52.3663 130.675 52.7503 130.803 53.0463 130.931C53.3423 131.051 53.5943 131.235 53.8023 131.483C54.0183 131.731 54.1303 132.055 54.1383 132.455C54.1383 132.815 54.0383 133.139 53.8383 133.427C53.6383 133.715 53.3543 133.943 52.9863 134.111C52.6263 134.271 52.2103 134.351 51.7383 134.351ZM61.5119 127.667V134.243H60.4199V133.271C60.2119 133.607 59.9199 133.871 59.5439 134.063C59.1759 134.247 58.7679 134.339 58.3199 134.339C57.8079 134.339 57.3479 134.235 56.9399 134.027C56.5319 133.811 56.2079 133.491 55.9679 133.067C55.7359 132.643 55.6199 132.127 55.6199 131.519V127.667H56.6999V131.375C56.6999 132.023 56.8639 132.523 57.1919 132.875C57.5199 133.219 57.9679 133.391 58.5359 133.391C59.1199 133.391 59.5799 133.211 59.9159 132.851C60.2519 132.491 60.4199 131.967 60.4199 131.279V127.667H61.5119ZM64.4476 125.363V134.243H63.3556V125.363H64.4476ZM67.6408 128.567V132.443C67.6408 132.763 67.7088 132.991 67.8448 133.127C67.9808 133.255 68.2168 133.319 68.5528 133.319H69.3568V134.243H68.3728C67.7648 134.243 67.3088 134.103 67.0048 133.823C66.7008 133.543 66.5488 133.083 66.5488 132.443V128.567H65.6968V127.667H66.5488V126.011H67.6408V127.667H69.3568V128.567H67.6408ZM70.2719 130.931C70.2719 130.259 70.4079 129.671 70.6799 129.167C70.9519 128.655 71.3239 128.259 71.7959 127.979C72.2759 127.699 72.8079 127.559 73.3919 127.559C73.9679 127.559 74.4679 127.683 74.8919 127.931C75.3159 128.179 75.6319 128.491 75.8399 128.867V127.667H76.9439V134.243H75.8399V133.019C75.6239 133.403 75.2999 133.723 74.8679 133.979C74.4439 134.227 73.9479 134.351 73.3799 134.351C72.7959 134.351 72.2679 134.207 71.7959 133.919C71.3239 133.631 70.9519 133.227 70.6799 132.707C70.4079 132.187 70.2719 131.595 70.2719 130.931ZM75.8399 130.943C75.8399 130.447 75.7399 130.015 75.5399 129.647C75.3399 129.279 75.0679 128.999 74.7239 128.807C74.3879 128.607 74.0159 128.507 73.6079 128.507C73.1999 128.507 72.8279 128.603 72.4919 128.795C72.1559 128.987 71.8879 129.267 71.6879 129.635C71.4879 130.003 71.3879 130.435 71.3879 130.931C71.3879 131.435 71.4879 131.875 71.6879 132.251C71.8879 132.619 72.1559 132.903 72.4919 133.103C72.8279 133.295 73.1999 133.391 73.6079 133.391C74.0159 133.391 74.3879 133.295 74.7239 133.103C75.0679 132.903 75.3399 132.619 75.5399 132.251C75.7399 131.875 75.8399 131.439 75.8399 130.943ZM81.1172 134.351C80.6132 134.351 80.1612 134.267 79.7612 134.099C79.3612 133.923 79.0452 133.683 78.8132 133.379C78.5812 133.067 78.4532 132.711 78.4292 132.311H79.5572C79.5892 132.639 79.7412 132.907 80.0132 133.115C80.2932 133.323 80.6572 133.427 81.1052 133.427C81.5212 133.427 81.8492 133.335 82.0892 133.151C82.3292 132.967 82.4492 132.735 82.4492 132.455C82.4492 132.167 82.3212 131.955 82.0652 131.819C81.8092 131.675 81.4132 131.535 80.8772 131.399C80.3892 131.271 79.9892 131.143 79.6772 131.015C79.3732 130.879 79.1092 130.683 78.8852 130.427C78.6692 130.163 78.5612 129.819 78.5612 129.395C78.5612 129.059 78.6612 128.751 78.8612 128.471C79.0612 128.191 79.3452 127.971 79.7132 127.811C80.0812 127.643 80.5012 127.559 80.9732 127.559C81.7012 127.559 82.2892 127.743 82.7372 128.111C83.1852 128.479 83.4252 128.983 83.4572 129.623H82.3652C82.3412 129.279 82.2012 129.003 81.9452 128.795C81.6972 128.587 81.3612 128.483 80.9372 128.483C80.5452 128.483 80.2332 128.567 80.0012 128.735C79.7692 128.903 79.6532 129.123 79.6532 129.395C79.6532 129.611 79.7212 129.791 79.8572 129.935C80.0012 130.071 80.1772 130.183 80.3852 130.271C80.6012 130.351 80.8972 130.443 81.2732 130.547C81.7452 130.675 82.1292 130.803 82.4252 130.931C82.7212 131.051 82.9732 131.235 83.1812 131.483C83.3972 131.731 83.5092 132.055 83.5172 132.455C83.5172 132.815 83.4172 133.139 83.2172 133.427C83.0172 133.715 82.7332 133.943 82.3652 134.111C82.0052 134.271 81.5892 134.351 81.1172 134.351Z" fill="#005D8F"/>
<path fill-rule="evenodd" clip-rule="evenodd" d="M27.5316 77.3233C27.1911 77.6619 26.9999 78.1211 27 78.5998C27.0001 79.0785 27.1916 79.5376 27.5324 79.876C27.8731 80.2144 28.3351 80.4044 28.8168 80.4042C29.2985 80.4041 29.7605 80.2138 30.101 79.8752L31.3849 78.5992L37.8044 84.9789L32.6688 90.0842C32.4954 90.2507 32.357 90.4498 32.2619 90.67C32.1667 90.8902 32.1166 91.127 32.1146 91.3666C32.1125 91.6062 32.1584 91.8438 32.2497 92.0656C32.341 92.2874 32.4759 92.4889 32.6464 92.6583C32.8169 92.8278 33.0196 92.9618 33.2428 93.0525C33.466 93.1432 33.7051 93.1889 33.9462 93.1868C34.1873 93.1848 34.4256 93.135 34.6472 93.0404C34.8687 92.9459 35.0691 92.8084 35.2366 92.636L37.8044 90.0842L59.6372 111.781C60.8866 113.023 62.4732 113.875 64.2028 114.235C65.9324 114.594 67.7298 114.444 69.3749 113.803L71.1956 115.611C71.6462 116.059 72.2077 116.381 72.8235 116.545C73.4394 116.709 74.0878 116.709 74.7036 116.545L78.899 120.714C79.0676 120.882 79.2678 121.015 79.4882 121.106C79.7085 121.197 79.9447 121.243 80.1832 121.243C80.4217 121.243 80.6579 121.197 80.8783 121.106C81.0987 121.016 81.2989 120.883 81.4676 120.715C81.6363 120.548 81.7702 120.349 81.8615 120.13C81.9529 119.911 81.9999 119.676 82 119.439C82.0001 119.202 81.9532 118.967 81.862 118.748C81.7708 118.529 81.637 118.33 81.4684 118.162L77.2714 113.991C77.4363 113.379 77.4361 112.735 77.2708 112.123C77.1054 111.511 76.7808 110.953 76.3296 110.505L74.5121 108.697C75.1574 107.063 75.3088 105.276 74.9478 103.557C74.5868 101.838 73.729 100.261 72.4795 99.0188L50.6467 77.3218L53.2161 74.7699C53.3848 74.6022 53.5186 74.4032 53.6099 74.1841C53.7012 73.9651 53.7482 73.7303 53.7482 73.4932C53.7482 73.2561 53.7012 73.0213 53.6099 72.8022C53.5186 72.5832 53.3848 72.3841 53.2161 72.2165C53.0474 72.0488 52.8471 71.9158 52.6267 71.8251C52.4062 71.7343 52.17 71.6876 51.9314 71.6876C51.6928 71.6876 51.4565 71.7343 51.2361 71.8251C51.0157 71.9158 50.8154 72.0488 50.6467 72.2165L45.5111 77.3218L39.0915 70.9421L40.3738 69.6662C40.5425 69.4986 40.6764 69.2997 40.7677 69.0807C40.8591 68.8617 40.9061 68.627 40.9062 68.39C40.9063 68.153 40.8594 67.9183 40.7682 67.6992C40.677 67.4802 40.5432 67.2812 40.3746 67.1135C40.206 66.9459 40.0058 66.8129 39.7855 66.7221C39.5652 66.6313 39.329 66.5845 39.0905 66.5845C38.852 66.5844 38.6158 66.631 38.3954 66.7217C38.175 66.8123 37.9747 66.9452 37.806 67.1128L27.5316 77.3233V77.3233ZM43.2901 79.5273L36.8705 73.1477L33.6058 76.3921L40.0254 82.7718L43.2901 79.5273V79.5273ZM48.4273 79.5273L40.0238 87.8786L46.9394 94.7512L55.3429 86.3999L48.4273 79.5289V79.5273ZM49.5088 97.3046L53.3605 101.132L56.2783 98.2327C56.447 98.0651 56.6473 97.9322 56.8677 97.8416C57.0881 97.7509 57.3243 97.7043 57.5628 97.7044C57.8013 97.7045 58.0375 97.7512 58.2578 97.842C58.4782 97.9328 58.6783 98.0658 58.8469 98.2334C59.0155 98.4011 59.1493 98.6001 59.2405 98.8191C59.3317 99.0382 59.3786 99.2729 59.3785 99.5099C59.3785 99.747 59.3314 99.9817 59.2401 100.201C59.1487 100.42 59.0149 100.619 58.8462 100.786L55.9299 103.686L58.4977 106.238L61.414 103.336C61.5827 103.169 61.783 103.036 62.0034 102.945C62.2238 102.854 62.4601 102.808 62.6987 102.808C62.9373 102.808 63.1735 102.854 63.3939 102.945C63.6144 103.036 63.8147 103.169 63.9834 103.336C64.1521 103.504 64.2859 103.703 64.3772 103.922C64.4685 104.141 64.5155 104.376 64.5155 104.613C64.5155 104.85 64.4685 105.085 64.3772 105.304C64.2859 105.523 64.1521 105.722 63.9834 105.89L61.0655 108.79L61.8566 109.576C62.6745 110.389 63.7135 110.947 64.8461 111.182C65.9786 111.416 67.1554 111.317 68.2322 110.897L71.5895 107.56C72.0124 106.49 72.1117 105.321 71.8753 104.195C71.6389 103.07 71.077 102.037 70.2585 101.224L57.9107 88.9533L49.5088 97.3046V97.3046ZM74.1542 112.761C74.1412 112.743 74.1271 112.727 74.1118 112.711L72.8185 111.426C72.5983 111.669 72.3652 111.9 72.12 112.118L73.4134 113.405C73.4291 113.421 73.4463 113.435 73.4636 113.447C73.6264 113.16 73.8653 112.923 74.1542 112.761V112.761Z" fill="#005D8F"/>
</svg>
