<svg width="70" height="70" viewBox="0 0 70 70" fill="none" xmlns="http://www.w3.org/2000/svg">
<path d="M11.6667 11.6667V58.3333C11.6667 59.8804 12.2812 61.3642 13.3752 62.4581C14.4692 63.5521 15.9529 64.1667 17.5 64.1667H52.5C54.0471 64.1667 55.5308 63.5521 56.6248 62.4581C57.7187 61.3642 58.3333 59.8804 58.3333 58.3333V24.3308C58.3332 23.5537 58.1779 22.7844 57.8763 22.0682C57.5748 21.352 57.1332 20.7032 56.5775 20.16L43.6275 7.49583C42.5377 6.43025 41.0742 5.83352 39.55 5.83333H17.5C15.9529 5.83333 14.4692 6.44791 13.3752 7.54187C12.2812 8.63583 11.6667 10.1196 11.6667 11.6667V11.6667Z" stroke="#0077B6" stroke-width="3" stroke-linecap="round" stroke-linejoin="round"/>
<path d="M40.8333 5.83333V17.5C40.8333 19.0471 41.4479 20.5308 42.5419 21.6248C43.6358 22.7187 45.1196 23.3333 46.6667 23.3333H58.3333" stroke="#0077B6" stroke-width="3" stroke-linejoin="round"/>
</svg>
