<svg width="96" height="69" viewBox="0 0 96 69" fill="none" xmlns="http://www.w3.org/2000/svg">
<path d="M18.3812 63.812C18.3812 62.996 18.5652 62.264 18.9332 61.616C19.3012 60.96 19.8012 60.448 20.4332 60.08C21.0732 59.712 21.7812 59.528 22.5572 59.528C23.4692 59.528 24.2652 59.748 24.9452 60.188C25.6252 60.628 26.1212 61.252 26.4332 62.06H25.1252C24.8932 61.556 24.5572 61.168 24.1172 60.896C23.6852 60.624 23.1652 60.488 22.5572 60.488C21.9732 60.488 21.4492 60.624 20.9852 60.896C20.5212 61.168 20.1572 61.556 19.8932 62.06C19.6292 62.556 19.4972 63.14 19.4972 63.812C19.4972 64.476 19.6292 65.06 19.8932 65.564C20.1572 66.06 20.5212 66.444 20.9852 66.716C21.4492 66.988 21.9732 67.124 22.5572 67.124C23.1652 67.124 23.6852 66.992 24.1172 66.728C24.5572 66.456 24.8932 66.068 25.1252 65.564H26.4332C26.1212 66.364 25.6252 66.984 24.9452 67.424C24.2652 67.856 23.4692 68.072 22.5572 68.072C21.7812 68.072 21.0732 67.892 20.4332 67.532C19.8012 67.164 19.3012 66.656 18.9332 66.008C18.5652 65.36 18.3812 64.628 18.3812 63.812ZM30.9268 68.108C30.3108 68.108 29.7508 67.968 29.2468 67.688C28.7508 67.408 28.3588 67.012 28.0708 66.5C27.7908 65.98 27.6508 65.38 27.6508 64.7C27.6508 64.028 27.7948 63.436 28.0828 62.924C28.3788 62.404 28.7788 62.008 29.2828 61.736C29.7868 61.456 30.3508 61.316 30.9748 61.316C31.5988 61.316 32.1628 61.456 32.6668 61.736C33.1708 62.008 33.5668 62.4 33.8548 62.912C34.1508 63.424 34.2988 64.02 34.2988 64.7C34.2988 65.38 34.1468 65.98 33.8428 66.5C33.5468 67.012 33.1428 67.408 32.6308 67.688C32.1188 67.968 31.5508 68.108 30.9268 68.108ZM30.9268 67.148C31.3188 67.148 31.6868 67.056 32.0308 66.872C32.3748 66.688 32.6508 66.412 32.8588 66.044C33.0748 65.676 33.1828 65.228 33.1828 64.7C33.1828 64.172 33.0788 63.724 32.8708 63.356C32.6628 62.988 32.3908 62.716 32.0548 62.54C31.7188 62.356 31.3548 62.264 30.9628 62.264C30.5628 62.264 30.1948 62.356 29.8588 62.54C29.5308 62.716 29.2668 62.988 29.0668 63.356C28.8668 63.724 28.7668 64.172 28.7668 64.7C28.7668 65.236 28.8628 65.688 29.0548 66.056C29.2548 66.424 29.5188 66.7 29.8468 66.884C30.1748 67.06 30.5348 67.148 30.9268 67.148ZM38.9385 61.304C39.7385 61.304 40.3865 61.548 40.8825 62.036C41.3785 62.516 41.6265 63.212 41.6265 64.124V68H40.5465V64.28C40.5465 63.624 40.3825 63.124 40.0545 62.78C39.7265 62.428 39.2785 62.252 38.7105 62.252C38.1345 62.252 37.6745 62.432 37.3305 62.792C36.9945 63.152 36.8265 63.676 36.8265 64.364V68H35.7345V61.424H36.8265V62.36C37.0425 62.024 37.3345 61.764 37.7025 61.58C38.0785 61.396 38.4905 61.304 38.9385 61.304ZM45.7383 68.108C45.2343 68.108 44.7823 68.024 44.3823 67.856C43.9823 67.68 43.6663 67.44 43.4343 67.136C43.2023 66.824 43.0743 66.468 43.0503 66.068H44.1783C44.2103 66.396 44.3623 66.664 44.6343 66.872C44.9143 67.08 45.2783 67.184 45.7263 67.184C46.1423 67.184 46.4703 67.092 46.7103 66.908C46.9503 66.724 47.0703 66.492 47.0703 66.212C47.0703 65.924 46.9423 65.712 46.6863 65.576C46.4303 65.432 46.0343 65.292 45.4983 65.156C45.0103 65.028 44.6103 64.9 44.2983 64.772C43.9943 64.636 43.7303 64.44 43.5063 64.184C43.2903 63.92 43.1823 63.576 43.1823 63.152C43.1823 62.816 43.2823 62.508 43.4823 62.228C43.6823 61.948 43.9663 61.728 44.3343 61.568C44.7023 61.4 45.1223 61.316 45.5943 61.316C46.3223 61.316 46.9103 61.5 47.3583 61.868C47.8063 62.236 48.0463 62.74 48.0783 63.38H46.9863C46.9623 63.036 46.8223 62.76 46.5663 62.552C46.3183 62.344 45.9823 62.24 45.5583 62.24C45.1663 62.24 44.8543 62.324 44.6223 62.492C44.3903 62.66 44.2743 62.88 44.2743 63.152C44.2743 63.368 44.3423 63.548 44.4783 63.692C44.6223 63.828 44.7983 63.94 45.0063 64.028C45.2223 64.108 45.5183 64.2 45.8943 64.304C46.3663 64.432 46.7503 64.56 47.0463 64.688C47.3423 64.808 47.5943 64.992 47.8023 65.24C48.0183 65.488 48.1303 65.812 48.1383 66.212C48.1383 66.572 48.0383 66.896 47.8383 67.184C47.6383 67.472 47.3543 67.7 46.9863 67.868C46.6263 68.028 46.2103 68.108 45.7383 68.108ZM55.5119 61.424V68H54.4199V67.028C54.2119 67.364 53.9199 67.628 53.5439 67.82C53.1759 68.004 52.7679 68.096 52.3199 68.096C51.8079 68.096 51.3479 67.992 50.9399 67.784C50.5319 67.568 50.2079 67.248 49.9679 66.824C49.7359 66.4 49.6199 65.884 49.6199 65.276V61.424H50.6999V65.132C50.6999 65.78 50.8639 66.28 51.1919 66.632C51.5199 66.976 51.9679 67.148 52.5359 67.148C53.1199 67.148 53.5799 66.968 53.9159 66.608C54.2519 66.248 54.4199 65.724 54.4199 65.036V61.424H55.5119ZM58.4476 59.12V68H57.3556V59.12H58.4476ZM61.6408 62.324V66.2C61.6408 66.52 61.7088 66.748 61.8448 66.884C61.9808 67.012 62.2168 67.076 62.5528 67.076H63.3568V68H62.3728C61.7648 68 61.3088 67.86 61.0048 67.58C60.7008 67.3 60.5488 66.84 60.5488 66.2V62.324H59.6968V61.424H60.5488V59.768H61.6408V61.424H63.3568V62.324H61.6408ZM64.2719 64.688C64.2719 64.016 64.4079 63.428 64.6799 62.924C64.9519 62.412 65.3239 62.016 65.7959 61.736C66.2759 61.456 66.8079 61.316 67.3919 61.316C67.9679 61.316 68.4679 61.44 68.8919 61.688C69.3159 61.936 69.6319 62.248 69.8399 62.624V61.424H70.9439V68H69.8399V66.776C69.6239 67.16 69.2999 67.48 68.8679 67.736C68.4439 67.984 67.9479 68.108 67.3799 68.108C66.7959 68.108 66.2679 67.964 65.7959 67.676C65.3239 67.388 64.9519 66.984 64.6799 66.464C64.4079 65.944 64.2719 65.352 64.2719 64.688ZM69.8399 64.7C69.8399 64.204 69.7399 63.772 69.5399 63.404C69.3399 63.036 69.0679 62.756 68.7239 62.564C68.3879 62.364 68.0159 62.264 67.6079 62.264C67.1999 62.264 66.8279 62.36 66.4919 62.552C66.1559 62.744 65.8879 63.024 65.6879 63.392C65.4879 63.76 65.3879 64.192 65.3879 64.688C65.3879 65.192 65.4879 65.632 65.6879 66.008C65.8879 66.376 66.1559 66.66 66.4919 66.86C66.8279 67.052 67.1999 67.148 67.6079 67.148C68.0159 67.148 68.3879 67.052 68.7239 66.86C69.0679 66.66 69.3399 66.376 69.5399 66.008C69.7399 65.632 69.8399 65.196 69.8399 64.7ZM75.1172 68.108C74.6132 68.108 74.1612 68.024 73.7612 67.856C73.3612 67.68 73.0452 67.44 72.8132 67.136C72.5812 66.824 72.4532 66.468 72.4292 66.068H73.5572C73.5892 66.396 73.7412 66.664 74.0132 66.872C74.2932 67.08 74.6572 67.184 75.1052 67.184C75.5212 67.184 75.8492 67.092 76.0892 66.908C76.3292 66.724 76.4492 66.492 76.4492 66.212C76.4492 65.924 76.3212 65.712 76.0652 65.576C75.8092 65.432 75.4132 65.292 74.8772 65.156C74.3892 65.028 73.9892 64.9 73.6772 64.772C73.3732 64.636 73.1092 64.44 72.8852 64.184C72.6692 63.92 72.5612 63.576 72.5612 63.152C72.5612 62.816 72.6612 62.508 72.8612 62.228C73.0612 61.948 73.3452 61.728 73.7132 61.568C74.0812 61.4 74.5012 61.316 74.9732 61.316C75.7012 61.316 76.2892 61.5 76.7372 61.868C77.1852 62.236 77.4252 62.74 77.4572 63.38H76.3652C76.3412 63.036 76.2012 62.76 75.9452 62.552C75.6972 62.344 75.3612 62.24 74.9372 62.24C74.5452 62.24 74.2332 62.324 74.0012 62.492C73.7692 62.66 73.6532 62.88 73.6532 63.152C73.6532 63.368 73.7212 63.548 73.8572 63.692C74.0012 63.828 74.1772 63.94 74.3852 64.028C74.6012 64.108 74.8972 64.2 75.2732 64.304C75.7452 64.432 76.1292 64.56 76.4252 64.688C76.7212 64.808 76.9732 64.992 77.1812 65.24C77.3972 65.488 77.5092 65.812 77.5172 66.212C77.5172 66.572 77.4172 66.896 77.2172 67.184C77.0172 67.472 76.7332 67.7 76.3652 67.868C76.0052 68.028 75.5892 68.108 75.1172 68.108Z" fill="#005D8F"/>
<path fill-rule="evenodd" clip-rule="evenodd" d="M21.5316 10.8059C21.1911 11.1466 20.9999 11.6086 21 12.0903C21.0001 12.572 21.1916 13.0339 21.5324 13.3744C21.8731 13.7149 22.3351 13.9062 22.8168 13.906C23.2985 13.9059 23.7605 13.7144 24.101 13.3736L25.3849 12.0898L31.8044 18.5092L26.6688 23.6464C26.4954 23.8139 26.357 24.0143 26.2619 24.2358C26.1667 24.4574 26.1166 24.6957 26.1146 24.9368C26.1125 25.1779 26.1584 25.417 26.2497 25.6402C26.341 25.8633 26.4759 26.0661 26.6464 26.2366C26.8169 26.4071 27.0196 26.5419 27.2428 26.6332C27.466 26.7245 27.7051 26.7705 27.9462 26.7684C28.1873 26.7663 28.4256 26.7162 28.6472 26.6211C28.8687 26.5259 29.0691 26.3876 29.2366 26.2141L31.8044 23.6464L53.6372 45.4788C54.8866 46.7282 56.4732 47.5861 58.2028 47.9474C59.9324 48.3087 61.7298 48.1577 63.3749 47.513L65.1956 49.3321C65.6462 49.783 66.2077 50.1073 66.8235 50.2723C67.4394 50.4374 68.0878 50.4373 68.7036 50.2722L72.899 54.4676C73.0676 54.6363 73.2678 54.7702 73.4882 54.8615C73.7085 54.9529 73.9447 54.9999 74.1832 55C74.4217 55.0001 74.6579 54.9532 74.8783 54.862C75.0987 54.7708 75.2989 54.637 75.4676 54.4684C75.6363 54.2998 75.7702 54.0996 75.8615 53.8793C75.9529 53.659 75.9999 53.4228 76 53.1843C76.0001 52.9458 75.9532 52.7096 75.862 52.4892C75.7708 52.2688 75.637 52.0686 75.4684 51.8999L71.2714 47.7029C71.4363 47.087 71.4361 46.4385 71.2708 45.8227C71.1054 45.2069 70.7808 44.6455 70.3296 44.1949L68.5121 42.3758C69.1574 40.7307 69.3088 38.9331 68.9478 37.2033C68.5868 35.4734 67.729 33.8864 66.4795 32.6368L44.6467 10.8043L47.2161 8.2365C47.3848 8.0678 47.5186 7.86751 47.6099 7.64709C47.7012 7.42666 47.7482 7.19041 47.7482 6.95183C47.7482 6.71324 47.7012 6.47699 47.6099 6.25656C47.5186 6.03614 47.3848 5.83586 47.2161 5.66715C47.0474 5.49844 46.8471 5.36462 46.6267 5.27331C46.4062 5.18201 46.17 5.13502 45.9314 5.13502C45.6928 5.13502 45.4565 5.18201 45.2361 5.27331C45.0157 5.36462 44.8154 5.49844 44.6467 5.66715L39.5111 10.8043L33.0915 4.38482L34.3738 3.10093C34.5425 2.93233 34.6764 2.73215 34.7677 2.51182C34.8591 2.29149 34.9061 2.05532 34.9062 1.81681C34.9063 1.5783 34.8594 1.3421 34.7682 1.12172C34.677 0.901331 34.5432 0.701068 34.3746 0.532361C34.206 0.363655 34.0058 0.229809 33.7855 0.138467C33.5652 0.0471242 33.329 7.2954e-05 33.0905 8.47711e-08C32.852 -7.27844e-05 32.6158 0.0468338 32.3954 0.138042C32.175 0.22925 31.9747 0.362973 31.806 0.531576L21.5316 10.8059ZM37.2901 13.0236L30.8705 6.60417L27.6058 9.86884L34.0254 16.2883L37.2901 13.0236ZM42.4273 13.0236L34.0238 21.427L40.9394 28.3425L49.3429 19.9391L42.4273 13.0252V13.0236ZM43.5088 30.9118L47.3605 34.7635L50.2783 31.8457C50.447 31.6771 50.6473 31.5434 50.8677 31.4522C51.0881 31.361 51.3243 31.314 51.5628 31.3141C51.8013 31.3142 52.0375 31.3612 52.2578 31.4526C52.4781 31.5439 52.6783 31.6778 52.8469 31.8465C53.0155 32.0152 53.1493 32.2155 53.2405 32.4358C53.3317 32.6562 53.3786 32.8924 53.3785 33.1309C53.3785 33.3694 53.3314 33.6056 53.2401 33.8259C53.1487 34.0463 53.0149 34.2465 52.8462 34.4151L49.9299 37.3329L52.4977 39.9006L55.414 36.9813C55.5827 36.8126 55.783 36.6787 56.0034 36.5874C56.2238 36.4961 56.4601 36.4491 56.6987 36.4491C56.9373 36.4491 57.1735 36.4961 57.3939 36.5874C57.6144 36.6787 57.8147 36.8126 57.9834 36.9813C58.1521 37.15 58.2859 37.3503 58.3772 37.5707C58.4685 37.7911 58.5155 38.0274 58.5155 38.2659C58.5155 38.5045 58.4685 38.7408 58.3772 38.9612C58.2859 39.1816 58.1521 39.3819 57.9834 39.5506L55.0655 42.4684L55.8566 43.2595C56.6745 44.0776 57.7135 44.6392 58.8461 44.8754C59.9786 45.1115 61.1554 45.012 62.2322 44.5889L65.5895 41.2316C66.0124 40.1547 66.1117 38.9778 65.8753 37.8453C65.6389 36.7127 65.077 35.6739 64.2585 34.8561L51.9107 22.5084L43.5088 30.9118ZM68.1542 46.4645C68.1412 46.4468 68.1271 46.43 68.1118 46.4143L66.8185 45.121C66.5983 45.3656 66.3652 45.5982 66.12 45.8178L67.4134 47.1127C67.4291 47.1284 67.4463 47.1425 67.4636 47.1551C67.6264 46.8662 67.8653 46.6273 68.1542 46.4645Z" fill="#005D8F"/>
</svg>
