<svg width="96" height="69" viewBox="0 0 96 69" fill="none" xmlns="http://www.w3.org/2000/svg">
<path d="M20.3617 62.084C20.3617 62.78 20.1217 63.36 19.6417 63.824C19.1697 64.28 18.4457 64.508 17.4697 64.508H15.8617V68H14.7697V59.636H17.4697C18.4137 59.636 19.1297 59.864 19.6177 60.32C20.1137 60.776 20.3617 61.364 20.3617 62.084ZM17.4697 63.608C18.0777 63.608 18.5257 63.476 18.8137 63.212C19.1017 62.948 19.2457 62.572 19.2457 62.084C19.2457 61.052 18.6537 60.536 17.4697 60.536H15.8617V63.608H17.4697ZM22.8109 62.492C23.0029 62.116 23.2749 61.824 23.6269 61.616C23.9869 61.408 24.4229 61.304 24.9349 61.304V62.432H24.6469C23.4229 62.432 22.8109 63.096 22.8109 64.424V68H21.7189V61.424H22.8109V62.492ZM29.0635 68.108C28.4475 68.108 27.8875 67.968 27.3835 67.688C26.8875 67.408 26.4955 67.012 26.2075 66.5C25.9275 65.98 25.7875 65.38 25.7875 64.7C25.7875 64.028 25.9315 63.436 26.2195 62.924C26.5155 62.404 26.9155 62.008 27.4195 61.736C27.9235 61.456 28.4875 61.316 29.1115 61.316C29.7355 61.316 30.2995 61.456 30.8035 61.736C31.3075 62.008 31.7035 62.4 31.9915 62.912C32.2875 63.424 32.4355 64.02 32.4355 64.7C32.4355 65.38 32.2835 65.98 31.9795 66.5C31.6835 67.012 31.2795 67.408 30.7675 67.688C30.2555 67.968 29.6875 68.108 29.0635 68.108ZM29.0635 67.148C29.4555 67.148 29.8235 67.056 30.1675 66.872C30.5115 66.688 30.7875 66.412 30.9955 66.044C31.2115 65.676 31.3195 65.228 31.3195 64.7C31.3195 64.172 31.2155 63.724 31.0075 63.356C30.7995 62.988 30.5275 62.716 30.1915 62.54C29.8555 62.356 29.4915 62.264 29.0995 62.264C28.6995 62.264 28.3315 62.356 27.9955 62.54C27.6675 62.716 27.4035 62.988 27.2035 63.356C27.0035 63.724 26.9035 64.172 26.9035 64.7C26.9035 65.236 26.9995 65.688 27.1915 66.056C27.3915 66.424 27.6555 66.7 27.9835 66.884C28.3115 67.06 28.6715 67.148 29.0635 67.148ZM37.0753 61.304C37.8753 61.304 38.5233 61.548 39.0193 62.036C39.5153 62.516 39.7633 63.212 39.7633 64.124V68H38.6833V64.28C38.6833 63.624 38.5193 63.124 38.1913 62.78C37.8633 62.428 37.4153 62.252 36.8473 62.252C36.2713 62.252 35.8113 62.432 35.4673 62.792C35.1313 63.152 34.9633 63.676 34.9633 64.364V68H33.8713V61.424H34.9633V62.36C35.1793 62.024 35.4713 61.764 35.8393 61.58C36.2153 61.396 36.6273 61.304 37.0753 61.304ZM42.879 62.324V66.2C42.879 66.52 42.947 66.748 43.083 66.884C43.219 67.012 43.455 67.076 43.791 67.076H44.595V68H43.611C43.003 68 42.547 67.86 42.243 67.58C41.939 67.3 41.787 66.84 41.787 66.2V62.324H40.935V61.424H41.787V59.768H42.879V61.424H44.595V62.324H42.879ZM51.7501 61.424V68H50.6581V67.028C50.4501 67.364 50.1581 67.628 49.7821 67.82C49.4141 68.004 49.0061 68.096 48.5581 68.096C48.0461 68.096 47.5861 67.992 47.1781 67.784C46.7701 67.568 46.4461 67.248 46.2061 66.824C45.9741 66.4 45.8581 65.884 45.8581 65.276V61.424H46.9381V65.132C46.9381 65.78 47.1021 66.28 47.4301 66.632C47.7581 66.976 48.2061 67.148 48.7741 67.148C49.3581 67.148 49.8181 66.968 50.1541 66.608C50.4901 66.248 50.6581 65.724 50.6581 65.036V61.424H51.7501ZM53.1859 64.688C53.1859 64.016 53.3219 63.428 53.5939 62.924C53.8659 62.412 54.2379 62.016 54.7099 61.736C55.1899 61.456 55.7219 61.316 56.3059 61.316C56.8819 61.316 57.3819 61.44 57.8059 61.688C58.2299 61.936 58.5459 62.248 58.7539 62.624V61.424H59.8579V68H58.7539V66.776C58.5379 67.16 58.2139 67.48 57.7819 67.736C57.3579 67.984 56.8619 68.108 56.2939 68.108C55.7099 68.108 55.1819 67.964 54.7099 67.676C54.2379 67.388 53.8659 66.984 53.5939 66.464C53.3219 65.944 53.1859 65.352 53.1859 64.688ZM58.7539 64.7C58.7539 64.204 58.6539 63.772 58.4539 63.404C58.2539 63.036 57.9819 62.756 57.6379 62.564C57.3019 62.364 56.9299 62.264 56.5219 62.264C56.1139 62.264 55.7419 62.36 55.4059 62.552C55.0699 62.744 54.8019 63.024 54.6019 63.392C54.4019 63.76 54.3019 64.192 54.3019 64.688C54.3019 65.192 54.4019 65.632 54.6019 66.008C54.8019 66.376 55.0699 66.66 55.4059 66.86C55.7419 67.052 56.1139 67.148 56.5219 67.148C56.9299 67.148 57.3019 67.052 57.6379 66.86C57.9819 66.66 58.2539 66.376 58.4539 66.008C58.6539 65.632 58.7539 65.196 58.7539 64.7ZM57.9019 59.564L55.3459 60.932V60.116L57.9019 58.616V59.564ZM62.7953 62.492C62.9873 62.116 63.2593 61.824 63.6113 61.616C63.9713 61.408 64.4073 61.304 64.9193 61.304V62.432H64.6313C63.4073 62.432 62.7953 63.096 62.7953 64.424V68H61.7033V61.424H62.7953V62.492ZM66.7439 60.356C66.5359 60.356 66.3599 60.284 66.2159 60.14C66.0719 59.996 65.9999 59.82 65.9999 59.612C65.9999 59.404 66.0719 59.228 66.2159 59.084C66.3599 58.94 66.5359 58.868 66.7439 58.868C66.9439 58.868 67.1119 58.94 67.2479 59.084C67.3919 59.228 67.4639 59.404 67.4639 59.612C67.4639 59.82 67.3919 59.996 67.2479 60.14C67.1119 60.284 66.9439 60.356 66.7439 60.356ZM67.2719 61.424V68H66.1799V61.424H67.2719ZM72.001 68.108C71.385 68.108 70.825 67.968 70.321 67.688C69.825 67.408 69.433 67.012 69.145 66.5C68.865 65.98 68.725 65.38 68.725 64.7C68.725 64.028 68.869 63.436 69.157 62.924C69.453 62.404 69.853 62.008 70.357 61.736C70.861 61.456 71.425 61.316 72.049 61.316C72.673 61.316 73.237 61.456 73.741 61.736C74.245 62.008 74.641 62.4 74.929 62.912C75.225 63.424 75.373 64.02 75.373 64.7C75.373 65.38 75.221 65.98 74.917 66.5C74.621 67.012 74.217 67.408 73.705 67.688C73.193 67.968 72.625 68.108 72.001 68.108ZM72.001 67.148C72.393 67.148 72.761 67.056 73.105 66.872C73.449 66.688 73.725 66.412 73.933 66.044C74.149 65.676 74.257 65.228 74.257 64.7C74.257 64.172 74.153 63.724 73.945 63.356C73.737 62.988 73.465 62.716 73.129 62.54C72.793 62.356 72.429 62.264 72.037 62.264C71.637 62.264 71.269 62.356 70.933 62.54C70.605 62.716 70.341 62.988 70.141 63.356C69.941 63.724 69.841 64.172 69.841 64.7C69.841 65.236 69.937 65.688 70.129 66.056C70.329 66.424 70.593 66.7 70.921 66.884C71.249 67.06 71.609 67.148 72.001 67.148ZM79.1368 68.108C78.6328 68.108 78.1808 68.024 77.7808 67.856C77.3808 67.68 77.0648 67.44 76.8328 67.136C76.6008 66.824 76.4728 66.468 76.4488 66.068H77.5768C77.6088 66.396 77.7608 66.664 78.0328 66.872C78.3128 67.08 78.6768 67.184 79.1248 67.184C79.5408 67.184 79.8688 67.092 80.1088 66.908C80.3488 66.724 80.4688 66.492 80.4688 66.212C80.4688 65.924 80.3408 65.712 80.0848 65.576C79.8288 65.432 79.4328 65.292 78.8968 65.156C78.4088 65.028 78.0088 64.9 77.6968 64.772C77.3928 64.636 77.1288 64.44 76.9048 64.184C76.6888 63.92 76.5808 63.576 76.5808 63.152C76.5808 62.816 76.6808 62.508 76.8808 62.228C77.0808 61.948 77.3648 61.728 77.7328 61.568C78.1008 61.4 78.5208 61.316 78.9928 61.316C79.7208 61.316 80.3088 61.5 80.7568 61.868C81.2048 62.236 81.4448 62.74 81.4768 63.38H80.3848C80.3608 63.036 80.2208 62.76 79.9648 62.552C79.7168 62.344 79.3808 62.24 78.9568 62.24C78.5648 62.24 78.2528 62.324 78.0208 62.492C77.7888 62.66 77.6728 62.88 77.6728 63.152C77.6728 63.368 77.7408 63.548 77.8768 63.692C78.0208 63.828 78.1968 63.94 78.4048 64.028C78.6208 64.108 78.9168 64.2 79.2928 64.304C79.7648 64.432 80.1488 64.56 80.4448 64.688C80.7408 64.808 80.9928 64.992 81.2008 65.24C81.4168 65.488 81.5288 65.812 81.5368 66.212C81.5368 66.572 81.4368 66.896 81.2368 67.184C81.0368 67.472 80.7528 67.7 80.3848 67.868C80.0248 68.028 79.6088 68.108 79.1368 68.108Z" fill="white"/>
<path d="M65.7486 7.63886H62.25V10.6944H65.3056V48.8889H31.6945V10.6944H34.75V7.63886H31.6945C31.3203 7.58475 30.939 7.61059 30.5755 7.71469C30.2121 7.81879 29.8749 7.99878 29.5861 8.24278C29.2974 8.48678 29.0637 8.78924 28.9004 9.1302C28.7371 9.47116 28.648 9.84287 28.6389 10.2208V49.3625C28.6409 49.7036 28.7101 50.0409 28.8425 50.3552C28.9748 50.6696 29.1678 50.9548 29.4104 51.1945C29.653 51.4343 29.9405 51.6239 30.2563 51.7526C30.5722 51.8812 30.9103 51.9464 31.2514 51.9444H65.7486C66.0897 51.9464 66.4278 51.8812 66.7437 51.7526C67.0596 51.6239 67.347 51.4343 67.5896 51.1945C67.8322 50.9548 68.0252 50.6696 68.1576 50.3552C68.29 50.0409 68.3591 49.7036 68.3611 49.3625V10.2208C68.3591 9.87973 68.29 9.54239 68.1576 9.22805C68.0252 8.9137 67.8322 8.62851 67.5896 8.38875C67.347 8.149 67.0596 7.95937 66.7437 7.83071C66.4278 7.70204 66.0897 7.63685 65.7486 7.63886Z" fill="white"/>
<path d="M60.7223 11.1985C60.7183 10.2556 60.3419 9.35254 59.6752 8.68583C59.0085 8.01913 58.1054 7.64279 57.1626 7.63877H54.4126C54.076 6.32425 53.3115 5.15913 52.2396 4.3271C51.1677 3.49507 49.8493 3.04346 48.4924 3.04346C47.1355 3.04346 45.8172 3.49507 44.7453 4.3271C43.6733 5.15913 42.9088 6.32425 42.5723 7.63877H39.8376C38.8947 7.64279 37.9916 8.01913 37.3249 8.68583C36.6582 9.35254 36.2819 10.2556 36.2778 11.1985V16.8054H60.7223V11.1985ZM57.6667 13.7499H39.3334V11.1985C39.3334 11.1323 39.3464 11.0667 39.3718 11.0056C39.3971 10.9444 39.4342 10.8888 39.4811 10.842C39.5279 10.7952 39.5834 10.758 39.6446 10.7327C39.7058 10.7074 39.7713 10.6943 39.8376 10.6943H45.4445V9.16655C45.4445 8.35617 45.7664 7.57897 46.3394 7.00595C46.9125 6.43292 47.6897 6.111 48.5001 6.111C49.3104 6.111 50.0876 6.43292 50.6607 7.00595C51.2337 7.57897 51.5556 8.35617 51.5556 9.16655V10.6943H57.1626C57.2963 10.6943 57.4245 10.7474 57.5191 10.842C57.6136 10.9365 57.6667 11.0648 57.6667 11.1985V13.7499Z" fill="white"/>
<path d="M37.8055 21.3889H59.1944V24.4445H37.8055V21.3889Z" fill="white"/>
<path d="M37.8055 27.5H59.1944V30.5556H37.8055V27.5Z" fill="white"/>
<path d="M37.8055 33.6111H59.1944V36.6666H37.8055V33.6111Z" fill="white"/>
<path d="M37.8055 39.7222H59.1944V42.7777H37.8055V39.7222Z" fill="white"/>
</svg>
