<svg width="96" height="72" viewBox="0 0 96 72" fill="none" xmlns="http://www.w3.org/2000/svg">
<path d="M56.0938 51.5625C53.3743 51.5625 50.7158 50.7561 48.4547 49.2452C46.1935 47.7343 44.4311 45.5869 43.3904 43.0744C42.3497 40.5619 42.0774 37.7973 42.608 35.13C43.1385 32.4628 44.4481 30.0128 46.371 28.0898C48.294 26.1668 50.744 24.8573 53.4113 24.3267C56.0785 23.7962 58.8432 24.0685 61.3557 25.1092C63.8681 26.1499 66.0156 27.9122 67.5265 30.1734C69.0373 32.4346 69.8438 35.093 69.8438 37.8125C69.8438 41.4592 68.3951 44.9566 65.8165 47.5352C63.2379 50.1138 59.7405 51.5625 56.0938 51.5625ZM56.0938 27.5C54.0541 27.5 52.0603 28.1048 50.3644 29.238C48.6686 30.3711 47.3468 31.9817 46.5662 33.8661C45.7857 35.7504 45.5815 37.8239 45.9794 39.8244C46.3773 41.8248 47.3595 43.6623 48.8017 45.1045C50.2439 46.5468 52.0815 47.5289 54.0819 47.9269C56.0823 48.3248 58.1558 48.1205 60.0402 47.34C61.9245 46.5595 63.5351 45.2377 64.6683 43.5418C65.8014 41.8459 66.4063 39.8521 66.4063 37.8125C66.4063 35.0775 65.3198 32.4544 63.3858 30.5205C61.4518 28.5865 58.8288 27.5 56.0938 27.5Z" fill="white"/>
<path d="M58.8266 42.9688L54.375 38.5172V30.9375H57.8125V37.1078L61.25 40.5453L58.8266 42.9688Z" fill="white"/>
<path d="M68.875 9.89904C68.875 9.04218 68.5062 8.22043 67.8499 7.61454C67.1935 7.00865 66.3033 6.66827 65.375 6.66827H58.375V3.4375H54.875V6.66827H40.875V3.4375H37.375V6.66827H30.375C29.4467 6.66827 28.5565 7.00865 27.9001 7.61454C27.2437 8.22043 26.875 9.04218 26.875 9.89904V42.2067C26.875 43.0636 27.2437 43.8853 27.9001 44.4912C28.5565 45.0971 29.4467 45.4375 30.375 45.4375H37.375V42.2067H30.375V9.89904H37.375V13.1298H40.875V9.89904H54.875V13.1298H58.375V9.89904H65.375V19.5913H68.875V9.89904Z" fill="white"/>
<path d="M10.3387 66.14H6.6907L6.0187 68H4.8667L7.8907 59.684H9.1507L12.1627 68H11.0107L10.3387 66.14ZM10.0267 65.252L8.5147 61.028L7.0027 65.252H10.0267ZM16.1926 61.316C16.7606 61.316 17.2566 61.44 17.6806 61.688C18.1126 61.936 18.4326 62.248 18.6406 62.624V61.424H19.7446V68.144C19.7446 68.744 19.6166 69.276 19.3606 69.74C19.1046 70.212 18.7366 70.58 18.2566 70.844C17.7846 71.108 17.2326 71.24 16.6006 71.24C15.7366 71.24 15.0166 71.036 14.4406 70.628C13.8646 70.22 13.5246 69.664 13.4206 68.96H14.5006C14.6206 69.36 14.8686 69.68 15.2446 69.92C15.6206 70.168 16.0726 70.292 16.6006 70.292C17.2006 70.292 17.6886 70.104 18.0646 69.728C18.4486 69.352 18.6406 68.824 18.6406 68.144V66.764C18.4246 67.148 18.1046 67.468 17.6806 67.724C17.2566 67.98 16.7606 68.108 16.1926 68.108C15.6086 68.108 15.0766 67.964 14.5966 67.676C14.1246 67.388 13.7526 66.984 13.4806 66.464C13.2086 65.944 13.0726 65.352 13.0726 64.688C13.0726 64.016 13.2086 63.428 13.4806 62.924C13.7526 62.412 14.1246 62.016 14.5966 61.736C15.0766 61.456 15.6086 61.316 16.1926 61.316ZM18.6406 64.7C18.6406 64.204 18.5406 63.772 18.3406 63.404C18.1406 63.036 17.8686 62.756 17.5246 62.564C17.1886 62.364 16.8166 62.264 16.4086 62.264C16.0006 62.264 15.6286 62.36 15.2926 62.552C14.9566 62.744 14.6886 63.024 14.4886 63.392C14.2886 63.76 14.1886 64.192 14.1886 64.688C14.1886 65.192 14.2886 65.632 14.4886 66.008C14.6886 66.376 14.9566 66.66 15.2926 66.86C15.6286 67.052 16.0006 67.148 16.4086 67.148C16.8166 67.148 17.1886 67.052 17.5246 66.86C17.8686 66.66 18.1406 66.376 18.3406 66.008C18.5406 65.632 18.6406 65.196 18.6406 64.7ZM27.59 64.46C27.59 64.668 27.578 64.888 27.554 65.12H22.298C22.338 65.768 22.558 66.276 22.958 66.644C23.366 67.004 23.858 67.184 24.434 67.184C24.906 67.184 25.298 67.076 25.61 66.86C25.93 66.636 26.154 66.34 26.282 65.972H27.458C27.282 66.604 26.93 67.12 26.402 67.52C25.874 67.912 25.218 68.108 24.434 68.108C23.81 68.108 23.25 67.968 22.754 67.688C22.266 67.408 21.882 67.012 21.602 66.5C21.322 65.98 21.182 65.38 21.182 64.7C21.182 64.02 21.318 63.424 21.59 62.912C21.862 62.4 22.242 62.008 22.73 61.736C23.226 61.456 23.794 61.316 24.434 61.316C25.058 61.316 25.61 61.452 26.09 61.724C26.57 61.996 26.938 62.372 27.194 62.852C27.458 63.324 27.59 63.86 27.59 64.46ZM26.462 64.232C26.462 63.816 26.37 63.46 26.186 63.164C26.002 62.86 25.75 62.632 25.43 62.48C25.118 62.32 24.77 62.24 24.386 62.24C23.834 62.24 23.362 62.416 22.97 62.768C22.586 63.12 22.366 63.608 22.31 64.232H26.462ZM32.2354 61.304C33.0354 61.304 33.6834 61.548 34.1794 62.036C34.6754 62.516 34.9234 63.212 34.9234 64.124V68H33.8434V64.28C33.8434 63.624 33.6794 63.124 33.3514 62.78C33.0234 62.428 32.5754 62.252 32.0074 62.252C31.4314 62.252 30.9714 62.432 30.6274 62.792C30.2914 63.152 30.1234 63.676 30.1234 64.364V68H29.0314V61.424H30.1234V62.36C30.3394 62.024 30.6314 61.764 30.9994 61.58C31.3754 61.396 31.7874 61.304 32.2354 61.304ZM36.2992 64.688C36.2992 64.016 36.4352 63.428 36.7072 62.924C36.9792 62.412 37.3512 62.016 37.8232 61.736C38.3032 61.456 38.8392 61.316 39.4312 61.316C39.9432 61.316 40.4192 61.436 40.8592 61.676C41.2992 61.908 41.6352 62.216 41.8672 62.6V59.12H42.9712V68H41.8672V66.764C41.6512 67.156 41.3312 67.48 40.9072 67.736C40.4832 67.984 39.9872 68.108 39.4192 68.108C38.8352 68.108 38.3032 67.964 37.8232 67.676C37.3512 67.388 36.9792 66.984 36.7072 66.464C36.4352 65.944 36.2992 65.352 36.2992 64.688ZM41.8672 64.7C41.8672 64.204 41.7672 63.772 41.5672 63.404C41.3672 63.036 41.0952 62.756 40.7512 62.564C40.4152 62.364 40.0432 62.264 39.6352 62.264C39.2272 62.264 38.8552 62.36 38.5192 62.552C38.1832 62.744 37.9152 63.024 37.7152 63.392C37.5152 63.76 37.4152 64.192 37.4152 64.688C37.4152 65.192 37.5152 65.632 37.7152 66.008C37.9152 66.376 38.1832 66.66 38.5192 66.86C38.8552 67.052 39.2272 67.148 39.6352 67.148C40.0432 67.148 40.4152 67.052 40.7512 66.86C41.0952 66.66 41.3672 66.376 41.5672 66.008C41.7672 65.632 41.8672 65.196 41.8672 64.7ZM44.4086 64.688C44.4086 64.016 44.5446 63.428 44.8166 62.924C45.0886 62.412 45.4606 62.016 45.9326 61.736C46.4126 61.456 46.9446 61.316 47.5286 61.316C48.1046 61.316 48.6046 61.44 49.0286 61.688C49.4526 61.936 49.7686 62.248 49.9766 62.624V61.424H51.0806V68H49.9766V66.776C49.7606 67.16 49.4366 67.48 49.0046 67.736C48.5806 67.984 48.0846 68.108 47.5166 68.108C46.9326 68.108 46.4046 67.964 45.9326 67.676C45.4606 67.388 45.0886 66.984 44.8166 66.464C44.5446 65.944 44.4086 65.352 44.4086 64.688ZM49.9766 64.7C49.9766 64.204 49.8766 63.772 49.6766 63.404C49.4766 63.036 49.2046 62.756 48.8606 62.564C48.5246 62.364 48.1526 62.264 47.7446 62.264C47.3366 62.264 46.9646 62.36 46.6286 62.552C46.2926 62.744 46.0246 63.024 45.8246 63.392C45.6246 63.76 45.5246 64.192 45.5246 64.688C45.5246 65.192 45.6246 65.632 45.8246 66.008C46.0246 66.376 46.2926 66.66 46.6286 66.86C46.9646 67.052 47.3366 67.148 47.7446 67.148C48.1526 67.148 48.5246 67.052 48.8606 66.86C49.2046 66.66 49.4766 66.376 49.6766 66.008C49.8766 65.632 49.9766 65.196 49.9766 64.7ZM60.834 61.304C61.346 61.304 61.802 61.412 62.202 61.628C62.602 61.836 62.918 62.152 63.15 62.576C63.382 63 63.498 63.516 63.498 64.124V68H62.418V64.28C62.418 63.624 62.254 63.124 61.926 62.78C61.606 62.428 61.17 62.252 60.618 62.252C60.05 62.252 59.598 62.436 59.262 62.804C58.926 63.164 58.758 63.688 58.758 64.376V68H57.678V64.28C57.678 63.624 57.514 63.124 57.186 62.78C56.866 62.428 56.43 62.252 55.878 62.252C55.31 62.252 54.858 62.436 54.522 62.804C54.186 63.164 54.018 63.688 54.018 64.376V68H52.926V61.424H54.018V62.372C54.234 62.028 54.522 61.764 54.882 61.58C55.25 61.396 55.654 61.304 56.094 61.304C56.646 61.304 57.134 61.428 57.558 61.676C57.982 61.924 58.298 62.288 58.506 62.768C58.69 62.304 58.994 61.944 59.418 61.688C59.842 61.432 60.314 61.304 60.834 61.304ZM71.2892 64.46C71.2892 64.668 71.2772 64.888 71.2532 65.12H65.9972C66.0372 65.768 66.2572 66.276 66.6572 66.644C67.0652 67.004 67.5572 67.184 68.1332 67.184C68.6052 67.184 68.9972 67.076 69.3092 66.86C69.6292 66.636 69.8532 66.34 69.9812 65.972H71.1572C70.9812 66.604 70.6292 67.12 70.1012 67.52C69.5732 67.912 68.9172 68.108 68.1332 68.108C67.5092 68.108 66.9492 67.968 66.4532 67.688C65.9652 67.408 65.5812 67.012 65.3012 66.5C65.0212 65.98 64.8812 65.38 64.8812 64.7C64.8812 64.02 65.0172 63.424 65.2892 62.912C65.5612 62.4 65.9412 62.008 66.4292 61.736C66.9252 61.456 67.4932 61.316 68.1332 61.316C68.7572 61.316 69.3092 61.452 69.7892 61.724C70.2692 61.996 70.6372 62.372 70.8932 62.852C71.1572 63.324 71.2892 63.86 71.2892 64.46ZM70.1612 64.232C70.1612 63.816 70.0692 63.46 69.8852 63.164C69.7012 62.86 69.4492 62.632 69.1292 62.48C68.8172 62.32 68.4692 62.24 68.0852 62.24C67.5332 62.24 67.0612 62.416 66.6692 62.768C66.2852 63.12 66.0652 63.608 66.0092 64.232H70.1612ZM75.9346 61.304C76.7346 61.304 77.3826 61.548 77.8786 62.036C78.3746 62.516 78.6226 63.212 78.6226 64.124V68H77.5426V64.28C77.5426 63.624 77.3786 63.124 77.0506 62.78C76.7226 62.428 76.2746 62.252 75.7066 62.252C75.1306 62.252 74.6706 62.432 74.3266 62.792C73.9906 63.152 73.8226 63.676 73.8226 64.364V68H72.7306V61.424H73.8226V62.36C74.0386 62.024 74.3306 61.764 74.6986 61.58C75.0746 61.396 75.4866 61.304 75.9346 61.304ZM81.7384 62.324V66.2C81.7384 66.52 81.8064 66.748 81.9424 66.884C82.0784 67.012 82.3144 67.076 82.6504 67.076H83.4544V68H82.4704C81.8624 68 81.4064 67.86 81.1024 67.58C80.7984 67.3 80.6464 66.84 80.6464 66.2V62.324H79.7944V61.424H80.6464V59.768H81.7384V61.424H83.4544V62.324H81.7384ZM87.6455 68.108C87.0295 68.108 86.4695 67.968 85.9655 67.688C85.4695 67.408 85.0775 67.012 84.7895 66.5C84.5095 65.98 84.3695 65.38 84.3695 64.7C84.3695 64.028 84.5135 63.436 84.8015 62.924C85.0975 62.404 85.4975 62.008 86.0015 61.736C86.5055 61.456 87.0695 61.316 87.6935 61.316C88.3175 61.316 88.8815 61.456 89.3855 61.736C89.8895 62.008 90.2855 62.4 90.5735 62.912C90.8695 63.424 91.0175 64.02 91.0175 64.7C91.0175 65.38 90.8655 65.98 90.5615 66.5C90.2655 67.012 89.8615 67.408 89.3495 67.688C88.8375 67.968 88.2695 68.108 87.6455 68.108ZM87.6455 67.148C88.0375 67.148 88.4055 67.056 88.7495 66.872C89.0935 66.688 89.3695 66.412 89.5775 66.044C89.7935 65.676 89.9015 65.228 89.9015 64.7C89.9015 64.172 89.7975 63.724 89.5895 63.356C89.3815 62.988 89.1095 62.716 88.7735 62.54C88.4375 62.356 88.0735 62.264 87.6815 62.264C87.2815 62.264 86.9135 62.356 86.5775 62.54C86.2495 62.716 85.9855 62.988 85.7855 63.356C85.5855 63.724 85.4855 64.172 85.4855 64.7C85.4855 65.236 85.5815 65.688 85.7735 66.056C85.9735 66.424 86.2375 66.7 86.5655 66.884C86.8935 67.06 87.2535 67.148 87.6455 67.148Z" fill="white"/>
</svg>
