<svg width="214" height="38" viewBox="0 0 214 38" fill="none" xmlns="http://www.w3.org/2000/svg">
<path d="M25.883 0.792767V37.63H21.4969V20.9291H4.38614V37.63H0V0.792767H4.38614V16.9652H21.4969V0.792767H25.883Z" fill="#005D8F"/>
<path d="M48.6033 38C45.4865 38 42.6427 37.2072 40.0721 35.6217C37.5014 34.0009 35.461 31.7636 33.9508 28.9096C32.4726 26.0204 31.7336 22.7789 31.7336 19.185C31.7336 15.5911 32.4726 12.3672 33.9508 9.51321C35.461 6.62401 37.5014 4.38665 40.0721 2.80111C42.6427 1.18034 45.4865 0.369957 48.6033 0.369957C51.7524 0.369957 54.6122 1.18034 57.1828 2.80111C59.7535 4.38665 61.7778 6.6064 63.2559 9.46036C64.734 12.3143 65.4731 15.5559 65.4731 19.185C65.4731 22.8141 64.734 26.0556 63.2559 28.9096C61.7778 31.7636 59.7535 34.0009 57.1828 35.6217C54.6122 37.2072 51.7524 38 48.6033 38ZM48.6033 33.8248C50.949 33.8248 53.0538 33.2258 54.9175 32.0278C56.8133 30.8299 58.2914 29.121 59.3518 26.9013C60.4443 24.6815 60.9906 22.1094 60.9906 19.185C60.9906 16.2253 60.4443 13.6532 59.3518 11.4687C58.2914 9.24896 59.6959 3.99907 57.8322 2.80111C55.9685 1.60315 50.9812 4.5452 48.6033 4.5452C46.2255 4.5452 44.1047 5.14418 42.241 6.34214C40.3773 7.5401 38.8992 9.24896 37.8067 11.4687C36.7463 13.6532 36.2161 16.2253 36.2161 19.185C36.2161 22.1094 36.7463 24.6815 37.8067 26.9013C38.8992 29.121 37.2244 33.7543 39.0881 34.9522C40.9839 36.1502 46.2576 33.8248 48.6033 33.8248Z" fill="#005D8F"/>
<path d="M81.9155 38C79.6983 38 77.7061 37.5772 75.9388 36.7316C74.2036 35.8507 72.8379 34.6528 71.8418 33.1377C70.8457 31.5874 70.3316 29.8081 70.2994 27.7997H74.9748C75.1354 29.5262 75.7781 30.9884 76.9027 32.1864C78.0595 33.3491 79.7304 33.9305 81.9155 33.9305C84.0041 33.9305 85.6429 33.3667 86.8318 32.2392C88.0528 31.0765 88.6634 29.5967 88.6634 27.7997C88.6634 26.3904 88.3099 25.2453 87.603 24.3644C86.8961 23.4835 86.0124 22.8141 84.952 22.3561C83.8916 21.898 82.4617 21.4047 80.6623 20.8762C78.4451 20.242 76.6617 19.6078 75.3122 18.9736C73.9947 18.3394 72.854 17.3528 71.89 16.0139C70.9582 14.6398 70.4922 12.8076 70.4922 10.5174C70.4922 8.50904 70.9582 6.72972 71.89 5.17942C72.8219 3.62911 74.1232 2.43115 75.7942 1.58553C77.4972 0.739915 79.4412 0.317106 81.6263 0.317106C84.7753 0.317106 87.3459 1.18034 89.3382 2.90682C91.3625 4.63329 92.5032 6.9235 92.7603 9.77747H87.9404C87.7797 8.3681 87.1049 7.13491 85.916 6.07789C84.7271 4.98563 83.1526 4.4395 81.1925 4.4395C79.3609 4.4395 77.8667 4.96801 76.7099 6.02503C75.5532 7.04682 74.9748 8.49142 74.9748 10.3588C74.9748 11.6977 75.3122 12.79 75.9869 13.6356C76.6939 14.4812 77.9153 16.3427 73.2292 16.0139C68.5432 15.6851 80.9997 16.5072 82.8313 17.0709C85.0484 17.7404 86.8318 18.4098 88.1814 19.0793C89.531 19.7135 90.6877 20.7177 91.6517 22.0918C92.6157 23.4307 93.0977 25.2629 93.0977 27.5883C93.0977 29.3853 92.6639 31.0765 91.7963 32.662C90.9287 34.2476 89.6434 35.5336 87.9404 36.5202C86.2373 37.5067 84.229 38 81.9155 38Z" fill="#005D8F"/>
<path d="M122.013 11.9443C122.013 15.0097 121.049 17.5642 119.121 19.6077C117.225 21.6161 111.291 20.8762 107.37 20.8762L103.938 18.6564V38H99.5523V1.16268H110.397C114.189 1.16268 117.065 2.16685 119.025 4.1752C121.017 6.18354 122.013 8.77325 122.013 11.9443ZM107.37 20.8762C109.812 20.8762 114.639 18.0751 115.795 16.9123C116.952 15.7496 117.531 14.0936 117.531 11.9443C117.531 7.39912 115.153 5.12652 110.397 5.12652H103.938V18.6564L107.37 20.8762Z" fill="#005D8F"/>
<path d="M152.046 0.369957V8.61474H142.985V37.63H133.538V8.61474H124.573V0.369957H152.046Z" fill="#005D8F"/>
<path d="M164.988 8.66759V14.7455H175.833V22.6203H164.988V29.3324H177.279V37.63H155.541V0.369957H177.279V8.66759H164.988Z" fill="#005D8F"/>
<path d="M214 18.9207C214 15.2564 213.309 11.9972 211.927 9.14325C210.514 6.25405 208.521 4.01669 205.951 2.43115C203.38 0.810385 200.424 0 197.082 0C192.841 0 189.274 1.25081 186.382 3.75243C183.49 6.21882 181.626 9.58368 180.791 13.847H190.961C191.571 12.4376 192.423 11.363 193.515 10.6231C194.576 9.88317 195.813 9.51321 197.227 9.51321C199.412 9.51321 201.163 10.3764 202.48 12.1029C203.766 13.7942 204.408 16.0668 204.408 18.9207C204.408 21.8099 203.766 24.1178 202.48 25.8442C201.163 27.5355 199.412 28.3811 197.227 28.3811C195.813 28.3811 194.576 28.0111 193.515 27.2712C192.423 26.5313 191.571 25.4567 190.961 24.0473H180.791C181.626 28.3106 183.49 31.6931 186.382 34.1947C189.274 36.6611 192.841 37.8943 197.082 37.8943C200.424 37.8943 203.38 37.1015 205.951 35.516C208.521 33.8952 210.514 31.6579 211.927 28.8039C213.309 25.9147 214 22.6203 214 18.9207Z" fill="#005D8F"/>
</svg>
