<svg width="70" height="70" viewBox="0 0 70 70" fill="none" xmlns="http://www.w3.org/2000/svg">
<path d="M26.25 58.3333H17.5C14.4058 58.3333 11.4383 57.1042 9.25042 54.9162C7.06249 52.7283 5.83333 49.7609 5.83333 46.6667V20.4167C5.83333 17.3225 7.06249 14.355 9.25042 12.1671C11.4383 9.97916 14.4058 8.75 17.5 8.75H49.5833C52.6775 8.75 55.645 9.97916 57.8329 12.1671C60.0208 14.355 61.25 17.3225 61.25 20.4167V29.1667" stroke="#0077B6" stroke-width="4" stroke-linecap="round" stroke-linejoin="round"/>
<path d="M23.3333 5.83333V11.6667" stroke="#0077B6" stroke-width="4" stroke-linecap="round" stroke-linejoin="round"/>
<path d="M43.75 5.83333V11.6667" stroke="#0077B6" stroke-width="4" stroke-linecap="round" stroke-linejoin="round"/>
<path d="M5.83333 23.3333H61.25" stroke="#0077B6" stroke-width="4" stroke-linecap="round" stroke-linejoin="round"/>
<path d="M53.9583 45.6254L49.5833 50.0004" stroke="#0077B6" stroke-width="4" stroke-linecap="round" stroke-linejoin="round"/>
<path d="M49.5833 64.1667C57.6375 64.1667 64.1667 57.6375 64.1667 49.5833C64.1667 41.5292 57.6375 35 49.5833 35C41.5292 35 35 41.5292 35 49.5833C35 57.6375 41.5292 64.1667 49.5833 64.1667Z" stroke="#0077B6" stroke-width="4" stroke-linecap="round" stroke-linejoin="round"/>
</svg>
