<svg width="85" height="85" viewBox="0 0 85 85" fill="none" xmlns="http://www.w3.org/2000/svg">
<path d="M54.7452 11.3386C54.8442 11.125 54.8996 10.8939 54.9082 10.6586C54.9168 10.4234 54.8784 10.1888 54.7953 9.96855C54.7121 9.74831 54.5859 9.54687 54.424 9.37599C54.2621 9.20511 54.0677 9.06823 53.8523 8.97334C53.6369 8.87846 53.4047 8.82748 53.1693 8.82339C52.934 8.81929 52.7001 8.86217 52.4815 8.9495C52.263 9.03684 52.064 9.16688 51.8962 9.33203C51.7285 9.49717 51.5953 9.69411 51.5046 9.91131L51.4975 9.92548L51.4745 9.9786C51.3211 10.3238 51.1641 10.6674 51.0034 11.0092C48.9706 15.3639 46.7491 19.628 44.3451 23.7893C39.9534 31.3667 34.1787 39.7569 28.3492 43.9591C20.6567 49.4806 18.3439 56.27 19.9643 61.9543C21.5509 67.5236 26.8085 71.4938 33.0153 71.4938H38.7333C39.9671 71.4938 41.1504 71.9839 42.0228 72.8564C42.8952 73.7288 43.3853 74.912 43.3853 76.1458H46.927C46.927 73.9727 46.0637 71.8886 44.5271 70.352C42.9905 68.8154 40.9064 67.9522 38.7333 67.9522H37.7133C38.11 67.3572 38.7439 66.7746 39.7073 66.3265C41.4675 65.5049 44.4531 65.0869 49.1812 66.1849C49.4082 66.2388 49.6435 66.2473 49.8738 66.2099C50.104 66.1726 50.3246 66.0902 50.5229 65.9674C50.7212 65.8445 50.8932 65.6838 51.0292 65.4942C51.1652 65.3047 51.2624 65.0902 51.3152 64.863C51.368 64.6359 51.3754 64.4005 51.337 64.1704C51.2986 63.9403 51.2152 63.7201 51.0914 63.5224C50.9677 63.3247 50.8061 63.1534 50.616 63.0183C50.4258 62.8832 50.2109 62.787 49.9834 62.7353C44.7967 61.5311 40.9345 61.8445 38.2092 63.116C35.8061 64.2369 34.393 66.0627 33.8511 67.9504H33.0153C28.3279 67.9504 24.5064 64.9701 23.3713 60.9821C22.2663 57.1093 23.5856 51.7366 30.4157 46.835L30.4193 46.8332C36.9182 42.1493 43.0117 33.1535 47.4104 25.5655C49.8682 21.3108 52.1394 16.951 54.2175 12.4985C54.3837 12.1406 54.5478 11.7817 54.7098 11.4218L54.7363 11.3616L54.7452 11.3421V11.3386L53.1249 10.625L54.7452 11.3386Z" fill="#0077B6"/>
<path d="M63.3178 61.9632C62.397 65.6642 60.1002 69.0093 57.6033 70.5659L55.728 67.5573C57.2899 66.5833 59.1333 64.1095 59.8789 61.1079C60.6031 58.1913 60.2242 55.0729 57.8247 52.5813L60.3747 50.1234C63.8225 53.704 64.2564 58.1754 63.3143 61.9614L63.3178 61.9632Z" fill="#0077B6"/>
</svg>
