<svg width="61" height="62" viewBox="0 0 61 62" fill="none" xmlns="http://www.w3.org/2000/svg">
<path fill-rule="evenodd" clip-rule="evenodd" d="M13.1021 7.92081C12.8761 8.14694 12.7492 8.45357 12.7493 8.77326C12.7494 9.09295 12.8765 9.39951 13.1026 9.6255C13.3287 9.85148 13.6353 9.97839 13.955 9.97829C14.2747 9.97819 14.5813 9.8511 14.8073 9.62498L15.6594 8.77289L19.9198 13.0333L16.5114 16.4427C16.3963 16.5539 16.3045 16.6869 16.2414 16.8339C16.1782 16.9809 16.145 17.1391 16.1436 17.2991C16.1422 17.4591 16.1727 17.6178 16.2333 17.7659C16.2939 17.914 16.3834 18.0486 16.4966 18.1617C16.6097 18.2749 16.7443 18.3644 16.8924 18.425C17.0405 18.4856 17.1992 18.5161 17.3592 18.5147C17.5192 18.5133 17.6774 18.4801 17.8244 18.4169C17.9714 18.3538 18.1044 18.262 18.2156 18.1469L19.9198 16.4427L34.4093 30.9323C35.2385 31.7615 36.2915 32.3308 37.4394 32.5706C38.5872 32.8104 39.7801 32.7102 40.8718 32.2823L42.0802 33.4896C42.3793 33.7888 42.7519 34.0041 43.1606 34.1136C43.5693 34.2231 43.9996 34.2231 44.4083 34.1135L47.1927 36.8979C47.3046 37.0099 47.4374 37.0987 47.5837 37.1593C47.7299 37.2199 47.8866 37.2512 48.0449 37.2512C48.2032 37.2513 48.36 37.2201 48.5062 37.1596C48.6525 37.0991 48.7854 37.0103 48.8974 36.8984C49.0093 36.7865 49.0982 36.6537 49.1588 36.5074C49.2194 36.3612 49.2506 36.2045 49.2507 36.0462C49.2507 35.8879 49.2196 35.7311 49.1591 35.5849C49.0985 35.4386 49.0098 35.3057 48.8979 35.1937L46.1125 32.4083C46.2219 31.9995 46.2218 31.5692 46.1121 31.1605C46.0023 30.7518 45.7869 30.3792 45.4875 30.0802L44.2812 28.8729C44.7095 27.7811 44.81 26.5881 44.5704 25.44C44.3308 24.2919 43.7615 23.2387 42.9323 22.4094L28.4427 7.91977L30.1479 6.2156C30.2599 6.10364 30.3487 5.97071 30.4093 5.82442C30.4699 5.67813 30.5011 5.52134 30.5011 5.363C30.5011 5.20465 30.4699 5.04786 30.4093 4.90157C30.3487 4.75528 30.2599 4.62236 30.1479 4.51039C30.0359 4.39843 29.903 4.30961 29.7567 4.24902C29.6104 4.18842 29.4536 4.15723 29.2953 4.15723C29.1369 4.15723 28.9801 4.18842 28.8339 4.24902C28.6876 4.30961 28.5546 4.39843 28.4427 4.51039L25.0344 7.91977L20.7739 3.65935L21.625 2.80727C21.7369 2.69537 21.8258 2.56252 21.8864 2.41629C21.947 2.27006 21.9782 2.11333 21.9783 1.95503C21.9783 1.79674 21.9472 1.63998 21.8867 1.49372C21.8261 1.34746 21.7374 1.21455 21.6255 1.10258C21.5136 0.990615 21.3807 0.901786 21.2345 0.841164C21.0883 0.780543 20.9316 0.749316 20.7733 0.749268C20.615 0.749219 20.4582 0.78035 20.3119 0.840882C20.1657 0.901414 20.0328 0.990162 19.9208 1.10206L13.1021 7.92081V7.92081ZM23.5604 9.39269L19.3 5.13227L17.1333 7.29894L21.3937 11.5594L23.5604 9.39269V9.39269ZM26.9698 9.39269L21.3927 14.9698L25.9823 19.5594L31.5594 13.9823L26.9698 9.39373V9.39269ZM27.6875 21.2646L30.2437 23.8208L32.1802 21.8844C32.2921 21.7725 32.4251 21.6837 32.5713 21.6232C32.7176 21.5626 32.8743 21.5315 33.0326 21.5316C33.1909 21.5316 33.3477 21.5628 33.4939 21.6235C33.6401 21.6841 33.773 21.7729 33.8849 21.8849C33.9968 21.9968 34.0855 22.1297 34.146 22.276C34.2066 22.4223 34.2377 22.579 34.2377 22.7373C34.2376 22.8956 34.2064 23.0524 34.1458 23.1986C34.0851 23.3448 33.9963 23.4777 33.8843 23.5896L31.9489 25.526L33.6531 27.2302L35.5885 25.2927C35.7005 25.1807 35.8334 25.0919 35.9797 25.0313C36.126 24.9707 36.2828 24.9395 36.4411 24.9395C36.5995 24.9395 36.7563 24.9707 36.9025 25.0313C37.0488 25.0919 37.1818 25.1807 37.2937 25.2927C37.4057 25.4047 37.4945 25.5376 37.5551 25.6839C37.6157 25.8302 37.6469 25.9869 37.6469 26.1453C37.6469 26.3036 37.6157 26.4604 37.5551 26.6067C37.4945 26.753 37.4057 26.8859 37.2937 26.9979L35.3573 28.9344L35.8823 29.4594C36.4251 30.0023 37.1146 30.3751 37.8663 30.5318C38.6179 30.6885 39.3989 30.6224 40.1135 30.3416L42.3416 28.1135C42.6223 27.3988 42.6882 26.6177 42.5313 25.8661C42.3744 25.1145 42.0015 24.425 41.4583 23.8823L33.2635 15.6875L27.6875 21.2646V21.2646ZM44.0437 31.5864C44.0351 31.5747 44.0257 31.5636 44.0156 31.5531L43.1573 30.6948C43.0111 30.8571 42.8564 31.0115 42.6937 31.1573L43.5521 32.0166C43.5625 32.0271 43.5739 32.0364 43.5854 32.0448C43.6934 31.853 43.852 31.6945 44.0437 31.5864V31.5864Z" fill="white"/>
<path d="M0.881234 52.812C0.881234 51.996 1.06523 51.264 1.43323 50.616C1.80123 49.96 2.30123 49.448 2.93323 49.08C3.57323 48.712 4.28123 48.528 5.05723 48.528C5.96923 48.528 6.76523 48.748 7.44523 49.188C8.12523 49.628 8.62123 50.252 8.93323 51.06H7.62523C7.39323 50.556 7.05723 50.168 6.61723 49.896C6.18523 49.624 5.66523 49.488 5.05723 49.488C4.47323 49.488 3.94923 49.624 3.48523 49.896C3.02123 50.168 2.65723 50.556 2.39323 51.06C2.12923 51.556 1.99723 52.14 1.99723 52.812C1.99723 53.476 2.12923 54.06 2.39323 54.564C2.65723 55.06 3.02123 55.444 3.48523 55.716C3.94923 55.988 4.47323 56.124 5.05723 56.124C5.66523 56.124 6.18523 55.992 6.61723 55.728C7.05723 55.456 7.39323 55.068 7.62523 54.564H8.93323C8.62123 55.364 8.12523 55.984 7.44523 56.424C6.76523 56.856 5.96923 57.072 5.05723 57.072C4.28123 57.072 3.57323 56.892 2.93323 56.532C2.30123 56.164 1.80123 55.656 1.43323 55.008C1.06523 54.36 0.881234 53.628 0.881234 52.812ZM13.4268 57.108C12.8108 57.108 12.2508 56.968 11.7468 56.688C11.2508 56.408 10.8588 56.012 10.5708 55.5C10.2908 54.98 10.1508 54.38 10.1508 53.7C10.1508 53.028 10.2948 52.436 10.5828 51.924C10.8788 51.404 11.2788 51.008 11.7828 50.736C12.2868 50.456 12.8508 50.316 13.4748 50.316C14.0988 50.316 14.6628 50.456 15.1668 50.736C15.6708 51.008 16.0668 51.4 16.3548 51.912C16.6508 52.424 16.7988 53.02 16.7988 53.7C16.7988 54.38 16.6468 54.98 16.3428 55.5C16.0468 56.012 15.6428 56.408 15.1308 56.688C14.6188 56.968 14.0508 57.108 13.4268 57.108ZM13.4268 56.148C13.8188 56.148 14.1868 56.056 14.5308 55.872C14.8748 55.688 15.1508 55.412 15.3588 55.044C15.5748 54.676 15.6828 54.228 15.6828 53.7C15.6828 53.172 15.5788 52.724 15.3708 52.356C15.1628 51.988 14.8908 51.716 14.5548 51.54C14.2188 51.356 13.8548 51.264 13.4628 51.264C13.0628 51.264 12.6948 51.356 12.3588 51.54C12.0308 51.716 11.7668 51.988 11.5668 52.356C11.3668 52.724 11.2668 53.172 11.2668 53.7C11.2668 54.236 11.3628 54.688 11.5548 55.056C11.7548 55.424 12.0188 55.7 12.3468 55.884C12.6748 56.06 13.0348 56.148 13.4268 56.148ZM21.4385 50.304C22.2385 50.304 22.8865 50.548 23.3825 51.036C23.8785 51.516 24.1265 52.212 24.1265 53.124V57H23.0465V53.28C23.0465 52.624 22.8825 52.124 22.5545 51.78C22.2265 51.428 21.7785 51.252 21.2105 51.252C20.6345 51.252 20.1745 51.432 19.8305 51.792C19.4945 52.152 19.3265 52.676 19.3265 53.364V57H18.2345V50.424H19.3265V51.36C19.5425 51.024 19.8345 50.764 20.2025 50.58C20.5785 50.396 20.9905 50.304 21.4385 50.304ZM28.2383 57.108C27.7343 57.108 27.2823 57.024 26.8823 56.856C26.4823 56.68 26.1663 56.44 25.9343 56.136C25.7023 55.824 25.5743 55.468 25.5503 55.068H26.6783C26.7103 55.396 26.8623 55.664 27.1343 55.872C27.4143 56.08 27.7783 56.184 28.2263 56.184C28.6423 56.184 28.9703 56.092 29.2103 55.908C29.4503 55.724 29.5703 55.492 29.5703 55.212C29.5703 54.924 29.4423 54.712 29.1863 54.576C28.9303 54.432 28.5343 54.292 27.9983 54.156C27.5103 54.028 27.1103 53.9 26.7983 53.772C26.4943 53.636 26.2303 53.44 26.0063 53.184C25.7903 52.92 25.6823 52.576 25.6823 52.152C25.6823 51.816 25.7823 51.508 25.9823 51.228C26.1823 50.948 26.4663 50.728 26.8343 50.568C27.2023 50.4 27.6223 50.316 28.0943 50.316C28.8223 50.316 29.4103 50.5 29.8583 50.868C30.3063 51.236 30.5463 51.74 30.5783 52.38H29.4863C29.4623 52.036 29.3223 51.76 29.0663 51.552C28.8183 51.344 28.4823 51.24 28.0583 51.24C27.6663 51.24 27.3543 51.324 27.1223 51.492C26.8903 51.66 26.7743 51.88 26.7743 52.152C26.7743 52.368 26.8423 52.548 26.9783 52.692C27.1223 52.828 27.2983 52.94 27.5063 53.028C27.7223 53.108 28.0183 53.2 28.3943 53.304C28.8663 53.432 29.2503 53.56 29.5463 53.688C29.8423 53.808 30.0943 53.992 30.3023 54.24C30.5183 54.488 30.6303 54.812 30.6383 55.212C30.6383 55.572 30.5383 55.896 30.3383 56.184C30.1383 56.472 29.8543 56.7 29.4863 56.868C29.1263 57.028 28.7103 57.108 28.2383 57.108ZM38.0119 50.424V57H36.9199V56.028C36.7119 56.364 36.4199 56.628 36.0439 56.82C35.6759 57.004 35.2679 57.096 34.8199 57.096C34.3079 57.096 33.8479 56.992 33.4399 56.784C33.0319 56.568 32.7079 56.248 32.4679 55.824C32.2359 55.4 32.1199 54.884 32.1199 54.276V50.424H33.1999V54.132C33.1999 54.78 33.3639 55.28 33.6919 55.632C34.0199 55.976 34.4679 56.148 35.0359 56.148C35.6199 56.148 36.0799 55.968 36.4159 55.608C36.7519 55.248 36.9199 54.724 36.9199 54.036V50.424H38.0119ZM40.9476 48.12V57H39.8556V48.12H40.9476ZM44.1408 51.324V55.2C44.1408 55.52 44.2088 55.748 44.3448 55.884C44.4808 56.012 44.7168 56.076 45.0528 56.076H45.8568V57H44.8728C44.2648 57 43.8088 56.86 43.5048 56.58C43.2008 56.3 43.0488 55.84 43.0488 55.2V51.324H42.1968V50.424H43.0488V48.768H44.1408V50.424H45.8568V51.324H44.1408ZM46.7719 53.688C46.7719 53.016 46.9079 52.428 47.1799 51.924C47.4519 51.412 47.8239 51.016 48.2959 50.736C48.7759 50.456 49.3079 50.316 49.8919 50.316C50.4679 50.316 50.9679 50.44 51.3919 50.688C51.8159 50.936 52.1319 51.248 52.3399 51.624V50.424H53.4439V57H52.3399V55.776C52.1239 56.16 51.7999 56.48 51.3679 56.736C50.9439 56.984 50.4479 57.108 49.8799 57.108C49.2959 57.108 48.7679 56.964 48.2959 56.676C47.8239 56.388 47.4519 55.984 47.1799 55.464C46.9079 54.944 46.7719 54.352 46.7719 53.688ZM52.3399 53.7C52.3399 53.204 52.2399 52.772 52.0399 52.404C51.8399 52.036 51.5679 51.756 51.2239 51.564C50.8879 51.364 50.5159 51.264 50.1079 51.264C49.6999 51.264 49.3279 51.36 48.9919 51.552C48.6559 51.744 48.3879 52.024 48.1879 52.392C47.9879 52.76 47.8879 53.192 47.8879 53.688C47.8879 54.192 47.9879 54.632 48.1879 55.008C48.3879 55.376 48.6559 55.66 48.9919 55.86C49.3279 56.052 49.6999 56.148 50.1079 56.148C50.5159 56.148 50.8879 56.052 51.2239 55.86C51.5679 55.66 51.8399 55.376 52.0399 55.008C52.2399 54.632 52.3399 54.196 52.3399 53.7ZM57.6172 57.108C57.1132 57.108 56.6612 57.024 56.2612 56.856C55.8612 56.68 55.5452 56.44 55.3132 56.136C55.0812 55.824 54.9532 55.468 54.9292 55.068H56.0572C56.0892 55.396 56.2412 55.664 56.5132 55.872C56.7932 56.08 57.1572 56.184 57.6052 56.184C58.0212 56.184 58.3492 56.092 58.5892 55.908C58.8292 55.724 58.9492 55.492 58.9492 55.212C58.9492 54.924 58.8212 54.712 58.5652 54.576C58.3092 54.432 57.9132 54.292 57.3772 54.156C56.8892 54.028 56.4892 53.9 56.1772 53.772C55.8732 53.636 55.6092 53.44 55.3852 53.184C55.1692 52.92 55.0612 52.576 55.0612 52.152C55.0612 51.816 55.1612 51.508 55.3612 51.228C55.5612 50.948 55.8452 50.728 56.2132 50.568C56.5812 50.4 57.0012 50.316 57.4732 50.316C58.2012 50.316 58.7892 50.5 59.2372 50.868C59.6852 51.236 59.9252 51.74 59.9572 52.38H58.8652C58.8412 52.036 58.7012 51.76 58.4452 51.552C58.1972 51.344 57.8612 51.24 57.4372 51.24C57.0452 51.24 56.7332 51.324 56.5012 51.492C56.2692 51.66 56.1532 51.88 56.1532 52.152C56.1532 52.368 56.2212 52.548 56.3572 52.692C56.5012 52.828 56.6772 52.94 56.8852 53.028C57.1012 53.108 57.3972 53.2 57.7732 53.304C58.2452 53.432 58.6292 53.56 58.9252 53.688C59.2212 53.808 59.4732 53.992 59.6812 54.24C59.8972 54.488 60.0092 54.812 60.0172 55.212C60.0172 55.572 59.9172 55.896 59.7172 56.184C59.5172 56.472 59.2332 56.7 58.8652 56.868C58.5052 57.028 58.0892 57.108 57.6172 57.108Z" fill="white"/>
</svg>
