<svg width="75" height="139" viewBox="0 0 75 139" fill="none" xmlns="http://www.w3.org/2000/svg">
<path d="M75 105.269V39.5V36.9404C75 26.7366 61.5128 23.0855 56.3656 31.8959L54.8182 34.5445C53.0253 37.6134 49.7381 39.5 46.1838 39.5H10C4.47715 39.5 0 43.9772 0 49.5V93.5C0 99.0229 4.47715 103.5 10 103.5H46.4965C49.8811 103.5 53.036 105.212 54.8807 108.05L56.6158 110.719C62.041 119.065 75 115.223 75 105.269Z" fill="#FBFBFB"/>
<path d="M41.5351 79.8281C40.7983 78.0827 39.7289 76.4973 38.3867 75.1602C37.0485 73.8192 35.4634 72.75 33.7187 72.0117C33.7031 72.0039 33.6875 72 33.6718 71.9922C36.1054 70.2344 37.6875 67.3711 37.6875 64.1406C37.6875 58.7891 33.3515 54.4531 28 54.4531C22.6484 54.4531 18.3125 58.7891 18.3125 64.1406C18.3125 67.3711 19.8945 70.2344 22.3281 71.9961C22.3125 72.0039 22.2969 72.0078 22.2812 72.0156C20.5312 72.7539 18.9609 73.8125 17.6133 75.1641C16.2723 76.5022 15.2031 78.0874 14.4648 79.832C13.7395 81.5401 13.3483 83.3713 13.3125 85.2266C13.3114 85.2683 13.3187 85.3097 13.334 85.3486C13.3492 85.3874 13.3721 85.4228 13.4012 85.4526C13.4303 85.4825 13.4651 85.5062 13.5036 85.5224C13.542 85.5386 13.5833 85.5469 13.625 85.5469H15.9687C16.1406 85.5469 16.2773 85.4102 16.2812 85.2422C16.3594 82.2266 17.5703 79.4023 19.7109 77.2617C21.9258 75.0469 24.8672 73.8281 28 73.8281C31.1328 73.8281 34.0742 75.0469 36.289 77.2617C38.4297 79.4023 39.6406 82.2266 39.7187 85.2422C39.7226 85.4141 39.8593 85.5469 40.0312 85.5469H42.375C42.4167 85.5469 42.458 85.5386 42.4964 85.5224C42.5348 85.5062 42.5696 85.4825 42.5988 85.4526C42.6279 85.4228 42.6507 85.3874 42.666 85.3486C42.6812 85.3097 42.6885 85.2683 42.6875 85.2266C42.6484 83.3594 42.2617 81.543 41.5351 79.8281V79.8281ZM28 70.8594C26.207 70.8594 24.5195 70.1602 23.25 68.8906C21.9804 67.6211 21.2812 65.9336 21.2812 64.1406C21.2812 62.3477 21.9804 60.6602 23.25 59.3906C24.5195 58.1211 26.207 57.4219 28 57.4219C29.7929 57.4219 31.4804 58.1211 32.75 59.3906C34.0195 60.6602 34.7187 62.3477 34.7187 64.1406C34.7187 65.9336 34.0195 67.6211 32.75 68.8906C31.4804 70.1602 29.7929 70.8594 28 70.8594Z" fill="#0077B6"/>
</svg>
