<svg width="70" height="70" viewBox="0 0 70 70" fill="none" xmlns="http://www.w3.org/2000/svg">
<path fill-rule="evenodd" clip-rule="evenodd" d="M9.95159 19.6654C9.62965 19.9876 9.44887 20.4244 9.44901 20.8798C9.44914 21.3352 9.6302 21.772 9.95234 22.0939C10.2745 22.4158 10.7113 22.5966 11.1667 22.5965C11.6222 22.5963 12.0589 22.4153 12.3808 22.0931L13.5947 20.8793L19.6641 26.9486L14.8086 31.8055C14.6446 31.9639 14.5138 32.1534 14.4239 32.3628C14.3339 32.5723 14.2866 32.7976 14.2846 33.0256C14.2826 33.2535 14.3261 33.4796 14.4124 33.6906C14.4987 33.9016 14.6262 34.0933 14.7874 34.2545C14.9486 34.4157 15.1403 34.5431 15.3513 34.6295C15.5623 34.7158 15.7884 34.7592 16.0163 34.7573C16.2443 34.7553 16.4696 34.7079 16.679 34.618C16.8885 34.528 17.078 34.3972 17.2364 34.2333L19.6641 31.8055L40.306 52.4471C41.4872 53.6284 42.9873 54.4395 44.6226 54.7811C46.2578 55.1227 47.9572 54.9799 49.5125 54.3703L51.2339 56.0902C51.66 56.5165 52.1909 56.8231 52.7731 56.9792C53.3553 57.1352 53.9683 57.1352 54.5506 56.9791L58.5172 60.9457C58.6766 61.1052 58.8659 61.2317 59.0742 61.3181C59.2825 61.4044 59.5058 61.4489 59.7313 61.449C59.9568 61.449 60.1801 61.4047 60.3885 61.3185C60.5968 61.2322 60.7862 61.1058 60.9457 60.9464C61.1052 60.787 61.2317 60.5977 61.3181 60.3894C61.4045 60.1811 61.4489 59.9578 61.449 59.7323C61.4491 59.5068 61.4047 59.2835 61.3185 59.0751C61.2323 58.8668 61.1058 58.6774 60.9464 58.5179L56.9783 54.5499C57.1342 53.9676 57.134 53.3544 56.9777 52.7722C56.8214 52.19 56.5145 51.6592 56.0879 51.2333L54.3695 49.5134C54.9796 47.958 55.1228 46.2585 54.7815 44.623C54.4401 42.9874 53.6291 41.487 52.4478 40.3055L31.8059 19.6639L34.2351 17.2362C34.3946 17.0767 34.5212 16.8874 34.6075 16.6789C34.6938 16.4705 34.7382 16.2472 34.7382 16.0216C34.7382 15.796 34.6938 15.5727 34.6075 15.3643C34.5212 15.1559 34.3946 14.9665 34.2351 14.807C34.0756 14.6475 33.8863 14.521 33.6779 14.4347C33.4694 14.3483 33.2461 14.3039 33.0205 14.3039C32.7949 14.3039 32.5716 14.3483 32.3632 14.4347C32.1548 14.521 31.9654 14.6475 31.8059 14.807L26.9504 19.6639L20.881 13.5946L22.0934 12.3808C22.2529 12.2214 22.3794 12.0321 22.4658 11.8238C22.5521 11.6155 22.5966 11.3922 22.5967 11.1667C22.5968 10.9412 22.5524 10.7179 22.4662 10.5095C22.3799 10.3011 22.2535 10.1118 22.0941 9.9523C21.9347 9.79279 21.7454 9.66625 21.5371 9.57989C21.3288 9.49353 21.1055 9.44904 20.88 9.44897C20.6545 9.44891 20.4312 9.49325 20.2228 9.57949C20.0145 9.66572 19.8251 9.79215 19.6656 9.95156L9.95159 19.6654ZM24.8506 21.7622L18.7812 15.6929L15.6945 18.7795L21.7639 24.8488L24.8506 21.7622ZM29.7076 21.7622L21.7624 29.7072L28.3008 36.2455L36.2459 28.3005L29.7076 21.7637V21.7622ZM30.73 38.6747L34.3717 42.3163L37.1303 39.5576C37.2898 39.3982 37.4792 39.2718 37.6876 39.1856C37.8959 39.0993 38.1192 39.055 38.3447 39.0551C38.5702 39.0551 38.7935 39.0996 39.0019 39.186C39.2102 39.2723 39.3994 39.3989 39.5588 39.5584C39.7182 39.7179 39.8447 39.9072 39.9309 40.1156C40.0171 40.3239 40.0615 40.5473 40.0614 40.7728C40.0614 40.9983 40.0169 41.2215 39.9305 41.4299C39.8442 41.6382 39.7176 41.8274 39.5581 41.9868L36.8009 44.7455L39.2287 47.1732L41.9859 44.4131C42.1454 44.2536 42.3347 44.1271 42.5431 44.0407C42.7515 43.9544 42.9749 43.91 43.2005 43.91C43.4261 43.91 43.6494 43.9544 43.8578 44.0407C44.0662 44.1271 44.2556 44.2536 44.4151 44.4131C44.5746 44.5726 44.7011 44.7619 44.7875 44.9703C44.8738 45.1788 44.9182 45.4021 44.9182 45.6277C44.9182 45.8533 44.8738 46.0766 44.7875 46.285C44.7011 46.4934 44.5746 46.6828 44.4151 46.8423L41.6564 49.6009L42.4043 50.3488C43.1777 51.1224 44.16 51.6533 45.2307 51.8766C46.3015 52.0999 47.4142 52.0057 48.4322 51.6057L51.6064 48.4316C52.0062 47.4134 52.1001 46.3007 51.8765 45.23C51.653 44.1592 51.1218 43.177 50.348 42.4038L38.6737 30.7297L30.73 38.6747ZM54.0312 53.379C54.0189 53.3623 54.0055 53.3465 53.9911 53.3316L52.7683 52.1088C52.5602 52.3401 52.3397 52.56 52.108 52.7677L53.3307 53.9919C53.3456 54.0068 53.3619 54.0201 53.3782 54.032C53.5322 53.7588 53.758 53.533 54.0312 53.379Z" fill="#0077B6"/>
</svg>
