<svg width="302" height="268" viewBox="0 0 302 268" fill="none" xmlns="http://www.w3.org/2000/svg">
<path d="M5.82508 216.647L0.159857 251.796C-0.190257 253.978 0.0365582 256.202 0.822354 258.292C1.60815 260.383 2.93136 262.282 4.68731 263.84C6.44325 265.399 8.58373 266.573 10.9394 267.27C13.2951 267.968 15.8013 268.169 18.2598 267.858L57.8683 262.831C63.8696 262.078 78.9129 226.233 78.9129 226.233C78.9129 226.233 86.4665 231.985 89.5552 232.851C96.1486 234.697 102.566 228.96 104.726 223.137L110.92 197.971C110.92 197.971 120.154 202.118 123.499 202.729C127.755 203.51 131.884 201.181 134.813 198.568C136.572 197.011 137.894 195.109 138.67 193.015L142.927 169.568C142.927 169.568 153.729 172.224 157.426 172.607C161.635 173.033 165.732 171.13 168.74 168.446L186.952 152.299C202.368 156.732 218.864 157.303 234.623 153.951C250.382 150.598 264.792 143.451 276.268 133.297C292.746 118.635 302 98.7733 302 78.066C302 57.3587 292.746 37.4966 276.268 22.8354C259.746 8.21212 237.364 0 214.03 0C190.696 0 168.314 8.21212 151.793 22.8354C140.347 33.017 132.291 45.8051 128.513 59.7904C124.735 73.7757 125.381 88.4152 130.38 102.095L10.3381 208.608C7.88782 210.78 6.30328 213.603 5.82508 216.647ZM247.013 48.7962C255.744 56.567 260.647 67.0927 260.647 78.066C260.647 89.0394 255.744 99.5651 247.013 107.336L181.047 48.7962C189.804 41.0484 201.665 36.6976 214.03 36.6976C226.396 36.6976 238.257 41.0484 247.013 48.7962Z" fill="white"/>
</svg>
